<?xml version="1.0" encoding="utf-8"?>
<!-- Generator: Adobe Illustrator 12.0.0, SVG Export Plug-In . SVG Version: 6.00 Build 51448)  -->
<!DOCTYPE svg PUBLIC "-//W3C//DTD SVG 1.1//EN" "http://www.w3.org/Graphics/SVG/1.1/DTD/svg11.dtd" [
	<!ENTITY ns_svg "http://www.w3.org/2000/svg">
	<!ENTITY ns_xlink "http://www.w3.org/1999/xlink">
]>
<svg  version="1.1" id="Ebene_1" xmlns="&ns_svg;" xmlns:xlink="&ns_xlink;" width="70.867" height="70.867"
	 viewBox="0 0 70.867 70.867" overflow="visible" enable-background="new 0 0 70.867 70.867" xml:space="preserve">
<g>
	<g>
		<polygon fill="#FFFFFF" points="22.66,37.42 24.792,37.42 24.792,48.968 26.812,48.968 26.812,37.42 28.985,37.42 28.985,35.528 
			22.66,35.528 		"/>
		<path fill="#FFFFFF" d="M39.728,38.832c-0.667,0-1.291,0.363-1.877,1.085v-4.39h-1.813v13.44h1.813v-0.971
			c0.608,0.75,1.229,1.108,1.877,1.108c0.721,0,1.208-0.38,1.45-1.124c0.12-0.426,0.183-1.092,0.183-2.017v-3.989
			c0-0.949-0.063-1.609-0.183-2.013C40.937,39.212,40.449,38.832,39.728,38.832z M39.546,46.104c0,0.906-0.266,1.352-0.79,1.352
			c-0.297,0-0.601-0.143-0.902-0.448v-6.102c0.302-0.3,0.606-0.442,0.902-0.442c0.524,0,0.79,0.462,0.79,1.367V46.104z"/>
		<path fill="#FFFFFF" d="M32.651,46.606c-0.401,0.569-0.783,0.85-1.148,0.85c-0.243,0-0.381-0.143-0.424-0.424
			c-0.017-0.059-0.017-0.281-0.017-0.707v-7.372h-1.814v7.918c0,0.708,0.061,1.185,0.16,1.488c0.183,0.509,0.585,0.746,1.169,0.746
			c0.667,0,1.353-0.403,2.074-1.231v1.092h1.816V38.953h-1.816L32.651,46.606L32.651,46.606z"/>
		<path fill="#FFFFFF" d="M34.209,29.701c0.591,0,0.875-0.467,0.875-1.404v-4.256c0-0.936-0.284-1.403-0.875-1.403
			c-0.591,0-0.875,0.467-0.875,1.403v4.256C33.334,29.234,33.618,29.701,34.209,29.701z"/>
		<path fill="#FFFFFF" d="M35.433,7.087c-15.655,0-28.346,12.691-28.346,28.346c0,15.654,12.691,28.347,28.347,28.347
			c15.655,0,28.346-12.69,28.346-28.347S51.087,7.087,35.433,7.087z M38.427,21.108h1.829v7.451c0,0.43,0,0.653,0.021,0.713
			c0.04,0.285,0.183,0.43,0.428,0.43c0.367,0,0.753-0.285,1.158-0.859v-7.734h1.834v10.12h-1.834v-1.103
			c-0.729,0.836-1.425,1.243-2.094,1.243c-0.59,0-0.998-0.239-1.182-0.751c-0.103-0.306-0.164-0.791-0.164-1.505v-8.005H38.427z
			 M31.5,24.408c0-1.082,0.183-1.872,0.574-2.384c0.506-0.691,1.221-1.037,2.134-1.037c0.918,0,1.632,0.346,2.141,1.037
			c0.383,0.511,0.567,1.303,0.567,2.384v3.544c0,1.075-0.184,1.874-0.567,2.379c-0.508,0.691-1.222,1.036-2.141,1.036
			c-0.913,0-1.628-0.345-2.134-1.036c-0.39-0.506-0.574-1.304-0.574-2.379V24.408z M26.596,17.648l1.445,5.333l1.386-5.333h2.057
			l-2.446,8.081v5.5h-2.034v-5.5c-0.184-0.974-0.591-2.401-1.243-4.295c-0.428-1.261-0.875-2.525-1.304-3.784L26.596,17.648
			L26.596,17.648z M49.92,49.853c-0.367,1.597-1.673,2.773-3.246,2.949c-3.724,0.417-7.489,0.419-11.243,0.417
			c-3.751,0.002-7.521,0-11.243-0.417c-1.572-0.175-2.878-1.352-3.246-2.949c-0.523-2.273-0.523-4.758-0.523-7.098
			c0-2.342,0.007-4.824,0.53-7.098c0.368-1.599,1.672-2.775,3.244-2.951c3.723-0.416,7.493-0.418,11.245-0.416
			c3.752-0.003,7.52,0,11.245,0.416c1.572,0.175,2.878,1.353,3.245,2.951c0.523,2.273,0.52,4.756,0.52,7.098
			C50.447,45.096,50.446,47.579,49.92,49.853z"/>
		<path fill="#FFFFFF" d="M45.507,38.832c-0.928,0-1.65,0.341-2.174,1.025c-0.383,0.508-0.559,1.289-0.559,2.359v3.508
			c0,1.064,0.196,1.854,0.583,2.354c0.522,0.684,1.246,1.026,2.195,1.026c0.948,0,1.691-0.358,2.194-1.085
			c0.219-0.323,0.363-0.686,0.424-1.087c0.017-0.184,0.039-0.586,0.039-1.171v-0.264h-1.851c0,0.727-0.022,1.129-0.041,1.229
			c-0.103,0.485-0.364,0.727-0.81,0.727c-0.624,0-0.93-0.461-0.93-1.388v-1.777h3.631v-2.072c0-1.071-0.182-1.854-0.562-2.36
			C47.14,39.173,46.419,38.832,45.507,38.832z M46.394,42.78h-1.814v-0.927c0-0.927,0.305-1.389,0.91-1.389
			c0.601,0,0.903,0.463,0.903,1.389L46.394,42.78L46.394,42.78z"/>
	</g>
</g>
</svg>
