<?xml version="1.0" encoding="utf-8"?>
<!-- Generator: Adobe Illustrator 12.0.0, SVG Export Plug-In . SVG Version: 6.00 Build 51448)  -->
<!DOCTYPE svg PUBLIC "-//W3C//DTD SVG 1.1//EN" "http://www.w3.org/Graphics/SVG/1.1/DTD/svg11.dtd" [
	<!ENTITY ns_svg "http://www.w3.org/2000/svg">
	<!ENTITY ns_xlink "http://www.w3.org/1999/xlink">
]>
<svg  version="1.1" id="Ebene_1" xmlns="&ns_svg;" xmlns:xlink="&ns_xlink;" width="70.867" height="70.867"
	 viewBox="0 0 70.867 70.867" overflow="visible" enable-background="new 0 0 70.867 70.867" xml:space="preserve">
<circle fill="#FFFFFF" cx="35.457" cy="35.207" r="5.469"/>
<path fill="#FFFFFF" d="M48.233,25.559c-0.285-0.764-0.669-1.314-1.217-1.887c-0.573-0.573-1.122-0.932-1.885-1.218
	c-0.575-0.215-1.433-0.477-3.031-0.573c-1.72-0.071-2.248-0.095-6.617-0.095c-4.371,0-4.896,0-6.615,0.095
	c-1.6,0.072-2.46,0.334-3.033,0.573c-0.764,0.286-1.314,0.669-1.887,1.218c-0.573,0.573-0.932,1.123-1.218,1.887
	c-0.215,0.573-0.477,1.433-0.573,3.033c-0.071,1.72-0.095,2.245-0.095,6.615c0,4.371,0,4.896,0.095,6.617
	c0.072,1.599,0.334,2.458,0.573,3.031c0.286,0.764,0.669,1.314,1.218,1.885c0.572,0.574,1.123,0.932,1.887,1.219
	c0.573,0.215,1.433,0.479,3.033,0.574c1.717,0.07,2.245,0.094,6.615,0.094c4.369,0,4.893,0,6.617-0.094
	c1.599-0.074,2.456-0.335,3.031-0.574c0.763-0.287,1.314-0.669,1.885-1.219c0.574-0.571,0.932-1.121,1.217-1.885
	c0.216-0.573,0.477-1.433,0.572-3.031c0.075-1.721,0.097-2.247,0.097-6.617s0-4.896-0.097-6.615
	C48.735,26.992,48.447,26.132,48.233,25.559z M35.457,43.637c-4.657,0-8.405-3.773-8.405-8.405c0-4.633,3.772-8.406,8.405-8.406
	c4.656,0,8.406,3.773,8.406,8.406C43.863,39.863,40.089,43.637,35.457,43.637z M44.196,28.424c-1.097,0-1.958-0.883-1.958-1.958
	c0-1.099,0.884-1.958,1.958-1.958c1.1,0,1.959,0.883,1.959,1.958C46.179,27.565,45.296,28.424,44.196,28.424z"/>
<path fill="#FFFFFF" d="M35.433,7.087c-15.665,0-28.346,12.681-28.346,28.346S19.769,63.78,35.433,63.78S63.78,51.099,63.78,35.433
	C63.779,19.768,51.072,7.087,35.433,7.087z M51.741,41.965c-0.071,1.743-0.356,2.938-0.763,3.988
	c-0.431,1.073-0.98,2.006-1.886,2.913c-0.907,0.906-1.815,1.482-2.914,1.885c-1.051,0.406-2.245,0.669-3.987,0.765
	c-1.744,0.073-2.294,0.095-6.758,0.095c-4.466,0-5.015-0.021-6.758-0.095c-1.743-0.07-2.938-0.358-3.988-0.765
	c-1.074-0.43-2.006-0.98-2.914-1.885c-0.907-0.907-1.48-1.814-1.885-2.913c-0.406-1.051-0.669-2.246-0.765-3.988
	c-0.071-1.743-0.095-2.292-0.095-6.758c0-4.465,0.024-5.015,0.095-6.758c0.072-1.744,0.359-2.937,0.765-3.988
	c0.43-1.074,0.979-2.006,1.885-2.914c0.908-0.908,1.815-1.481,2.914-1.887c1.05-0.406,2.246-0.669,3.988-0.764
	c1.743-0.072,2.292-0.096,6.758-0.096c4.464,0,5.015,0.024,6.758,0.096c1.744,0.071,2.937,0.358,3.987,0.764
	c1.075,0.43,2.007,0.979,2.914,1.887c0.908,0.906,1.481,1.815,1.886,2.914c0.406,1.051,0.669,2.245,0.763,3.988
	c0.096,1.743,0.096,2.292,0.096,6.758C51.837,39.673,51.814,40.222,51.741,41.965z"/>
</svg>
