<svg xmlns="http://www.w3.org/2000/svg" style="display: none;">
  <symbol id="img-symbol-gb" viewBox="0 0 59 60">
	<clipPath id="clip">
		<polygon points="22.588,30.643 21.857,35.115 15.958,34.521 11.099,36.606 17.729,42.723 3.438,41.831 
			0.633,46.452 13.599,49.736 28.337,58.983 30.988,51.524 37.923,48.395 38.356,43.47 35.12,39.147 38.508,40.336 40.716,38.102 
			40.867,29.597 38.508,28.107 43.226,27.21 43.074,19.752 47.942,21.391 58.105,13.338 49.411,6.474 47.499,0.208 38.063,6.924 
			36,14.531 29.958,17.513 30.848,26.617 27.892,30.043 		"/>
	</clipPath>
    <g clip-path="url(#clip)">
		<polygon fill="#E00036" points="57.991,25.963 32.475,25.963 32.475,0 25.517,0 25.517,25.963 0,25.963 0,33.044 25.517,33.044 
			25.517,59.007 32.475,59.007 32.475,33.044 57.991,33.044 		"/>
		<path fill="#E00036" d="M2.479,0H0.002v0.652l21.613,22.951h1.211v-1.998L11.304,9.369L2.479,0z M52.259,0L35.198,18.112v3.283
			L55.352,0H52.259z M39.393,35.405H36.33l21.666,23.021L58,58.43l0.006-3.152L39.393,35.405z M0.582,59.007h3.093l14.4-15.287
			l4.751-5.043v-3.272h-0.011L0.582,59.007z"/>
		<path fill="#012169" d="M35.198,0v16.143L50.418,0H35.198z M57.996,52.852L58,35.405H41.546L57.996,52.852z M38.983,23.603h19.02
			l0.005-20.178L38.983,23.603z M22.826,15.554V0H8.159L22.826,15.554z M0,35.403v18.072l17.039-18.07L0,35.403z M19.589,23.603
			L0,2.828v20.774L19.589,23.603z M35.198,59.007h17.776L35.198,40.155V59.007z M22.826,59.007V40.74L5.603,59.007H22.826z"/>
		<path fill="#FFFFFF" d="M22.826,15.554L8.159,0H2.479l20.348,21.605v1.998h-1.211L0.006,0.656L0,2.828l19.589,20.775H0.017v2.36
			h25.508V0h-2.698V15.554z M58.008,3.425L58.003,0h-2.651L35.198,21.396v-3.284L52.259,0h-1.841l-15.22,16.143V0h-2.715v25.963H58
			v7.081H32.483v25.963h2.715V40.155l17.776,18.852h5.021v-0.581L36.33,35.405h3.063l18.604,19.862v-2.416L41.544,35.405h16.464
			V23.603H38.983L58.008,3.425z M0.017,35.405h17.021L0,53.475v5.532h0.582l22.233-23.602h0.011v3.272L3.675,59.007h1.928
			L22.826,40.74v18.267h2.698V33.044H0.017V35.405z"/>
    </g>
  </symbol>
</svg>
