<svg xmlns="http://www.w3.org/2000/svg" style="display: none;">
	<symbol id="img-symbol-gr" viewBox="0 0 28 46">
		<clipPath id="clip">
			<path d="M9.037,36.963l-2.841,1.021l5.507,5.781l7.812,1.131l0.928-2.837l-7.328-1.163L9.037,36.963z M27.309,8.178
				l-8.475-4.939l-7.681-2.918l-9.41,2.611L0.006,7.394L1.86,18.027l2.633,2.076l-1.762,1.283l-0.503,6.525l5.794,2.274l-0.618-4.204
				l3.214,0.371l-4.25-5.375l7.5,4.125l-3.801-9.455l5.048-9.407l1.103,3.098l1.297,2.018l3.099-0.721l-0.937-2.522l3.037,2.239
				L27.309,8.178z"/>
		</clipPath>
		<g clip-path="url(#clip)">
			<rect y="10.38" fill="#0D5EAF" width="5.581" height="6.897"/>
			<rect fill="#0D5EAF" width="5.581" height="6.906"/>
			<polygon fill="#0D5EAF" points="14.636,10.38 9.055,10.38 9.055,17.277 27.649,17.277 27.649,13.838 14.636,13.838 			"/>
			<polygon fill="#0D5EAF" points="9.055,0 9.055,6.906 14.636,6.906 14.636,3.449 27.649,3.449 27.649,0 			"/>
			<rect y="20.752" fill="#0D5EAF" width="27.649" height="3.439"/>
			<rect x="14.636" y="6.923" fill="#0D5EAF" width="13.014" height="3.44"/>
			<polygon fill="#FFFFFF" points="27.649,6.923 27.649,3.449 14.636,3.449 14.636,6.906 9.055,6.906 9.055,0 5.581,0 5.581,6.906 
				0,6.906 0,10.38 5.581,10.38 5.581,17.277 0,17.277 0,20.752 27.649,20.752 27.649,17.277 9.055,17.277 9.055,10.38 
				14.636,10.38 14.636,13.838 27.649,13.838 27.649,10.363 14.636,10.363 14.636,6.923 			"/>
			<rect y="27.667" fill="#0D5EAF" width="27.649" height="3.449"/>
			<rect y="24.192" fill="#FFFFFF" width="27.649" height="3.475"/>
			<rect y="35.706" fill="#0D5EAF" width="27.649" height="3.439"/>
			<rect y="42.62" fill="#0D5EAF" width="27.649" height="2.295"/>
			<rect y="39.146" fill="#FFFFFF" width="27.649" height="3.475"/>
		</g>
	</symbol>
</svg>

