<svg xmlns="http://www.w3.org/2000/svg" style="display: none;">
	<symbol id="img-symbol-de" viewBox="0 0 40 46">
		<clipPath id="clip">
			<polygon points="5.786,14.989 6.468,18.179 6.625,18.915 5.962,19.27 0.554,22.161 5.797,31.394 6.182,32.07 
				5.62,32.609 0.084,37.923 5.27,43.43 14.582,45.861 21.814,44.393 21.117,32.886 21.036,31.548 22.342,31.851 30.479,33.742 
				38.317,19.479 38.768,11.716 37.387,11.716 32.271,2.964 32.985,2.204 26.631,0 25.206,2.167 19.426,2.974 19.462,3.015 		"/>
		</clipPath>
		<g clip-path="url(#clip)">
			<path fill="black" d="M0,0.076h38.998v15.332H0V0.076L0,0.076z"/>
			<path fill="#DD0000" d="M0.006,15.408h39v15.334h-39V15.408L0.006,15.408z"/>
			<path fill="#FFCE00" d="M0.006,30.742h39v15.334h-39V30.742L0.006,30.742z"/>
		</g>
	</symbol>
</svg>

