<svg xmlns="http://www.w3.org/2000/svg" style="display: none;">
	<symbol id="img-symbol-au" viewBox="0 0 196 202">
		<clipPath id="clip">
			<path d="M153,0.016l-14,43l-20-16l8-16l-21-5v7l-6-1l-10,12l2,6l-14-9l-16,14v7l-3-5l-12,16l-38,12l-3,54l-6,2l13,9
				l72-6l7,17l16-9l-9,13l7-3l-6,8l7-2l-3,14l14,11l8-5l5,7l19-4l10-21l19-11l17-43l-19-38l-10-6l-3-26l-5-5L153,0.016z M116,182.016
				l-3,16l6,4l13-15l-10,1L116,182.016z M116,176.016l-2,2l1,3l3-2L116,176.016z M131,185.016h3l1-4l-3-1L131,185.016z M97,6.016
				l-3,4l6,1l3-3L97,6.016z"/>
		</clipPath>
		<g clip-path="url(#clip)">
			<path fill="#012169" d="M0.019,0h195.997L196,202.016H0L0.019,0z"/>
			<path id="c_8_" fill="#FFFFFF" d="M150.363,141.398l2.043,6.356l6.243-2.366l-3.693,5.562l5.741,3.407l-6.651,0.578l0.917,6.613
				l-4.6-4.839l-4.6,4.839l0.915-6.613l-6.65-0.578l5.741-3.407l-3.694-5.562l6.243,2.366L150.363,141.398z"/>
			<path id="c_7_" fill="#FFFFFF" d="M125.622,65.515l2.278,7.084l6.958-2.635l-4.116,6.197l6.398,3.797l-7.414,0.645l1.021,7.37
				l-5.126-5.393l-5.125,5.393l1.021-7.37l-7.413-0.645l6.398-3.797l-4.117-6.197l6.958,2.635L125.622,65.515z"/>
			<path id="c_6_" fill="#FFFFFF" d="M151.015,14.207l2.28,7.084l6.957-2.636l-4.116,6.198l6.397,3.796l-7.412,0.646l1.021,7.37
				l-5.127-5.394l-5.126,5.394l1.022-7.37l-7.412-0.646l6.398-3.796l-4.118-6.198l6.958,2.636L151.015,14.207z"/>
			<path id="c_5_" fill="#FFFFFF" d="M176.808,56.866l2.276,7.083l6.959-2.635l-4.117,6.197l6.398,3.797l-7.413,0.646l1.021,7.371
				l-5.124-5.395l-5.127,5.395l1.021-7.371l-7.414-0.646l6.399-3.797l-4.117-6.197l6.958,2.635L176.808,56.866z"/>
			<path id="d_1_" fill="#FFFFFF" d="M158.487,91.227l1.935,4.741l5.106,0.374l-3.912,3.304l1.223,4.971l-4.352-2.699l-4.351,2.699
				l1.223-4.971l-3.911-3.304l5.105-0.374L158.487,91.227z"/>
			<path fill="#FFFFFF" d="M0.003,97.056v-8.91l85.022-85.13h12.793l0.008,4.518L9.452,97.056H0.981H0.003z"/>
			<path fill="#E00036" d="M48.683,48.69h5.216L6.196,97.056H0.981L48.683,48.69z"/>
			<path fill="#E00036" d="M45.641,50.381h-5.215L88.127,3.016h5.217L45.641,50.381z"/>
			<path fill="#FFFFFF" d="M97.806,97.056h-8.471L0.003,6.569l0.014-3.554h13.744l84.045,84.125V97.056z"/>
			<path fill="#E00036" d="M97.817,91.048l-0.009,5.077L50.755,48.374h5.217L97.817,91.048z"/>
			<path fill="#E00036" d="M0.003,3.064V3.016h4.176l48.316,47.999h-5.216L0.003,3.064z"/>
			<path fill="#FFFFFF" d="M38.469,3.016h20.863v94.04H38.469V3.016z"/>
			<path fill="#FFFFFF" d="M0.003,59.039V40.032h97.795v19.007H0.003z"/>
			<path fill="#E00036" d="M0.003,55.237V43.834h97.795v11.403H0.003z"/>
			<path fill="#E00036" d="M43.033,3.016h11.734v94.04H43.033V3.016z"/>
		</g>
	</symbol>
</svg>

