<svg xmlns="http://www.w3.org/2000/svg" style="display: none;">
	<symbol id="img-symbol-fr" viewBox="0 0 50 80">
		<clipPath id="clip">
			<path d="M31.7,77.207l1.06,2.401l3.187-3.205l0.573-4.589l-3.672,1.377L31.7,77.207z M26.853,62.559l6.607-1.673
				l-1.514-7.266l-0.106-0.51l0.356-0.379l5.089-5.406l-1.217-6.194l-0.162-0.825l0.784-0.301l7.207-2.772l0.147-0.141l5.689-5.461
				l-5.366-9.449l-0.507-0.892l0.052-0.027L37.737,6.909l-0.666-0.043l-5.113,1.989l-3.533-3.183l-3.542,3.581l-4.717-9.15
				l-5.503,9.947l-3.145-9.151l-9.82,2.785l5.899,10.34l0.388,10.345l-7.074,4.376L0.125,39.088L0,39.06
				c0.853,1.279,1.452,2.179,1.463,2.197l10.775,19.088l3.211-4.551l10.22,1.592L26.853,62.559z"/>
		</clipPath>
		<g clip-path="url(#clip)">
			<path fill="#ED2939" d="M33.394,0H50.06v79.667H33.394V0z"/>
			<path fill="#FFFFFF" d="M16.725,0h16.669v79.667H16.725V0z"/>
			<path fill="#002395" d="M0.06,0h16.665v79.667H0.06V0z"/>
		</g>
	</symbol>
</svg>
