<svg xmlns="http://www.w3.org/2000/svg" style="display: none;">
	<symbol id="img-symbol-jp" viewBox="0 0 54 111">
		<clipPath id="clip">
			<path d="M32.43,5.167l-4.716,0.398l0.983,3.979l2.35,6.164l4.528,2.589l-5.306,5.767l-5.701-4.377l-4.129,5.771
				l3.731,5.964L11.404,43.757l-6.878-1.788l2.161,11.337l-0.199,6.165l6.488-2.982l7.463-4.376l7.274,5.369l3.729-6.764l3.731-1.989
				v-4.372l-4.905-4.775l6.091,2.982l1.96-1.39l5.304,0.595l1.384-2.387l-2.956-7.162l2.557-0.594l1.375,5.369l3.541,1.792
				l5.105-4.578l-0.787-9.746L41.068,9.942l-0.391-7.957L33.604,0L32.43,5.167z M19.454,54.696l-4.12,2.785l1.572,4.181l6.09,0.992
				L19.454,54.696z M18.677,65.836l-4.915-4.376L7.86,63.646l0.399,3.581l6.875,4.578l2.945-0.599L18.677,65.836z M14.549,75.979
				l0.188,6.563l-6.877,9.75v4.171l3.345,0.604l9.234-10.545l0.199-9.942l-4.518-2.191L14.549,75.979z M5.114,94.277L0,98.054
				l2.367,12.339l4.519,0.192L5.114,94.277z"/>
		</clipPath>
		<g clip-path="url(#clip)">
			<path fill="#FFFFFF" d="M0.492,0.122h54v111h-54V0.122z"/>
			<circle fill="#BC002D" cx="30.992" cy="55.622" r="18.5"/>
		</g>
	</symbol>
</svg>
