<svg xmlns="http://www.w3.org/2000/svg" xmlns:xlink="http://www.w3.org/1999/xlink" style="display: none;">
	<symbol id="img-symbol-ca" viewBox="0 0 325 284">
		<clipPath id="clip">
			<path d="M161,42.053l-4,1l2,3l4-3h5l-7-9l-16-3l5,11H161z M121,53.053l-3,4h5L121,53.053z M130,37.053l-10,6l15-3
				L130,37.053z M135.107,104.53L143,96.638l-1.754-6.139l-6.139,6.139l-6.138,0.877l-6.139,14.908l-0.877-13.154l-6.138,6.139
				l-0.877-4.385l-2.63-2.631l-5.262,5.262l2.631-7.893l-21.046,11.4l6.559,6.357L86,116.807l2.631,6.139l14.673-1.754l2.865,3.507
				l-19.292,1.754l2.631,5.262H97.4l1.754,7.015l17.31-3.507l3.736-4.385l14.908,8.769L143,127.33l-11.4-8.769l3.507-3.508V104.53z
				M137.143,68.148l-6.333,0.905v-3.619l-12.667-5.429L110,74.482l9.952,1.81l1.81-1.81h6.333l-7.238,4.523l5.429,3.619
				l11.762-8.143h9.047L148,62.72l-5.429,0.905l-4.523-8.143l-6.333,6.333L137.143,68.148z M101,72.053l5,1l3-7h-3L101,72.053z
				M155,51.053l-10-7l2,7H155z M161,23.053l-3,1v3l5,1L161,23.053z M133.2,48.853l1.8-5.4l-18,2.7l8.1,4.5L133.2,48.853z
				M79.348,109.749l1.826-7.304L104,88.749l-0.913-7.304L92.13,77.792H78.435l-1.826,10.957L62,103.357l4.565,10.957L79.348,109.749
				z M284,156.053l-12-7l-1-7l-12,5l-3-7l-13,9l4,6l-17,1l-3,8l5,3l11-5l12,9l21-1l-12-8l14,2L284,156.053z M239,136.053l-5,6l5,2
				l8-7L239,136.053z M176.182,41.872L178,45.508h10l-2.727-3.636l-6.364-0.909v-3.636L168,34.599l4.545,8.182L176.182,41.872z
				M233,62.053l-21,2L199.786,53.91l-12-4L176,49.053l10,10h11l12,17l7-2l37,5l-2-9L233,62.053z M252.762,85.228l-11.56-0.963
				l-1.926,11.56h7.706l-15.413,6.743l3.853-15.413L218.083,97.75l-4.816,13.486l-0.963-12.523l14.45-10.596l-21.193,4.816
				L194,113.164l9.633,3.853H194l3.853,6.743l35.643,0.963l1.926-2.89l21.193,16.376l21.193,2.89l7.706,6.743L299,127.613
				l-24.083-6.743l5.78-8.669l-29.862-16.376l3.853-2.89L252.762,85.228z M183,63.053l3,13l15,1l-9-12L183,63.053z M249,64.053l-4-4
				v4H249z M243,55.053l3,1l-3-4V55.053z M181.674,26.135l-0.977,5.86l10.744,5.86l8.791-1.954l0.977-4.883l1.953,5.86l4.884,0.977
				l7.814,4.884l-11.721-1.954l1.953,12.698l29.303,0.977v3.907h5.86l-3.907-8.791l1.954-7.814l-3.907-0.977l7.814-0.977
				l-0.977-8.791l-5.86-5.861h-10.744l19.535-3.907l-2.93-5.86L252,8.553l-52-8.5l0.232,4.593l-5.86-2.93l-16.604,6.837l5.86,4.884
				l7.814,1.954h7.814l12.698-3.907l-8.791,4.884l5.861,4.884l-7.814-3.907l-6.837,0.977l2.93,3.907l7.814,1.954l0.977,2.93
				l5.861,2.93l-7.814-0.977l-0.977-3.907l-7.814-1.953l-3.907-4.884l-8.791-0.977l-8.791-5.86L168,22.228l4.884,6.837
				L181.674,26.135z M156.934,114.92l10.4-6.067L176,87.187l-17.333,4.333l0.867,7.8l-4.333-2.6l-5.2,4.333L156.934,114.92z
				M160,72.053l-5-4l-2,3l3,4L160,72.053z M175,55.053l-12-1l-2,4l-8-3l9,13l6-1l1,9l11-1L175,55.053z M194,43.053l1,5l6-1
				L194,43.053z M98.185,70.275l8.333-11.111l1.852,3.704l4.63-4.63l-0.926-7.407h-3.704L88,65.646l1.852,3.704L98.185,70.275z
				M202,184.053h5l4-5h-7L202,184.053z M292,251.053l-10-1l1-13l-9,2l-12,9l12-14l21-4l19-17v-8l-8,1l-7,8l-3-1l11-10l-14-3l-13-23
				l-11,17l-10-3l2-11l-36-1l3,14l-7,9l12,10l-14,13l7,11l-11,8l-6-19l-43-6l-8-22l36-36l1-5l13,5l-2-5l14-10l-4-8l6-1l-3-11l-13,4
				l-11,22l-7-6l6-8l-6-5l-7,12l4-15l-7-20l27-25h-21l-8,22l-14,22l8,5v8l-12,12l3-20l-6-4l-7,6l1,14h-17l-9-9l-11,4v10l-7-7l-20,1
				l9-7l-5-4H79l-21-13l-5,4l-3-10l-5,9l-2-4H23l-3,11l-0.945-1.537l-12.9,29.025L0,188.053l4,4l18,30l8,1l7.962,13.474l31.72,14.49
				l116.221,8.94l7.098-3.904l10.904,9.995l6.548,3.437l4.548,0.568l2-4l7,5h-8l2,3l-1.902,3.804l1.902,5.196l8.772-6.545
				l1.228-2.455l4.035-0.367l17.458-5.467l5.36-10.72l0.143-0.285l0.282-0.15l15.263-8.126l1.132-0.603l0.309,1.245l2.9,11.703
				l7.119-6.229l-4,9l6,1l17-16l-3-6L292,251.053z M216,172.053l-19-12l-5,15l5,4l8-6l6,2L216,172.053z M220,180.053l-4,1v6h4
				V180.053z M294,234.053l-10,1l5,3L294,234.053z M325,221.053l-10,4l-1-10l-13,24l24-4V221.053z M21,226.053l9,11l-2-10L21,226.053
				z"/>
		</clipPath>
		<g clip-path="url(#clip)">
			<polygon fill="#FF0000" points="87.005,283 0,283.053 0,0.053 87.005,0 	"/>
			<polygon fill="#FF0000" points="325,283.053 238,283.053 238.12,0.053 325,0.053 	"/>
			<polygon fill="#FFFFFF" points="87,0.053 87,283.053 238,283.053 238.12,0.053 	"/>
			<path fill="#FF0000" d="M185.448,216.963l3.006,8.266l-22.258-3.9
				c-0.175-0.031-0.353-0.041-0.531-0.031c-1.358,0.061-2.407,1.209-2.345,2.564l1.167,22.292h-4.664l1.165-22.292
				c0.009-0.178-0.001-0.355-0.031-0.529c-0.23-1.334-1.504-2.232-2.843-2.003l-22.258,3.9l3.005-8.266
				c0.251-0.673,0.041-1.43-0.518-1.884l-24.382-19.683l5.493-2.558c0.768-0.361,1.146-1.236,0.881-2.041l-4.82-14.775l14.044,2.97
				c0.785,0.162,1.575-0.247,1.891-0.982l2.722-6.379l10.96,11.727c0.393,0.416,0.975,0.602,1.54,0.495
				c0.913-0.175,1.512-1.057,1.334-1.967l-5.284-27.175l8.472,4.883c0.032,0.019,0.065,0.037,0.097,0.054
				c0.833,0.414,1.844,0.077,2.259-0.752l8.604-16.841l8.603,16.841c0.015,0.034,0.034,0.067,0.053,0.1
				c0.47,0.799,1.502,1.067,2.306,0.599l8.472-4.883l-5.285,27.175c-0.108,0.562,0.078,1.142,0.495,1.536
				c0.676,0.638,1.741,0.609,2.38-0.063l10.962-11.729l2.72,6.381c0.316,0.736,1.106,1.145,1.89,0.983l14.044-2.972l-4.819,14.776
				c-0.263,0.805,0.114,1.68,0.882,2.042l5.493,2.557l-24.381,19.683C185.406,215.533,185.198,216.291,185.448,216.963z"/>
		</g>
	</symbol>
</svg>