<svg xmlns="http://www.w3.org/2000/svg" style="display: none;">
	<symbol id="img-symbol-fi" viewBox="0 0 40 58">
		<clipPath id="clip">
			<path d="M17.729,35.417l-7.86-0.397L0.046,45.694l0.786,8.418l1.647,2.502l15.19,0.616l3.937-4.612
			c0.408-1.177,8.153-23.65,8.584-24.75l7.474-18.187l1.9-7.043l-4.511-2.35L30.183,7.2l-1.273,1.807l-0.517-2.15l-1.189-4.954
			l-1.467,0.838l-0.01-0.018l-6.618,21.337l8.442,4.989h-5.104L17.729,35.417z"/>
		</clipPath>
		<g clip-path="url(#clip)">
			<polygon fill="#002F6C" points="40,42 13,42 13,0 7,0 7,42 0,42 0,48 7,48 7,58 13,58 13,48 40,48 		"/>
			<rect fill="#FFFFFF" width="7" height="42"/>
			<rect y="48" fill="#FFFFFF" width="7" height="10"/>
			<rect x="13" fill="#FFFFFF" width="27" height="42"/>
			<rect x="13" y="48" fill="#FFFFFF" width="27" height="10"/>
		</g>
	</symbol>
</svg>
