<svg xmlns="http://www.w3.org/2000/svg" style="display: none;">
  <symbol id="img-symbol-is" viewBox="0 0 22 19">
	<clipPath id="clip">
		<polygon points="11.99,16.69 18.479,13.412 17.009,9.534 21,6.009 10,0.009 1.844,3.716 0,12.009 6,17.009 		"/>
	</clipPath>
    <g clip-path="url(#clip)">
		<rect x="0.138" fill="#02529C" width="5.638" height="6.339"/>
		<rect x="0.138" y="10.679" fill="#02529C" width="5.638" height="6.564"/>
		<rect x="10.116" fill="#02529C" width="11.021" height="6.339"/>
		<rect x="10.116" y="10.679" fill="#02529C" width="11.021" height="6.564"/>
		<g>
			<polygon fill="#DC1E35" points="21.138,7.458 8.996,7.458 8.996,0 6.896,0 6.896,7.458 0.138,7.458 0.138,9.559 6.896,9.559 
				6.896,17.243 8.996,17.243 8.996,9.559 21.138,9.559 			"/>
		</g>
		<polygon fill="#FFFFFF" points="5.775,6.339 0.138,6.339 0.138,7.458 6.896,7.458 6.896,0 5.775,0 		"/>
		<polygon fill="#FFFFFF" points="0.138,10.679 5.775,10.679 5.775,17.243 6.896,17.243 6.896,9.559 0.138,9.559 		"/>
		<polygon fill="#FFFFFF" points="10.116,6.339 10.116,0 8.996,0 8.996,7.458 21.138,7.458 21.138,6.339 		"/>
		<polygon fill="#FFFFFF" points="8.996,17.243 10.116,17.243 10.116,10.679 21.138,10.679 21.138,9.559 8.996,9.559 		"/>
    </g>
  </symbol>
</svg>
