<svg xmlns="http://www.w3.org/2000/svg" xmlns:xlink="http://www.w3.org/1999/xlink" style="display: none;">
	<symbol id="img-symbol-sk" viewBox="0 0 16 15">
		<clipPath id="clip">
			<polygon points="16,8 6,0 0,2 0,6 4,10 12,10 16,14"/>
		</clipPath>
		<g clip-path="url(#clip)">
			<rect fill="#FFFFFF" width="16" height="4"/>
			<rect y="4" fill="#0B4EA2" width="16" height="5"/>
			<rect y="9" fill="#EE1C25" width="16" height="6"/>
			<g>
				<path fill="#EE1C25" d="M7.429,11.321c4.48-1.866,3.666-6.529,3.379-8.822H4.051C3.761,4.792,2.948,9.455,7.429,11.321z"/>
				<path fill="#FFFFFF" d="M9.494,5.569C9.359,5.615,9.051,5.801,7.71,5.763c0-0.406,0.006-0.918,0.006-0.918
					s0.708,0.035,1.407,0.224c-0.016-0.56-0.016-0.57,0-1.063C8.2,4.201,7.724,4.208,7.724,4.208s0.003-0.615,0.178-1.32
					c-0.377,0.052-0.608,0.052-0.986,0c0.175,0.705,0.178,1.32,0.178,1.32S6.62,4.201,5.694,4.005c0.015,0.495,0.015,0.504,0,1.063
					c0.699-0.189,1.406-0.224,1.406-0.224s0.007,0.512,0.007,0.918c-1.34,0.039-1.652-0.148-1.785-0.193
					c0.028,0.535,0.028,0.532,0,1.04c0.572-0.171,0.754-0.184,1.778-0.201c0,0.198,0.007,1.476,0.007,1.476H7.71
					c0,0,0.006-1.278,0.006-1.476c1.023,0.017,1.206,0.03,1.778,0.201C9.466,6.101,9.466,6.104,9.494,5.569z"/>
				<path fill="#0B4EA2" d="M10.212,8.997c-0.361-0.854-1.236-1.14-1.733-0.315c-0.556-1.24-1.691-1.23-2.201,0
					C5.783,7.857,4.911,8.143,4.553,8.997l1.109,1.241l1.718,1.045l1.718-1.045L10.212,8.997z"/>
				<g>
					<path fill="#FFFFFF" d="M3.752,7.134c0.212,1.384,1.006,3.256,3.556,4.319l0.056,0.022l0.052-0.022
						c1.044-0.419,1.93-1.067,2.552-1.875c0.569-0.734,0.916-1.583,1.007-2.453l-0.003,0.011c0.161-0.923,0.063-3.478-0.089-4.655
						l-0.015-0.126h-0.128H3.982H3.855L3.841,2.482C3.76,3.206,3.517,5.681,3.752,7.134z M3.982,2.642h6.757l-0.143-0.125
						c0.16,1.257,0.235,3.748,0.093,4.571l-0.001,0.007v0.003c-0.084,0.815-0.411,1.614-0.946,2.307
						c-0.595,0.766-1.438,1.383-2.434,1.783l0.109,0.002c-1.024-0.428-1.834-1.025-2.413-1.777C4.498,8.75,4.171,7.969,4.035,7.09
						C3.802,5.67,4.046,3.229,4.126,2.515L3.982,2.642z"/>
				</g>
			</g>
		</g>
	</symbol>
</svg>