<svg xmlns="http://www.w3.org/2000/svg" style="display: none;">
	<symbol id="img-symbol-na" viewBox="0 0 445 409">
		<path d="M163,128l5-9l3,10l5-4l21,13h10l5,4l-9,7l20-1l7,7v-10l11-4l9,9h17l-1-14l7-6l6,4l-3,20l12-12v-8l-8-5
			l14-22l8-22h21l-27,25l7,20l-4,15l7-12l6,5l-6,8l7,6l11-22l13-4l3,11l-6,1l4,8l-14,10l2,5l-13-5l-1,5l-36,36l8,22l43,6l6,19l11-8
			l-7-11l14-13l-12-10l7-9l-3-14l36,1l-2,11l10,3l11-17l13,23l14,3l-11,10l3,1l7-8l8-1v8l-19,17l-21,4l-12,14l12-9l9-2l-1,13l10,1
			l6-8l3,6l-17,16l-6-1l4-9l-8,7v8l-24,16l-4,25l-19,19l11,16l-1,11l-9-6l-8-14l-6,4l-18-5l3,6l-17-2l-11,7v24l16,14l13,3l3-14h13
			l-1,19h-11l1,6l-3,7l-11-9l-8,4l-41-18v-11l-39-40l-6-1l28,35l-3,4l-14-17l-12-7l5-2l-7-5l-9-16l-28-29l-3-35l-17-14h6l-13-22
			l-8-1l-18-30l-13-14l-14-11l-1-7l-2,7H75l1.714,4.571L63,181H48l13-4l7-9H57l-1-9l-4,1l-3-13l4-8h9l2-11l-11,2l-6-9l10-7l8,5l6-8
			v-6h7v-9l23-6l29,32l8,13l3-11h20L163,128z M402,235l5,3l5-4L402,235z M419,239l24-4v-14l-10,4l-1-10L419,239z M91,171l-3,8l12-2
			l-5-7L91,171z M74,178.091V183l6-4.909l-0.545-4.909L74,178.091z M35.726,178.958l-2.262,1.304l7.405,0.654l3.015-1.738
			L35.726,178.958z M21.206,175.124l-1.057,0.512l5.383,2.501l2.785-0.71L21.206,175.124z M15.922,174.171l1.438-1.336l-3.555-1.151
			L15.922,174.171z M12.077,171.882l0.093-1.961l-2.592,0.298L12.077,171.882z M4.939,163.412l-1.248,0.924l2.02,0.938l-0.099-1.55
			l-0.771-1.862l-2.401-0.114L4.939,163.412z M20.841,102.728l-1.709,3.752l3.911,3.115l-0.145,4.998l5.621-0.637l-1.579-7.649
			L20.841,102.728z M22.012,138.177l-6.721-2.796l2.36,8.272l4.839-1.26L22.012,138.177z M1.515,120.574L0,124l4.18,1.253
			L1.515,120.574z M310,175l5,4l8-6l6,2l5-3l-19-12L310,175z M322,179l-2,5h5l4-5H322z M334,187h4v-7l-4,1V187z M348,156l-3,8l5,3
			l11-5l12,9l21-1l-12-8l14,2l6-8l-12-7l-1-7l-12,5l-3-7l-13,9l4,6L348,156z M392.917,120.816l5.78-8.669l-29.862-16.376l3.853-2.89
			l-1.926-7.707l-11.56-0.963l-1.926,11.56h7.706l-15.413,6.743l3.853-15.413l-17.339,10.596l-4.816,13.486l-0.963-12.523
			l14.45-10.596l-21.193,4.816L312,113.11l9.633,3.853H312l3.853,6.743l35.643,0.963l1.926-2.89l21.193,16.376l21.193,2.89
			l7.706,6.743L417,127.56L392.917,120.816z M352,142l5,2l8-7l-8-1L352,142z M276.667,91.467l0.867,7.8l-4.333-2.6L268,101
			l6.934,13.867l10.4-6.067L294,87.133L276.667,91.467z M249.6,118.508l3.507-3.508v-10.523L261,96.584l-1.754-6.139l-6.139,6.139
			l-6.138,0.877l-6.139,14.908l-0.877-13.154l-6.138,6.139l-0.877-4.385l-2.63-2.631l-5.262,5.262l2.631-7.893l-21.046,11.4
			l6.559,6.357L204,116.754l2.631,6.139l14.673-1.754l2.865,3.507l-19.292,1.754l2.631,5.262h7.892l1.754,7.015l17.31-3.507
			l3.736-4.385l14.908,8.769L261,127.277L249.6,118.508z M221.087,81.392l-10.957-3.652h-13.696l-1.826,10.957L180,103.304
			l4.565,10.957l12.782-4.565l1.826-7.304L222,88.696L221.087,81.392z M341,369l16-5l29,12l-14,2l-17-7L341,369z M369,383l4,4l9-1
			l-6-4L369,383z M391,378.893L386,384h12l-2-9l-6,1L391,378.893z M363.222,346.444L362,348.889l11,3.667l-1.222-4.889
			L363.222,346.444z M426,378l1,1l7,2v-4L426,378z M435,383l3,7l3-2L435,383z M444,395v-4l-4,1L444,395z M445,401l-1-4l-2,1L445,401
			z M441,404v2l3-1L441,404z M440,407l-1,1l2,1L440,407z M364.4,353.2l-1.4,5.6h7v-4.2L364.4,353.2z M373,358h2v-5l-2,1V358z
			 M379,365v-4l-5,1L379,365z M381,364l-1,2l3,1v-3H381z M389,368l2,2l3-2H389z M148,237l-2-10l-7-1L148,237z M323,267l-12-11
			l-20,11l8,2l9-4l3,3L323,267z M309,284l5,6l5-5l-4-10l6-5l-10,2L309,284z M333,280l3-6l-2-3h8l-7-5l-2,4l-8-1L333,280z M335,287
			l8-5v-3l-13,6L335,287z M354,276l3-3l-11,1l-2,4L354,276z M334,74l37,5l-2-9l-18-8l-21,2l-12.214-10.143l-12-4L294,49l10,10h11
			l12,17L334,74z M363,60v4h4L363,60z M361,52v3l3,1L361,52z M355.349,49.523l1.954-7.814l-3.907-0.977l7.814-0.977l-0.977-8.791
			l-5.86-5.861h-10.744l19.535-3.907l-2.93-5.86L370,8.5L318,0l0.232,4.593l-5.86-2.93L295.768,8.5l5.86,4.884l7.814,1.954h7.814
			l12.698-3.907l-8.791,4.884l5.861,4.884l-7.814-3.907l-6.837,0.977l2.93,3.907l7.814,1.954l0.977,2.93l5.861,2.93l-7.814-0.977
			l-0.977-3.907l-7.814-1.953l-3.907-4.884l-8.791-0.977l-8.791-5.86L286,22.174l4.884,6.837l8.791-2.93l-0.977,5.86l10.744,5.86
			l8.791-1.954l0.977-4.883l1.953,5.86l4.884,0.977l7.814,4.884l-11.721-1.954l1.953,12.698l29.303,0.977v3.907h5.86L355.349,49.523
			z M319,77l-9-12l-9-2l3,13L319,77z M298,75l-5-20l-12-1l-2,4l-8-3l9,13l6-1l1,9L298,75z M294.182,41.818L296,45.455h10
			l-2.727-3.636l-6.364-0.909v-3.636L286,34.545l4.545,8.182L294.182,41.818z M276,24v3l5,1l-2-5L276,24z M312,43l1,5l6-1L312,43z
			 M286,43l-7-9l-16-3l5,11h11l-4,1l2,3l4-3H286z M273,51l-10-7l2,7H273z M273,68l-2,3l3,4l4-3L273,68z M265.095,74.429L266,62.667
			l-5.429,0.905l-4.523-8.143l-6.333,6.333l5.429,6.333L248.81,69v-3.619l-12.667-5.429L228,74.429l9.952,1.81l1.81-1.81h6.333
			l-7.238,4.523l5.429,3.619l11.762-8.143H265.095z M241,57l-2-4l-3,4H241z M224,66l-5,6l5,1l3-7H224z M216.185,70.222l8.333-11.111
			l1.852,3.704l4.63-4.63l-0.926-7.407h-3.704L206,65.593l1.852,3.704L216.185,70.222z M235,46.1l8.1,4.5l8.1-1.8l1.8-5.4L235,46.1z
			 M238,43l15-3l-5-3L238,43z M408,377l-1,2l3,1L408,377z M419,380v-2l-4,2H419z M404,378l1-3h-3L404,378z"/>
	</symbol>
</svg>