<svg xmlns="http://www.w3.org/2000/svg" style="display: none;">
	<symbol id="img-symbol-se" viewBox="0 0 68 65">
		<clipPath id="clip">
			<polygon id="XMLID_2_" points="3.962,65.243 11.028,63.651 17.317,64.442 22.431,58.479 37.368,44.553 33.825,40.176 
				38.154,31.428 46.793,29.836 61.004,22.093 67.527,1.06 53.846,0.393 40.899,11.751 40.805,11.834 40.69,11.892 27.607,18.494 
				21.631,30.204 21.507,30.446 21.278,30.592 4.871,41.055 5.924,54.102 0.42,57.683 		"/>
		</clipPath>
		<g clip-path="url(#clip)">
			<polygon fill="#FECC00" points="68,42 19,42 19,0 12,0 12,42 0,42 0,49 12,49 12,65 19,65 19,49 68,49 		"/>
			<rect fill="#006AA7" width="12" height="42"/>
			<rect y="49" fill="#006AA7" width="12" height="16"/>
			<rect x="19" fill="#006AA7" width="49" height="42"/>
			<rect x="19" y="49" fill="#006AA7" width="49" height="16"/>
		</g>
	</symbol>
</svg>
