<svg xmlns="http://www.w3.org/2000/svg" xmlns:xlink="http://www.w3.org/1999/xlink" style="display: none;">
	<symbol id="img-symbol-us" viewBox="0 0 392 268">
		<clipPath id="clip">
			<path d="M15.922,84.171l1.438-1.336l-3.555-1.151L15.922,84.171z M12.077,81.882l0.093-1.961l-2.592,0.298
				L12.077,81.882z M22.012,48.177l-6.721-2.796l2.36,8.272l4.839-1.26L22.012,48.177z M1.515,30.574L0,34l4.18,1.253L1.515,30.574z
				M4.841,71.862L2.44,71.748l2.499,1.664l-1.248,0.924l2.02,0.938l-0.099-1.55L4.841,71.862z M122.261,71.825l0.043-1.12L136,42
				l-6-10L101,0L78,6v9h-7v6l-6,8l-8-5l-10,7l6,9l11-2l-2,11h-9l-4,8l3,13l4-1l1,9h11l-7,9l-13,4h15l13.714-9.429L75,77h17l2-7l1,7
				l14,11l8,8l5.24-24.097L122.261,71.825z M20.149,85.635l5.383,2.501l2.785-0.71l-7.111-2.303L20.149,85.635z M91,81l-3,8l12-2
				l-5-7L91,81z M74,88.091V93l6-4.909l-0.545-4.909L74,88.091z M20.841,12.728l-1.709,3.752l3.911,3.115l-0.145,4.998l5.621-0.637
				l-1.579-7.649L20.841,12.728z M33.464,90.262l7.405,0.654l3.015-1.738l-8.158-0.22L33.464,90.262z M388.348,161.252l-13.849,7.374
				l-5.407,10.815l-0.19,0.38l-0.406,0.127l-12.293,3.849L354,186l-7.045,1.409L343,190.026V192l-8,5l-5-2l3.78-1.745l-1.303-3.974
				l-6.444-8.861l-6.041-3.17L311,178l-3-3l-9,4l-8-2l9.702-5.336l-113.351-8.719l-0.177-0.014l-0.162-0.074l-29.271-13.371L161,155
				h-6l17,14l3,35l28,29l1.507,2.679l18.642-2.711l18.7,8.592l31.619,9.034L289,263.02V257l11-7l17,2l-3-6l18,5l6-4l8,14l9,6l1-11
				l-11-16l19-19l4-25l24-16v-4.012L388.348,161.252z M319,195l-5,5l-5-6l2-12l10-2l-6,5L319,195z"/>
		</clipPath>
		<g clip-path="url(#clip)">
			<path fill="#3C3B6E" d="M155,135h119.5v78.769H155V135z"/>
			<rect x="155" y="236.216" fill="#FFFFFF" width="237" height="10.952"/>
			<rect x="155" y="258.679"  fill="#FFFFFF" width="237" height="8.324"/>
			<polygon fill="#FFFFFF" points="274.5,213.769 155,213.769 155,224.706 392,224.706 392,213.755 
				274.5,213.755 	"/>
			<rect x="274.5" y="146.372" fill="#FFFFFF" width="117.5" height="10.949"/>
			<rect x="274.5" y="168.833" fill="#FFFFFF" width="117.5" height="10.951"/>
			<rect x="274.5" y="191.294" fill="#FFFFFF" width="117.5" height="10.95"/>
			<rect x="155" y="224.706" fill="#B22234" width="237" height="11.51"/>
			<rect x="155" y="247.167" fill="#B22234" width="237" height="11.512"/>
			<rect x="274.5" y="157.32" fill="#B22234" width="117.5" height="11.512"/>
			<rect x="274.5" y="135" fill="#B22234" width="117.5" height="11.372"/>
			<rect x="274.5" y="202.244" fill="#B22234" width="117.5" height="11.512"/>
			<rect x="274.5" y="179.784" fill="#B22234" width="117.5" height="11.51"/>
			<path fill="#3C3B6E" d="M0,0h136v96H0V0z"/>
			<path fill="#FFFFFF" d="M26.356,18.761l-2.895-2.103h3.579l1.104-3.403l1.105,3.403h3.577l-2.895,2.102
				l1.107,3.403l-2.895-2.103l-2.894,2.103L26.356,18.761z M50.328,33.891h3.577l-2.895,2.103l1.107,3.402l-2.896-2.103l-2.893,2.103
				l1.104-3.402l-2.894-2.103h3.578l1.104-3.402L50.328,33.891z M50.328,51.124h3.577l-2.895,2.104l1.107,3.402l-2.896-2.104
				l-2.893,2.104l1.104-3.402l-2.894-2.104h3.578l1.104-3.403L50.328,51.124z M50.328,68.356h3.577l-2.895,2.103l1.107,3.403
				l-2.896-2.103l-2.893,2.103l1.104-3.403l-2.894-2.103h3.578l1.104-3.401L50.328,68.356z M60.462,25.274h3.577l-2.894,2.103
				l1.105,3.402l-2.894-2.103l-2.894,2.103l1.105-3.402l-2.894-2.103h3.578l1.105-3.402L60.462,25.274z M60.462,42.507h3.577
				l-2.894,2.103l1.105,3.403l-2.894-2.103l-2.894,2.103l1.105-3.403l-2.894-2.103h3.578l1.105-3.402L60.462,42.507z M60.462,59.741
				h3.577l-2.894,2.101l1.105,3.403l-2.894-2.102l-2.894,2.102l1.105-3.403l-2.894-2.101h3.578l1.105-3.403L60.462,59.741z
				M64.039,76.974l-2.894,2.104l1.105,3.402l-2.894-2.104l-2.894,2.104l1.105-3.402l-2.894-2.104h3.578l1.105-3.402l1.106,3.402
				H64.039z M67.703,18.761l-2.895-2.103h3.578l1.105-3.403l1.104,3.403h3.579l-2.895,2.103l1.106,3.402l-2.895-2.103l-2.895,2.103
				L67.703,18.761z M70.596,33.891h3.579l-2.895,2.103l1.106,3.402l-2.895-2.103l-2.895,2.103l1.106-3.402l-2.895-2.103h3.578
				l1.105-3.402L70.596,33.891z M70.596,51.124h3.579l-2.895,2.104l1.106,3.402l-2.895-2.104l-2.895,2.104l1.106-3.402l-2.895-2.104
				h3.578l1.105-3.403L70.596,51.124z M70.596,68.356h3.579l-2.895,2.103l1.106,3.403l-2.895-2.102l-2.895,2.102l1.106-3.401
				l-2.895-2.104h3.578l1.105-3.401L70.596,68.356z M74.174,85.591l-2.895,2.103l1.106,3.402l-2.895-2.103l-2.895,2.103l1.106-3.402
				l-2.895-2.103h3.578l1.105-3.402l1.104,3.402H74.174z M80.795,25.274h3.578l-2.895,2.103l1.106,3.402l-2.895-2.103l-2.893,2.103
				l1.105-3.402l-2.895-2.103h3.577l1.105-3.402L80.795,25.274z M80.795,42.507h3.578l-2.895,2.103l1.106,3.403l-2.895-2.103
				l-2.893,2.103l1.105-3.403l-2.895-2.103h3.577l1.105-3.402L80.795,42.507z M80.795,59.741h3.578l-2.895,2.101l1.106,3.403
				l-2.895-2.102l-2.893,2.102l1.105-3.403l-2.895-2.101h3.577l1.105-3.403L80.795,59.741z M84.373,76.974l-2.895,2.104l1.106,3.402
				l-2.895-2.104l-2.893,2.104l1.105-3.402l-2.895-2.104h3.577l1.105-3.402l1.105,3.402H84.373z M90.931,16.658h3.577l-2.894,2.103
				l1.105,3.402l-2.894-2.103l-2.894,2.103l1.106-3.402l-2.894-2.103h3.576l1.106-3.403L90.931,16.658z M90.931,33.891h3.577
				l-2.894,2.103l1.105,3.402l-2.894-2.103l-2.894,2.103l1.106-3.402l-2.894-2.103h3.576l1.106-3.402L90.931,33.891z M90.931,51.124
				h3.577l-2.894,2.104l1.105,3.402l-2.894-2.104l-2.894,2.104l1.106-3.402l-2.894-2.104h3.576l1.106-3.403L90.931,51.124z
				M90.931,68.356h3.577l-2.894,2.103l1.105,3.403l-2.894-2.103l-2.894,2.103l1.106-3.403l-2.894-2.103h3.576l1.106-3.401
				L90.931,68.356z M94.507,85.591l-2.894,2.103l1.105,3.402l-2.894-2.103l-2.894,2.103l1.106-3.402l-2.894-2.103h3.576l1.106-3.402
				l1.106,3.402H94.507z M101.065,25.274h3.577l-2.895,2.103l1.106,3.402l-2.894-2.103l-2.894,2.103l1.104-3.402l-2.894-2.103h3.579
				l1.104-3.402L101.065,25.274z M101.065,42.507h3.577l-2.895,2.103l1.106,3.403l-2.894-2.103l-2.894,2.103l1.104-3.403l-2.894-2.103
				h3.579l1.104-3.402L101.065,42.507z M101.065,59.741h3.577l-2.895,2.101l1.106,3.403l-2.894-2.102l-2.894,2.102l1.104-3.403
				l-2.894-2.101h3.579l1.104-3.403L101.065,59.741z M104.643,76.974l-2.895,2.104l1.106,3.402l-2.894-2.104l-2.894,2.104l1.104-3.402
				l-2.894-2.104h3.579l1.104-3.402l1.106,3.402H104.643z M108.306,18.761l-2.894-2.103h3.577l1.105-3.403l1.105,3.403h3.578
				l-2.895,2.103l1.107,3.402l-2.895-2.103l-2.894,2.103L108.306,18.761z M111.199,33.891h3.578l-2.895,2.103l1.107,3.402
				l-2.895-2.103l-2.894,2.103l1.106-3.402l-2.894-2.103h3.577l1.105-3.402L111.199,33.891z M111.199,51.124h3.578l-2.895,2.104
				l1.107,3.402l-2.895-2.104L107.2,56.63l1.106-3.402l-2.894-2.104h3.577l1.105-3.403L111.199,51.124z M80.795,8.252h3.578
				l-2.895,2.102l1.106,3.403l-2.895-2.103l-2.893,2.103l1.105-3.403l-2.895-2.102h3.577L79.69,4.85L80.795,8.252z M101.065,8.252
				h3.577l-2.895,2.102l1.106,3.403l-2.894-2.103l-2.894,2.103l1.104-3.403l-2.894-2.102h3.579l1.104-3.403L101.065,8.252z
				M111.199,68.356h3.578l-2.895,2.103l1.107,3.403l-2.895-2.102l-2.894,2.102l1.106-3.401l-2.894-2.104h3.577l1.105-3.401
				L111.199,68.356z M114.777,85.591l-2.895,2.103l1.107,3.402l-2.895-2.103l-2.894,2.103l1.106-3.402l-2.894-2.103h3.577l1.105-3.402
				l1.105,3.402H114.777z M121.424,25.274h3.578l-2.895,2.103l1.106,3.402l-2.894-2.103l-2.894,2.103l1.106-3.402l-2.896-2.103h3.578
				l1.106-3.402L121.424,25.274z M121.424,42.507h3.578l-2.895,2.103l1.106,3.403l-2.894-2.103l-2.894,2.103l1.106-3.403l-2.896-2.103
				h3.578l1.106-3.402L121.424,42.507z M121.424,59.741h3.578l-2.895,2.101l1.106,3.403l-2.894-2.102l-2.894,2.102l1.106-3.403
				l-2.896-2.101h3.578l1.106-3.403L121.424,59.741z M125.001,76.974l-2.895,2.104l1.106,3.402l-2.894-2.104l-2.894,2.104l1.106-3.402
				l-2.896-2.104h3.578l1.106-3.402l1.105,3.402H125.001z M131.558,33.891h3.578l-2.895,2.103l1.105,3.402l-2.894-2.103l-2.894,2.103
				l1.104-3.402l-2.894-2.103h3.577l1.106-3.402L131.558,33.891z M131.558,51.124h3.578l-2.895,2.104l1.105,3.402l-2.894-2.104
				l-2.894,2.104l1.104-3.402l-2.894-2.104h3.577l1.106-3.403L131.558,51.124z"/>
			<path fill="#FFFFFF" d="M160.014,156.946l2.915-2.117l2.914,2.117l-1.113-3.425l2.914-2.117h-3.601
				l-1.114-3.426l-1.113,3.426h-3.602l2.914,2.117L160.014,156.946z M173.133,156.653l-1.113,3.425h-3.602l2.914,2.118l-1.113,3.426
				l2.914-2.118l2.914,2.118l-1.113-3.426l2.915-2.118h-3.603L173.133,156.653z M173.133,174.005l-1.113,3.426h-3.602l2.914,2.116
				l-1.113,3.425l2.914-2.116l2.914,2.116l-1.113-3.425l2.915-2.116h-3.603L173.133,174.005z M174.246,194.782l-1.113-3.425
				l-1.113,3.425h-3.602l2.914,2.118l-1.113,3.425l2.914-2.117l2.914,2.117l-1.113-3.425l2.915-2.118H174.246z M183.337,165.329
				l-1.112,3.426h-3.603l2.915,2.116l-1.113,3.426l2.914-2.117l2.915,2.117l-1.114-3.426l2.914-2.116h-3.602L183.337,165.329z
				M183.337,182.68l-1.112,3.425h-3.603l2.915,2.118l-1.113,3.425l2.914-2.117l2.915,2.117l-1.114-3.426l2.914-2.117h-3.602
				L183.337,182.68z M184.45,203.458l-1.113-3.426l-1.112,3.426h-3.603l2.915,2.117L180.423,209l2.914-2.117l2.915,2.117l-1.114-3.425
				l2.914-2.117H184.45z M193.541,156.653l-1.113,3.425h-3.602l2.915,2.118l-1.113,3.426l2.914-2.117l2.914,2.117l-1.113-3.426
				l2.914-2.118h-3.602L193.541,156.653z M193.541,174.005l-1.113,3.426h-3.602l2.915,2.116l-1.113,3.425l2.914-2.116l2.914,2.116
				l-1.113-3.425l2.914-2.116h-3.602L193.541,174.005z M194.654,194.782l-1.113-3.425l-1.113,3.425h-3.602l2.915,2.118l-1.113,3.425
				l2.914-2.117l2.914,2.117l-1.113-3.425l2.914-2.118H194.654z M203.745,165.329l-1.113,3.426h-3.601l2.913,2.116l-1.112,3.426
				l2.913-2.117l2.915,2.117l-1.113-3.426l2.914-2.116h-3.601L203.745,165.329z M203.745,182.68l-1.113,3.425h-3.601l2.913,2.117
				l-1.112,3.426l2.913-2.117l2.915,2.117l-1.113-3.426l2.914-2.117h-3.601L203.745,182.68z M204.859,203.458l-1.115-3.426
				l-1.113,3.426h-3.601l2.913,2.117L200.832,209l2.913-2.117l2.915,2.117l-1.113-3.425l2.914-2.117H204.859z M213.95,174.005
				l-1.113,3.426h-3.603l2.914,2.116l-1.113,3.425l2.914-2.116l2.914,2.116l-1.113-3.425l2.914-2.116h-3.602L213.95,174.005z
				M215.063,194.782l-1.113-3.425l-1.113,3.425h-3.603l2.914,2.118l-1.113,3.425l2.914-2.117l2.914,2.117l-1.113-3.425l2.914-2.118
				H215.063z M224.153,165.329l-1.113,3.426h-3.603l2.915,2.116l-1.113,3.426l2.914-2.117l2.915,2.117l-1.113-3.426l2.914-2.116
				h-3.603L224.153,165.329z M224.153,182.68l-1.113,3.425h-3.603l2.915,2.118l-1.113,3.425l2.914-2.117l2.915,2.117l-1.113-3.426
				l2.914-2.117h-3.603L224.153,182.68z M225.266,203.458l-1.113-3.426l-1.113,3.426h-3.603l2.915,2.117L221.239,209l2.914-2.117
				l2.915,2.117l-1.113-3.425l2.914-2.117H225.266z M234.423,174.005l-1.113,3.426h-3.602l2.915,2.116l-1.113,3.425l2.914-2.116
				l2.914,2.116l-1.113-3.425l2.914-2.116h-3.602L234.423,174.005z M235.535,194.782l-1.112-3.425l-1.113,3.425h-3.602l2.915,2.118
				l-1.113,3.425l2.914-2.117l2.914,2.117l-1.113-3.425l2.914-2.118H235.535z M244.626,165.329l-1.114,3.426h-3.601l2.913,2.116
				l-1.112,3.426l2.914-2.117l2.914,2.117l-1.113-3.426l2.914-2.116h-3.602L244.626,165.329z M244.626,182.68l-1.114,3.425h-3.601
				l2.913,2.117l-1.112,3.426l2.914-2.117l2.914,2.117l-1.113-3.426l2.914-2.117h-3.602L244.626,182.68z M245.74,203.458l-1.113-3.426
				l-1.114,3.426h-3.601l2.913,2.117L241.713,209l2.914-2.117l2.914,2.117l-1.113-3.425l2.914-2.117H245.74z M254.831,174.005
				l-1.112,3.426h-3.603l2.914,2.116l-1.112,3.425l2.914-2.116l2.914,2.116l-1.113-3.425l2.915-2.116h-3.602L254.831,174.005z
				M255.944,194.782l-1.114-3.425l-1.112,3.425h-3.603l2.914,2.118l-1.112,3.425l2.914-2.117l2.914,2.117l-1.113-3.425l2.915-2.118
				H255.944z M265.035,165.329l-1.114,3.426h-3.602l2.915,2.116l-1.114,3.426l2.915-2.117l2.914,2.117l-1.114-3.426l2.915-2.116
				h-3.602L265.035,165.329z M265.035,182.68l-1.114,3.425h-3.602l2.915,2.118l-1.114,3.425l2.915-2.117l2.914,2.117l-1.114-3.426
				l2.915-2.117h-3.602L265.035,182.68z M266.148,203.458l-1.113-3.426l-1.114,3.426h-3.602l2.915,2.117L262.121,209l2.915-2.117
				l2.914,2.117l-1.114-3.425l2.915-2.117H266.148z"/>
		</g>
	</symbol>
</svg>