<svg xmlns="http://www.w3.org/2000/svg" style="display: none;">
	<symbol id="img-symbol-as" viewBox="0 0 522 555">
		<path d="M320.457,58.596l-4.282,0.504l0.42,3.359l3.862-1.428V58.596z M428.5,332l2.5-14.75l-7.75-3.5l-5.25,7.5
			l5,2.75l-0.5,6L428.5,332z M437.5,309.5l2,1.25l1-7.5L430.25,312l4,5L437.5,309.5z M433,219.5l11,13.25l-7.25,1.5l3.5,2.25L436,239
			l6.75,7.25l4-5.25l-4.5-1.25l12-6.25l5.25-13.75l-6-4.25L433,219.5z M391.25,172.25l-0.25,3.375l10.125,10l5.467,2.902L431.25,217
			l1.375-5.5l7.375-0.25l-20-16l11.5-0.5L391.25,172.25z M30.135,328.251l-11,1l3,3l5-1L30.135,328.251z M268.384,443.501l5.25-3.75
			l1-4.75l6.5,20.75l-1.25,15.25l11.75,8.25l5.25,15.25l8.75,4.75l5-0.25l-4-6l0.25-10.25l-16.5-11l-3-7l-3.5,1l4-15.25l4-0.5
			l-0.75,4.25l5.25-0.5l10.5,6.25l4.5,0.25l-2.5,6.25l10-7l1-2.75l2.75,1l7.75-8.25l-3.75-14.5l-12.75-8.75l0.5-4.75l11.75-10h5.75v5
			l3-0.5l0.5-3.75l38.876-24.365l12.624-36.885l-8.25,3.25l7.25-7.75l-12-2.25l11.5-0.25l-9.5-12.25l-7-2l13-19.25h-10.75l-5.75,6
			l-0.25-5l-8.75,0.75l-0.5-4.75l5.75-3l6.25-12.5h5.75l-2.25,8.25l1.25,4.75l5-9.75l10.75-1.25l-0.75,8.75l5.25,0.75l4.25-3l3.5,5.25
			l-3.5,1.75l5,13.25l12.75-11.25l-4.25-13.5l-15-6.5l8-14.25l-4.25-3.5l5.75-14.25l6,1.5l5.5-10l-1-41.5l-15.25-20.75l-9-2.5l2-2.5
			l-10.25-1l-4,3.25l3.5,3.5l-3.5,3l-6.75-3.75l-5.25,3.75l-5.75-40l13-12.25l-4.25-6.25l10-3.25l1.5,4.5l6-10.75l-2.25-3.5l-2.75,3.5
			l-10.75-15.5l4.25-8l3.75,3.25l8-0.5l-4.75-9.5l-10.25-4.5l8-6.5l-1.5,5l11.25,4l0.25,6.75l10.75,13.25l-0.5,10.5l6.75,1.75l2,7.25
			l46.75,16.25l-5.25-13l-7-3.5l3-6l-6.5-2l-2.5-5.75l4.75-1.25l-2.25-3l-12.5-4.5l3.25-2l-2.25-2.75l-7.25,0.5l-5.25-4.5l-1.25,5.25
			l-17-11.25l4.5-3l-5-6.5l8,3.75l-5.25-6.25l2-7.75l9.5-0.75l-12.75-12.25l-4.75-14.25l4.5-10.25l-20,4l-0.5,4l-4.75-0.5l1,4.25
			l-7.5-1.5l8-6l-4.25-5.75l-7.75,0.25l-4.75-4.75l13-0.5l-1.25-5.5l9.75-2l9.25-12.75l-17,0.75l4.5-5.25L371,0l-12.866,7.751
			l-3.5,9.5l10.5-2.75l-3.75,3.75l-11.25,2l-27.5,20.75l-5,15.5l11,2l-8.5,3.75l-6.25,18.5l-6.75-4l-5.5,5.75v7.25l-9,2.75l-1.5-3
			l-9.25,11l2.5,5.25l-7,6.75l3.5,8.75l-7.75-3.5l-2.25-6.25l-10.5-0.75l3,7l-8.25,2.5l-0.25-3.75l-10.25,5l-8.25,10.25l7.75-19.25
			l-5.25-9l-9.5,6l2.75-4.25l-6.25-1.5l-6.25,7l4.25,1.75l-29,15l5,5l-17.75,3l3.75,6l6.75,0.5l-5.25,4.75l-7-5l-4.25,4.25l8.25,5.75
			l-12-2.75l1.25-7l-5.5-2.25l1.5,5.25l-2.75,4.25l3.75,2.5l0.5,10.25l9.5-2.5l1.5,9l4.25,1l-6,1.25l-3-8l-4.75,1.25l2.75,2.25
			l-7.5,12.5l-9.75-3.25l7.25-0.25l4.5-9.25l-4-2.75v-10l-4-2.25l4.5-8.75l-10.249-4l-2,11l-1.738-1.738l5.345,17.724l-27.835,96.169
			c0,0-16.609,0.849-19.55,0.999c-0.845,2.921-6.204,21.463-6.204,21.463l-0.039,0.032l4.021,3.352l-2,6h4l-4,6v-5l-7-1l0.999,3
			l-1.999,1l6,10l-1,8l4-4l4,8l-7.001-1l-1.999,4l4,5l1,13l-10-1l-11-7l8-16l-10-16l2.903-5.806l-25.053-21.904l-2.851,1.71
			l3.023,1.862l-5.023,2.138h-4l11,22l-11,5l-21-13l-9,2l-9-3l1,4l-12-2L0,298l3.135,15.251l7,6h5l1-1l6,7l14.965-1.292
			l-13.466,27.542l-14-4.5l7,20l1.75,2.75l5.25-11.25l-0.75,9.5l7,21.25l4.25,5.75v11.5l14.25,21.25l2.25,17l38.5-11l-0.5-3.75
			l11.5-3.25l10.5-7v-6.25l11.25-6l-16.5-11l1.25-6.75l-10.5,7h-8.5l3.75-6.5l-3.75-1.5l-1.75,5.75l-0.5-6.5l-6.75-18.75l9.5,0.25
			l3.25,11.75l9.75,6.5l9.5-2.5l-0.25,6l21,8.25l21,1.5l7.75,12.25h9.5l-7.25,2.75l7,8l4.5-2.5l3.25-5.75l2.75,26.5l16,31.25l11.75-10
			l3-16.25l22.25-19l0.75-6.25l21.25-5l0.25,8.75l8.75,6.25l-1.25,12L268.384,443.501z M284.959,252.112l4.316-12.048l-1.66-13.234
			l2.704-1.85l4.174,14.847l-7.115,13.519l-4.127,3.273l-3.558-1.375L284.959,252.112z M27.759,313.376l-2-2.25l2.125-2.25
			L27.759,313.376z M67.009,321.001l-0.375,3.375l-4-3.5l5.25-1.25L67.009,321.001z M73.634,332.126l-1.125-3.75l-0.25-3.625
			l2.875,0.875l-1.375,2.625l2,1.875L73.634,332.126z M74.884,315.626l-1.875-3.5l2.75,1L74.884,315.626z M126.384,300.876l-1.875-1.5
			l3.375-5.875l0.375,1.25L126.384,300.876z M134.509,294.251l-1.375-1.75l-2.875,0.125l-0.625-1.125l4.375-1l3,2.25L134.509,294.251z
			M199.259,319.626l-3,2.125l-3.875-2l7.125-2.125L199.259,319.626z M200.884,297.876l-3.375,0.75l-11.125-1l-3.125,9l-3.625-6.75
			l6.625-6.125l10.875,2.5l4-1.5L200.884,297.876z M461.75,281.5l1,5l3-4.25L458,249.5l-12-2.75l0.25,35.25l-3-5.75l-2.5,17.75
			l-2.5-3.5l-10,9L422,310.75l6.75-0.75l14.75-12l-1,5.25l4.5,2.5l3-8.25l-1.5-4l4.5,0.75L461.75,281.5z M452.62,96.888l-0.348-3.193
			h-8.303l1.103,3.89L452.62,96.888z M274.897,87.947l-4.031-6.593l-5.962,6.845l6.424,6.886L274.897,87.947z M217.899,95.508
			l-1.973,9.516l10.554-5.917L217.899,95.508z M203.919,99.798l1.938,2.941l9.343-0.934l-0.035-6.852l-6.955,0.035L203.919,99.798z
			M277.795,81.942l-1.848-5.081l-3.779,3.737l3.275,3.695L277.795,81.942z M278.803,99.117l3.905-5.207l-4.829-2.309l-3.317,2.939
			L278.803,99.117z M458.775,91.198l-1.277-2.845l-4.762,2.438l0.987,2.207L458.775,91.198z M208.764,93.328l-4.845-3.322
			l-7.509,8.235l4.464,4.499L208.764,93.328z M315.671,37.517l-0.504-7.391l-5.795-3.611l-3.107,5.795l5.375,4.703L315.671,37.517z
			M206.75,470l-1.25,12.5l4.75,2.5l5.75-4.25l-5.75-13L206.75,470z M409.877,513.997l-0.713,2.425l2.995,1.997l3.138-1.641
			l-0.356-2.567L409.877,513.997z M377.428,546.589l8.344,0.784l6.918-3.138l-12.48-1.284L377.428,546.589z M402.673,546.018
			l-6.062,2.995L394,554l5.606-0.209l4.279-5.563l10.412-5.776l-8.059-0.428L402.673,546.018z M374.147,548.728l-0.143,1.854
			l3.494,0.642L382,555l1.204-4.133l-4.707-2.71L374.147,548.728z M359.456,546.731l3.565-0.071l1.07-2.71l-2.781-0.928
			L359.456,546.731z M365.019,544.734l-0.428,2.639l5.349-0.428l-0.499-2.068L365.019,544.734z M406.811,94.507l5.226,3.6
			l-1.452-7.316l-3.947-0.348L406.811,94.507z M448.5,504l1.25-6.25l-9.25-2.25l-8,5.75L438,502l0.75,3L448.5,504z M448.458,523.197
			l-2.853,4.992l0.5,3.494l4.35-1.926l-0.214-6.774L448.458,523.197z M421.073,497.238l3.138-0.428l-1.497-12.694l-6.134,6.49
			l1.284,8.558l-2.211,1.07l-0.143,1.925h6.632L421.073,497.238z M506,527.75l7-2.5L503,520l1.75-4.5l-38.5-15l-11.75,10.75l-5.75-5.5
			l-10.5,3.5l4.75,8.5l4.25-7.75l0.5,4.75l18.75,7.5l4,7.5l-7.25,5.25l-1,3.5l11.25-2.25l12.75,6.75l8.5-11.5l14,14.5l13.25,3
			L506,527.75z M433.554,515.353l-5.277-4.85l-10.911,3.993l1.711,3.353l8.059-3.566l4.493,2.853L433.554,515.353z M431.913,536.533
			l-1.996,4.492l4.921-3.209l1.854-4.564l-5.42,1.926L431.913,536.533z M369.583,542.31l-0.642,1.569l4.85,2.781l1.212-3.281
			L369.583,542.31z M382.75,451.75l-2.25-2l3.5-5.5l-2-2l-13.5,22.25L382.75,451.75z M403.458,540.883l-4.85,1.926l4.564,0.784
			L403.458,540.883z M355,480l-5.25,10l-8.25,1.25v6.25l-11.25-1l5.25,22.75l23.25,4.5l17-28.5l-5-10.75l9.5-8.75l-11-8.5l-7,13.5
			L355,480z M379.75,390.5l4.75,5.75l5.75-17.25l-3.25-0.75L379.75,390.5z M385.25,507l-5-2.5l-5.75,15l4-0.5l-1.5,10l5.5-1.25l3-14.5
			l3.75,12l6.25-4.25l-5.25-11.25l8.5-6L385.25,507z M383.5,414.25V427l-3.5-1l2,7.75l2.5-0.5l2.75,4.5l5.75-2.25l-4.75-6.5l4.5-7
			L383.5,414.25z M354.892,543.236l0.285,3.424l3.21-0.571l1.069-3.28L354.892,543.236z M399.5,494.5l-13-0.75l-5.25,8l6-3L402,499
			l5.5-8.25L399.5,494.5z M317,519.75l-11.75-16.5L279,482.5l-10.75-1.5l39,51l7.75-0.75L317,519.75z M334.25,537.25l-17.5-4.5
			L311.5,537l40.5,8.75l0.25-4.5l-15.25-6.5L334.25,537.25z M328.5,427l9.25-8l-0.75-2.75l-11.25,6L328.5,427z M410.875,536.89
			l-4.065,2.781l6.133-0.285L410.875,536.89z M413.75,466.75l-3.75-18.5l-3,7l-6.25,5.25L402,470l6.75,2.25l1-7.75L413.75,466.75z"/>
	</symbol>
</svg>