<svg xmlns="http://www.w3.org/2000/svg" style="display: none;">
	<symbol id="img-symbol-no" viewBox="0 0 95 53">
			<clipPath id="clip">
			<polygon id="XMLID_2_" points="36.975,30.294 37.123,30.003 37.415,29.856 50.677,23.164 63.831,11.623 64.135,11.355 
				64.539,11.375 79.81,12.12 79.744,12.006 82.369,10.506 83.526,9.844 83.838,11.141 84.822,15.241 88.923,9.423 89.427,8.708 
				90.202,9.112 93.52,10.84 94.633,8.096 93.955,4.646 86.48,4.646 80.59,7.431 79.406,1.065 71.156,5.441 63.295,5.043 
				55.434,11.41 40.506,16.975 33.431,27.319 34.219,22.942 20.854,20.953 9.063,31.298 11.818,34.88 3.561,40.847 0.415,49.601 
				11.032,48.805 15.352,47.606 15.689,51.798 30.974,42.052 		"/>
		</clipPath>
		<g clip-path="url(#clip)">
			<rect fill="#C8102E" width="12.03" height="34.798"/>
			<rect y="42.202" fill="#C8102E" width="12.03" height="10.798"/>
			<rect x="19.433" fill="#C8102E" width="75.567" height="34.798"/>
			<rect x="19.433" y="42.202" fill="#C8102E" width="75.567" height="10.798"/>
			<g>
				<polygon fill="#002F6C" points="95,36.708 17.523,36.708 17.523,0 13.939,0 13.939,36.708 0,36.708 0,40.292 13.939,40.292 
					13.939,53 17.523,53 17.523,40.292 95,40.292 			"/>
			</g>
			<polygon fill="#FFFFFF" points="12.03,34.798 0,34.798 0,36.708 13.939,36.708 13.939,0 12.03,0 		"/>
			<polygon fill="#FFFFFF" points="0,42.202 12.03,42.202 12.03,53 13.939,53 13.939,40.292 0,40.292 		"/>
			<polygon fill="#FFFFFF" points="19.433,34.798 19.433,0 17.523,0 17.523,36.708 95,36.708 95,34.798 		"/>
			<polygon fill="#FFFFFF" points="17.523,53 19.433,53 19.433,42.202 95,42.202 95,40.292 17.523,40.292 		"/>
		</g>
	</symbol>
</svg>

