<svg xmlns="http://www.w3.org/2000/svg" style="display: none;">
	<symbol id="img-symbol-tst" viewBox="0 0 301 261">
		<path fill="green" d="M191,7l10-7l4,3l-16,9l-8-4L191,7z M153,37l-14,43l-20-16l8-16l-21-5v7l-6-1L90,61l2,6l-14-9L62,72v7l-3-5
			L47,90L9,102l-3,54l-6,2l13,9l72-6l7,17l16-9l-9,13l7-3l-6,8l7-2l-3,14l14,11l8-5l5,7l19-4l10-21l19-11l17-43l-19-38l-10-6l-3-26
			l-5-5L153,37z M116,219l-3,16l6,4l13-15l-10,1L116,219z M116,213l-2,2l1,3l3-2L116,213z M131,222h3l1-4l-3-1L131,222z M183,256l10,5
			l35-27l3-9l-5,3l1-5l-13,15L183,256z M246,218l1-5l4-1l7-11l-7,4l-2-2l3-9l-6,4l-5,12l-8,6l4,3l-4,11L246,218z M245,196l6-7l-5-6
			L245,196z M97,43l-3,4l6,1l3-3L97,43z M240,88l-3,2l1,9l10,13l2-4l-7-11L240,88z M293,76l-4,2l2,5l4-4L293,76z M296,70l-1,4l6-3
			l-1-2L296,70z"/>
	</symbol>
</svg>
