<svg xmlns="http://www.w3.org/2000/svg" style="display: none;">
	<symbol id="link-symbol-as" viewBox="0 0 518 548">
	<polygon points="147,145 131,186 132,195 127,204 126,224 114.649,223.355 97.12,232.061 99,254 87,261 
		53.417,244.761 34.652,258.82 3.106,261.359 0.873,265.771 0,283 7.375,316.938 12.25,332.188 48.75,416.625 133.922,380.198 
		192.301,451.917 246.437,453.18 307.726,519.091 383.323,529.577 493.604,529.552 518,548 515,518 436,455 380,364 442,258 
		459.738,134.569 415.166,43.32 324,0 255,70 204.732,68.637 188.223,92.901 152,109 141,132 	"/>
	</symbol>
</svg>