<svg xmlns="http://www.w3.org/2000/svg" style="display: none;">
	<symbol id="img-symbol-eu" viewBox="0 0 340 248">
		<path d="M69,183l3,2l-1-4L69,183z M61,182l2,3l3-1v-3L61,182z M123,19l16-1l-1-4l2-2l-1-2l-2,1l-2-3l-2.959-1.999
	l-4,3L133,2l-2-1l-1,1l-1-2l-4,2l2,3h-5l-1.997,1.93L122,10l-3-1L123,19z M67,78l13,5l8-8h5l3-6l-8-5l-5,3l-4-3l-6,5l3.767,2.583
	L66,73L67,78z M97,73l5,4l-6,8l-5-4v3l-4,4l-6-1l5,6l5,1l-6,1l-3-3l-11,3l31,12l-2-3l8-1v-6h-4l4-3l3-7l-3-3l5-6l-6-7l5,2l8-4l-4-5
	h-3l2-2h4l2-2h5l-2-3l-3,2l-4-3l-11,3l-6,9h4l-3,4L97,73z M55,187l2-5l-4,1L55,187z M314,80l-2,7l-27,6l3-8l-5.977-6.138L277,96
	l-1-5l-9,5l1,5l-8-7l-3,2l3,6l-7.421-4.916l-0.635-15.251L266,93l8-8l-17-23l-6-1l-2-3h4l-4-7l-4,2l-1-5l-12-3l-2,3l-1-4l-13-1l-3,4
	l1-4l-12,3l7,3l-11,3l2,4l-5-3l-15,7l1,2l-4-3l-18,2l-3,4l8,4l-2,2l-7-5l-7,11l5.532,1.166L148,79l4,10l13-1l5-5l-4,6l1,3l-5,22
	l14,2l8-11l9-1l-8-7l10,4l1-6l-4-4l8-10l13-1l10-8l5,10l-19,4l-5,13l3,7l17.869,5l3.13,6.093L205,111l1,10l-5,4l-1-7l-7,2l-5,10
	l-11,2l-1-5l-17-2l1-6l-12-2l5-3l-6-1v-4l3-5h7l3-9l-13,1l-6,13l1,6l-2-3l-6-3l-1,4l-1-3l-6-3l-1,5l-5,1l1.96-4.989L114,111l3,2
	l-3,2l-3-3l-9-2l-2,4l-11.976-1.023L86,108l-3-1l-3,8l-6-8l-6-1l-3,4l5,20l-12,18l-24-20H24l-8,18L4,156l3.963,4.017L0,172l11,4v13
	l8-2l13,6l16-11l1-6l10-7l15,1l2-9l7-1l7,9l17-1l3.024,20.942L120,203l3,11l-7,5l-13-4l-2,3l10,11l7-8l9-5l-2-5l5-3l2,6l3-3l-9-12
	l3-1l-6-5l-3-20l4-4h6l-3,3l1,6l3-3l1,7l-3-1l13,22l-3,8l3,15l2,2l-3,1v5l6,4v-4l3,1l-4-6l8,4v-3l-3-5l2-8l2,3h4l1.02-2.925
	l7.987,3.854L180,222l-2.755-9.584L197,196l11,5l-6,2l4,4l-2,3l9-1l2,1l2-1l-1-2h-2l-4-5h20l24,21l3-5l11-5l6.449-22.001L294,190
	l27-94l-5-17L314,80z M148.924,172.605l-1.856-0.12l-0.06-0.718l5.119-0.599l0.03,0.988L148.924,172.605z M336,48l-5,3l-7-1l-9,4
	l-1,4l-12,11l6,9l7-1l-3-9l15-13h6l7-6L336,48z M146,246l4,1l2,1l6-1l-10-3L146,246z M90,189l-3,12l6,1l5-10l-1-5L90,189z M103,177
	l-6,1l-1,7h3l4-4V177z"/>
	</symbol>
</svg>