<svg xmlns="http://www.w3.org/2000/svg" style="display: none;">
	<symbol id="img-symbol-it" viewBox="0 0 46 70">
		<clipPath id="clip">
			<path d="M5.007,32.176l-0.745-1.111L0,40.622l1.447,1.327l2.836,0.181l4.163-6.878l-0.061-2.715L5.007,32.176z
				M38.68,38.501l-4.333-4.117l-0.434-11.593l-3.034-4.117l1.057-4.536L35.5,12.81l-2.699-9.99L14.631,0l-4.616,4.904l1.39,6.671
				l2.451-0.621l5.502,4.774l-1.563,7.162l5.493,5.565l1.973,10.345l3.531,1.989l-1.961,3.581l4.266,3.339l0.625,7.343l-2.275,3.034
				l-11.868-0.709l-0.499,2.485l12.08,8.151l2.517-8.342l6.788-4.269l-3.792-5.309l3.576-4.875l4.412,5.526l1.843-0.325
				l-7.989-11.485L38.68,38.501z"/>
		</clipPath>
		<g clip-path="url(#clip)">
			<path fill="#009246" d="M0.041,0.091h20.307v68.182H0.041V0.091z"/>
			<path fill="#FFFFFF" d="M20.348,0.091l11.089-0.013l-0.008,68.181l-11.081,0.014V0.091z"/>
			<path fill="#CE2B37" d="M31.437,0.078l13.093,0.013v68.182l-13.101-0.014L31.437,0.078z"/>
		</g>
	</symbol>
</svg>

