<svg xmlns="http://www.w3.org/2000/svg" style="display: none;">
	<symbol id="link-symbol-eu" viewBox="0 0 347 242">
	<polygon points="271.75,67 308.714,42.665 344,38 347,46 346.953,52.016 320,64 309,87 315,100 299,141 300,150 
		295,159 294,179 282.649,178.355 265.12,187.061 267,209 255,216 221.417,199.761 202.652,213.82 171.106,216.359 158,242 
		150.21,240.911 66.75,189.688 11.588,180.635 0,168 2.083,155.667 76.061,58.793 117,39 133,3 141,0 151.993,5.832 177,31 
		252,41.417 	"/>
	</symbol>
</svg>