<?xml version="1.0" encoding="utf-8"?>
<!-- Generator: Adobe Illustrator 12.0.0, SVG Export Plug-In  -->
<!DOCTYPE svg PUBLIC "-//W3C//DTD SVG 1.1//EN" "http://www.w3.org/Graphics/SVG/1.1/DTD/svg11.dtd" [
	<!ENTITY ns_flows "http://ns.adobe.com/Flows/1.0/">
	<!ENTITY ns_svg "http://www.w3.org/2000/svg">
	<!ENTITY ns_xlink "http://www.w3.org/1999/xlink">
]>
<svg  version="1.1" xmlns="&ns_svg;" xmlns:xlink="&ns_xlink;" xmlns:a="http://ns.adobe.com/AdobeSVGViewerExtensions/3.0/"
	 width="2004" height="1024" viewBox="-4 0 2004 1024" enable-background="new -4 0 2004 1024" xml:space="preserve">
<defs>
</defs>
<g>
	<path fill="#FFFFFF" d="M1487.995,0C1205.226,0,976,229.23,976,511.998C976,794.766,1205.226,1024,1487.995,1024
		C1770.774,1024,2000,794.766,2000,511.998C2000,229.23,1770.774,0,1487.995,0L1487.995,0z M1487.995,1019
		C1208.438,1019,981,791.56,981,511.998C981,232.438,1208.438,5,1487.995,5C1767.559,5,1995,232.438,1995,511.998
		c0,34.402-3.466,68.782-10.3,102.183c-6.661,32.551-16.601,64.567-29.54,95.162c-12.706,30.041-28.434,59.017-46.744,86.12
		c-18.138,26.848-38.968,52.094-61.912,75.038c-22.944,22.945-48.19,43.775-75.038,61.913
		c-27.104,18.311-56.079,34.039-86.121,46.745c-30.595,12.94-62.612,22.88-95.164,29.54
		C1556.779,1015.534,1522.399,1019,1487.995,1019L1487.995,1019z"/>
</g>
<path fill="none" stroke="#FFFFFF" stroke-width="3" d="M1980.605,511.997c0,272.061-220.548,492.609-492.611,492.609
	c-272.053,0-492.601-220.549-492.601-492.609c0-273.098,220.548-492.604,492.601-492.604
	C1760.06,19.394,1980.605,237.856,1980.605,511.997z"/>
<path fill="none" stroke="#FFFFFF" stroke-width="3" d="M1004.518,511.997c0,272.061-220.222,492.609-491.888,492.609
	c-271.661,0-491.889-220.549-491.889-492.609c0-272.056,220.228-492.604,491.889-492.604
	C784.296,19.394,1004.518,239.941,1004.518,511.997z"/>
<g>
	<path fill="#FFFFFF" d="M511.255,0C228.897,0,0,229.23,0,511.998C0,794.766,228.643,1024,511,1024
		c282.358,0,511.509-229.234,511.509-512.002C1022.509,229.23,793.613,0,511.255,0L511.255,0z M511,1019
		c-34.351,0-68.676-3.466-102.02-10.3c-32.495-6.661-64.454-16.6-94.992-29.54c-29.984-12.705-58.902-28.433-85.951-46.743
		c-26.793-18.137-51.987-38.967-74.882-61.912c-22.894-22.943-43.678-48.188-61.775-75.038
		c-18.269-27.103-33.96-56.078-46.636-86.12c-12.91-30.594-22.824-62.611-29.469-95.164C8.457,580.782,5,546.402,5,511.998
		c0-34.403,3.461-68.783,10.286-102.184c6.651-32.55,16.575-64.568,29.497-95.163c12.688-30.041,28.392-59.016,46.676-86.119
		c18.112-26.848,38.912-52.094,61.822-75.038c22.911-22.944,48.12-43.774,74.928-61.911c27.064-18.311,55.996-34.038,85.993-46.744
		c30.55-12.94,62.519-22.878,95.021-29.539C442.575,8.465,476.904,5,511.255,5c279.149,0,506.254,227.438,506.254,506.998
		c0,34.401-3.464,68.781-10.296,102.183c-6.658,32.551-16.592,64.567-29.526,95.163c-12.699,30.04-28.417,59.016-46.717,86.12
		c-18.125,26.847-38.941,52.094-61.868,75.039c-22.926,22.944-48.151,43.774-74.975,61.912
		c-27.079,18.311-56.024,34.038-86.033,46.745c-30.562,12.939-62.542,22.879-95.051,29.54C579.684,1015.534,545.352,1019,511,1019
		L511,1019z"/>
</g>
<path fill="none" stroke="#FFFFFF" d="M823.799,889.538C823.799,889.538,717,740,511,740S198.201,889.538,198.201,889.538"/>
<path fill="none" stroke="#FFFFFF" d="M756.026,939.19c0,0-79.188-147.19-245.026-147.19S265.974,939.19,265.974,939.19"/>
<path fill="none" stroke="#FFFFFF" d="M707.672,963.174c0,0-54.616-128.425-196.703-128.425S314.266,963.174,314.266,963.174"/>
<path fill="none" stroke="#FFFFFF" d="M680.143,975.413c0,0-40.633-119.413-169.143-119.413S341.857,975.413,341.857,975.413"/>
<path fill="none" stroke="#FFFFFF" d="M594.67,997.194C594.67,982,570,927,511,927s-83.67,54.389-83.67,70.194"/>
<path fill="none" stroke="#FFFFFF" d="M530.269,1003.505c0-3.826-5.681-17.681-19.269-17.681s-19.269,13.7-19.269,17.681"/>
<path fill="none" stroke="#FFFFFF" d="M494.34,19.429c0,3.308,4.912,15.287,16.66,15.287s16.66-11.846,16.66-15.287"/>
<path fill="none" stroke="#FFFFFF" d="M998.5,559.865c0,0-318-22.689-487.5-22.689S23.5,559.865,23.5,559.865"/>
<path fill="none" stroke="#FFFFFF" d="M1001,544.403c0,0-274.786-15.817-490-15.817S21,544.403,21,544.403"/>
<path fill="none" stroke="#FFFFFF" d="M1000.5,528.011c0,0-285.5-8.011-489.5-8.011s-489.5,8.011-489.5,8.011"/>
<path fill="none" stroke="#FFFFFF" d="M967.31,694.845c0,0-220.643-88.184-456.31-88.184S54.69,694.845,54.69,694.845"/>
<path fill="none" stroke="#FFFFFF" d="M964.772,701.785c0,0-214.021-90.351-453.772-90.351S57.228,701.785,57.228,701.785"/>
<path fill="none" stroke="#FFFFFF" d="M963.082,708.409c0,0-207.445-92.409-452.082-92.409S58.918,708.409,58.918,708.409"/>
<path fill="none" stroke="#FFFFFF" d="M935.968,758.046c0,0-171.756-115.044-424.968-115.044S86.032,758.046,86.032,758.046"/>
<path fill="none" stroke="#FFFFFF" d="M888.568,829.206c0,0-148.068-138.205-377.568-138.205S133.432,829.206,133.432,829.206"/>
<path fill="none" stroke="#FFFFFF" d="M970.81,688.582c0,0-228.143-86.582-459.81-86.582S51.19,688.582,51.19,688.582"/>
<path fill="none" stroke="#FFFFFF" d="M974.578,680.416c0,0-239.309-83.416-463.547-83.416S49.484,680.416,49.484,680.416"/>
<path fill="none" stroke="#FFFFFF" d="M974.81,670.609c0,0-260.921-78.609-463.81-78.609S47.19,670.609,47.19,670.609"/>
<path fill="none" stroke="#FFFFFF" d="M978.81,659.769c0,0-286.684-73.769-467.81-73.769S43.19,659.769,43.19,659.769"/>
<path fill="none" stroke="#FFFFFF" d="M981.81,648.016c0,0-310.558-68.016-470.81-68.016S40.19,648.016,40.19,648.016"/>
<path fill="none" stroke="#FFFFFF" d="M984.181,635.218c0,0-304.046-61.218-473.181-61.218S37.819,635.218,37.819,635.218"/>
<path fill="none" stroke="#FFFFFF" d="M987.5,622c0,0-295-54.581-476.5-54.581S34.5,622,34.5,622"/>
<path fill="none" stroke="#FFFFFF" d="M991.5,607.197c0,0-264-46.368-480.5-46.368S30.5,607.197,30.5,607.197"/>
<path fill="none" stroke="#FFFFFF" d="M995,590.222c0,0-273.591-36.734-484-36.734S27,591.324,27,591.324"/>
<path fill="none" stroke="#FFFFFF" d="M999,574.049c0,0-307-28.416-488-28.416S25,575.252,25,575.252"/>
<path fill="none" stroke="#FFFFFF" d="M823.799,134.986c0,0-106.799,149.538-312.799,149.538S198.201,134.986,198.201,134.986"/>
<path fill="none" stroke="#FFFFFF" d="M756.026,85.334c0,0-79.188,147.19-245.026,147.19S265.974,85.334,265.974,85.334"/>
<path fill="none" stroke="#FFFFFF" d="M707.672,61.351c0,0-54.616,128.425-196.703,128.425S314.266,61.351,314.266,61.351"/>
<path fill="none" stroke="#FFFFFF" d="M680.143,49.111c0,0-40.633,119.413-169.143,119.413S341.857,49.111,341.857,49.111"/>
<path fill="none" stroke="#FFFFFF" d="M594.67,27.33c0,15.194-24.67,70.194-83.67,70.194s-83.67-54.389-83.67-70.194"/>
<path fill="none" stroke="#FFFFFF" d="M998.5,464.659c0,0-318,22.689-487.5,22.689S23.5,464.659,23.5,464.659"/>
<path fill="none" stroke="#FFFFFF" d="M1001,480.121c0,0-274.786,15.817-490,15.817S21,480.121,21,480.121"/>
<path fill="none" stroke="#FFFFFF" d="M1000.5,496.514c0,0-285.5,8.011-489.5,8.011s-489.5-8.011-489.5-8.011"/>
<path fill="none" stroke="#FFFFFF" d="M967.31,329.68c0,0-220.643,88.184-456.31,88.184S54.69,329.68,54.69,329.68"/>
<path fill="none" stroke="#FFFFFF" d="M964.772,322.739c0,0-214.021,90.351-453.772,90.351S57.228,322.739,57.228,322.739"/>
<path fill="none" stroke="#FFFFFF" d="M963.082,316.115c0,0-207.445,92.409-452.082,92.409S58.918,316.115,58.918,316.115"/>
<path fill="none" stroke="#FFFFFF" d="M935.968,266.479c0,0-171.756,115.044-424.968,115.044S86.032,266.479,86.032,266.479"/>
<path fill="none" stroke="#FFFFFF" d="M888.568,195.318c0,0-148.068,138.205-377.568,138.205S133.432,195.318,133.432,195.318"/>
<path fill="none" stroke="#FFFFFF" d="M970.81,335.942c0,0-228.143,86.582-459.81,86.582S51.19,335.942,51.19,335.942"/>
<path fill="none" stroke="#FFFFFF" d="M974.578,344.108c0,0-239.309,83.416-463.547,83.416S49.484,344.108,49.484,344.108"/>
<path fill="none" stroke="#FFFFFF" d="M974.81,353.915c0,0-260.921,78.609-463.81,78.609S47.19,353.915,47.19,353.915"/>
<path fill="none" stroke="#FFFFFF" d="M978.81,364.756c0,0-286.684,73.769-467.81,73.769S43.19,364.756,43.19,364.756"/>
<path fill="none" stroke="#FFFFFF" d="M981.81,376.509c0,0-310.558,68.016-470.81,68.016S40.19,376.509,40.19,376.509"/>
<path fill="none" stroke="#FFFFFF" d="M984.181,389.307c0,0-304.046,61.218-473.181,61.218S37.819,389.307,37.819,389.307"/>
<path fill="none" stroke="#FFFFFF" d="M987.5,402.524c0,0-295,54.581-476.5,54.581S34.5,402.524,34.5,402.524"/>
<path fill="none" stroke="#FFFFFF" d="M991.5,417.327c0,0-264,46.368-480.5,46.368S30.5,417.327,30.5,417.327"/>
<path fill="none" stroke="#FFFFFF" d="M995,434.303c0,0-273.591,36.734-484,36.734S27,433.2,27,433.2"/>
<path fill="none" stroke="#FFFFFF" d="M999,450.476c0,0-307,28.416-488,28.416S25,449.272,25,449.272"/>
<line fill="none" stroke="#FFFFFF" x1="20.945" y1="512" x2="1004.542" y2="512"/>
<path fill="none" stroke="#FFFFFF" d="M1800.777,889.538c0,0-106.799-149.538-312.799-149.538S1175.18,889.538,1175.18,889.538"/>
<path fill="none" stroke="#FFFFFF" d="M1733.004,939.19c0,0-79.188-147.19-245.025-147.19c-165.839,0-245.026,147.19-245.026,147.19
	"/>
<path fill="none" stroke="#FFFFFF" d="M1684.65,963.174c0,0-54.617-128.425-196.703-128.425
	c-142.088,0-196.703,128.425-196.703,128.425"/>
<path fill="none" stroke="#FFFFFF" d="M1657.121,975.413c0,0-40.633-119.413-169.143-119.413s-169.144,119.413-169.144,119.413"/>
<path fill="none" stroke="#FFFFFF" d="M1571.648,997.194c0-15.194-24.67-70.194-83.67-70.194s-83.67,54.389-83.67,70.194"/>
<path fill="none" stroke="#FFFFFF" d="M1507.246,1003.505c0-3.826-5.681-17.681-19.268-17.681c-13.588,0-19.27,13.7-19.27,17.681"/>
<path fill="none" stroke="#FFFFFF" d="M1471.318,19.429c0,3.308,4.912,15.287,16.66,15.287s16.66-11.846,16.66-15.287"/>
<path fill="none" stroke="#FFFFFF" d="M1975.479,559.865c0,0-318-22.689-487.5-22.689s-487.5,22.689-487.5,22.689"/>
<path fill="none" stroke="#FFFFFF" d="M1977.979,544.403c0,0-274.787-15.817-490-15.817c-215.215,0-490,15.817-490,15.817"/>
<path fill="none" stroke="#FFFFFF" d="M1977.479,528.011c0,0-285.5-8.011-489.5-8.011s-489.5,8.011-489.5,8.011"/>
<path fill="none" stroke="#FFFFFF" d="M1944.287,694.845c0,0-220.643-88.184-456.309-88.184
	c-235.667,0-456.311,88.184-456.311,88.184"/>
<path fill="none" stroke="#FFFFFF" d="M1941.75,701.785c0,0-214.021-90.351-453.771-90.351
	c-239.752,0-453.773,90.351-453.773,90.351"/>
<path fill="none" stroke="#FFFFFF" d="M1940.06,708.409c0,0-207.445-92.409-452.081-92.409
	c-244.637,0-452.082,92.409-452.082,92.409"/>
<path fill="none" stroke="#FFFFFF" d="M1912.946,758.046c0,0-171.756-115.044-424.968-115.044
	c-253.213,0-424.969,115.044-424.969,115.044"/>
<path fill="none" stroke="#FFFFFF" d="M1865.546,829.206c0,0-148.067-138.205-377.567-138.205S1110.41,829.206,1110.41,829.206"/>
<path fill="none" stroke="#FFFFFF" d="M1947.787,688.582c0,0-228.143-86.582-459.809-86.582
	c-231.667,0-459.811,86.582-459.811,86.582"/>
<path fill="none" stroke="#FFFFFF" d="M1951.557,680.416c0,0-239.31-83.416-463.547-83.416
	c-224.238,0-461.547,83.416-461.547,83.416"/>
<path fill="none" stroke="#FFFFFF" d="M1951.787,670.609c0,0-260.921-78.609-463.809-78.609
	c-202.889,0-463.811,78.609-463.811,78.609"/>
<path fill="none" stroke="#FFFFFF" d="M1955.787,659.769c0,0-286.684-73.769-467.809-73.769
	c-181.127,0-467.811,73.769-467.811,73.769"/>
<path fill="none" stroke="#FFFFFF" d="M1958.787,648.016c0,0-310.557-68.016-470.809-68.016s-470.811,68.016-470.811,68.016"/>
<path fill="none" stroke="#FFFFFF" d="M1961.158,635.218c0,0-304.045-61.218-473.18-61.218s-473.182,61.218-473.182,61.218"/>
<path fill="none" stroke="#FFFFFF" d="M1964.479,622c0,0-295-54.581-476.5-54.581S1011.479,622,1011.479,622"/>
<path fill="none" stroke="#FFFFFF" d="M1968.479,607.197c0,0-264-46.368-480.5-46.368s-480.5,46.368-480.5,46.368"/>
<path fill="none" stroke="#FFFFFF" d="M1971.979,590.222c0,0-273.592-36.734-484-36.734c-210.41,0-484,37.837-484,37.837"/>
<path fill="none" stroke="#FFFFFF" d="M1975.979,574.049c0,0-307-28.416-488-28.416s-486,29.619-486,29.619"/>
<path fill="none" stroke="#FFFFFF" d="M1800.777,134.986c0,0-106.799,149.538-312.799,149.538S1175.18,134.986,1175.18,134.986"/>
<path fill="none" stroke="#FFFFFF" d="M1733.004,85.334c0,0-79.188,147.19-245.025,147.19c-165.839,0-245.026-147.19-245.026-147.19
	"/>
<path fill="none" stroke="#FFFFFF" d="M1684.65,61.351c0,0-54.617,128.425-196.703,128.425
	c-142.088,0-196.703-128.425-196.703-128.425"/>
<path fill="none" stroke="#FFFFFF" d="M1657.121,49.111c0,0-40.633,119.413-169.143,119.413S1318.835,49.111,1318.835,49.111"/>
<path fill="none" stroke="#FFFFFF" d="M1571.648,27.33c0,15.194-24.67,70.194-83.67,70.194s-83.67-54.389-83.67-70.194"/>
<path fill="none" stroke="#FFFFFF" d="M1975.479,464.659c0,0-318,22.689-487.5,22.689s-487.5-22.689-487.5-22.689"/>
<path fill="none" stroke="#FFFFFF" d="M1977.979,480.121c0,0-274.787,15.817-490,15.817c-215.215,0-490-15.817-490-15.817"/>
<path fill="none" stroke="#FFFFFF" d="M1977.479,496.514c0,0-285.5,8.011-489.5,8.011s-489.5-8.011-489.5-8.011"/>
<path fill="none" stroke="#FFFFFF" d="M1944.287,329.68c0,0-220.643,88.184-456.309,88.184
	c-235.667,0-456.311-88.184-456.311-88.184"/>
<path fill="none" stroke="#FFFFFF" d="M1941.75,322.739c0,0-214.021,90.351-453.771,90.351
	c-239.752,0-453.773-90.351-453.773-90.351"/>
<path fill="none" stroke="#FFFFFF" d="M1940.06,316.115c0,0-207.445,92.409-452.081,92.409
	c-244.637,0-452.082-92.409-452.082-92.409"/>
<path fill="none" stroke="#FFFFFF" d="M1912.946,266.479c0,0-171.756,115.044-424.968,115.044
	c-253.213,0-424.969-115.044-424.969-115.044"/>
<path fill="none" stroke="#FFFFFF" d="M1865.546,195.318c0,0-148.067,138.205-377.567,138.205S1110.41,195.318,1110.41,195.318"/>
<path fill="none" stroke="#FFFFFF" d="M1947.787,335.942c0,0-228.143,86.582-459.809,86.582
	c-231.667,0-459.811-86.582-459.811-86.582"/>
<path fill="none" stroke="#FFFFFF" d="M1951.557,344.108c0,0-239.31,83.416-463.547,83.416
	c-224.238,0-461.547-83.416-461.547-83.416"/>
<path fill="none" stroke="#FFFFFF" d="M1951.787,353.915c0,0-260.921,78.609-463.809,78.609
	c-202.889,0-463.811-78.609-463.811-78.609"/>
<path fill="none" stroke="#FFFFFF" d="M1955.787,364.756c0,0-286.684,73.769-467.809,73.769
	c-181.127,0-467.811-73.769-467.811-73.769"/>
<path fill="none" stroke="#FFFFFF" d="M1958.787,376.509c0,0-310.557,68.016-470.809,68.016s-470.811-68.016-470.811-68.016"/>
<path fill="none" stroke="#FFFFFF" d="M1961.158,389.307c0,0-304.045,61.218-473.18,61.218s-473.182-61.218-473.182-61.218"/>
<path fill="none" stroke="#FFFFFF" d="M1964.479,402.524c0,0-295,54.581-476.5,54.581s-476.5-54.581-476.5-54.581"/>
<path fill="none" stroke="#FFFFFF" d="M1968.479,417.327c0,0-264,46.368-480.5,46.368s-480.5-46.368-480.5-46.368"/>
<path fill="none" stroke="#FFFFFF" d="M1971.979,434.303c0,0-273.592,36.734-484,36.734c-210.41,0-484-37.837-484-37.837"/>
<path fill="none" stroke="#FFFFFF" d="M1975.979,450.476c0,0-307,28.416-488,28.416s-486-29.619-486-29.619"/>
<line fill="none" stroke="#FFFFFF" x1="997.923" y1="512" x2="1981.52" y2="512"/>
<path fill="none" stroke="#FFFFFF" d="M511,34.523V985.78 M496.525,25.529C408.009,41.664,133,186.636,133,512
	c0,321.157,268.805,466.558,360.186,485.78 M498.454,28.151C439.088,57.059,229,235.342,229,512
	c0,275.629,196.117,453.614,265.421,483.521 M500.921,30.823C459.18,65.917,307,235.225,307,512
	c0,271.054,145.952,439.037,191.193,478.828 M505.185,33.376C479.471,73.536,377.732,241.409,377.732,512
	c0,265.541,95.108,431.045,124.641,475.738 M507.867,34.265C494.736,75.961,445.25,243.359,445.25,512
	c0,262.89,46.003,427.729,61.063,474.363 M528.721,997.804C619.999,978.67,889.012,833.281,889.012,512
	c0-325.272-274.854-470.254-363.452-486.458 M527.492,995.563C596.71,965.783,793.012,787.76,793.012,512
	c0-276.277-209.509-454.45-269.207-483.729 M523.873,990.781c45.303-39.877,191.14-207.835,191.14-478.781
	c0-276.413-151.781-445.64-193.757-481.038 M519.645,987.731C549.183,943.026,644.28,777.526,644.28,512
	c0-270.271-101.5-438.067-127.361-478.481 M515.682,986.417C530.725,939.855,576.763,774.99,576.763,512
	c0-268.364-49.385-435.694-62.576-477.606"/>
<path fill="none" stroke="#FFFFFF" d="M1487.979,34.523V985.78 M1473.504,25.529C1384.986,41.664,1109.979,186.636,1109.979,512
	c0,321.157,268.805,466.558,360.186,485.78 M1475.432,28.151C1416.066,57.059,1205.979,235.342,1205.979,512
	c0,275.629,196.116,453.614,265.42,483.521 M1477.899,30.823C1436.158,65.917,1283.979,235.225,1283.979,512
	c0,271.054,145.951,439.037,191.192,478.828 M1482.162,33.376C1456.449,73.536,1354.71,241.409,1354.71,512
	c0,265.541,95.108,431.045,124.642,475.738 M1484.845,34.265c-13.13,41.697-62.617,209.095-62.617,477.735
	c0,262.89,46.003,427.729,61.063,474.363 M1505.699,997.804C1596.977,978.67,1865.99,833.281,1865.99,512
	c0-325.272-274.854-470.254-363.451-486.458 M1504.471,995.563c69.217-29.78,265.52-207.804,265.52-483.563
	c0-276.277-209.51-454.45-269.207-483.729 M1500.851,990.781c45.303-39.877,191.14-207.835,191.14-478.781
	c0-276.413-151.781-445.64-193.757-481.038 M1496.623,987.731c29.538-44.705,124.635-210.205,124.635-475.731
	c0-270.271-101.499-438.067-127.361-478.481 M1492.66,986.417c15.043-46.562,61.08-211.427,61.08-474.417
	c0-268.364-49.385-435.694-62.576-477.606"/>
<g opacity="0.6">
	<polygon fill="#FFFFFF" points="603,428 602,456 616.999,455.911 626,468 624,475 612,466 597,467 577,442 566,441 569,434 
		568,428 	"/>
</g>
<path opacity="0.6" fill="#FFFFFF" d="M1062.294,251.865l-4.579-3.288l-1.175,2.231l3.758,2.113L1062.294,251.865z
	 M1059.241,287.208l-9.041-2.701l1.408,5.401L1059.241,287.208z M1058.771,292.726l2.7,3.053l2.936-1.174l-2.466-2.936
	L1058.771,292.726z M1076.971,296.014l-1.291-1.644l-4.932,2.818l5.049,0.939L1076.971,296.014z M1080.729,291.435l-3.522,1.057
	l3.405,1.996L1080.729,291.435z M1045.15,279.575l-2.113-3.64l-1.761,1.174l0.938,3.288L1045.15,279.575z M1048.673,284.155
	l-3.17,0.47l2.701,2.348L1048.673,284.155z M1040.807,283.685l-2.466,0.352l2.466,2.349V283.685z M1334.4,535.389L1377.5,487
	l8.495-28.102l-31.029,3.248l-1.804-4.69l-2.887-0.361l2.887-2.526l-15.876-15.514l-3.036-11.804l-6-6.25l1.099-14.058l-6.494-7.577
	l-9.381-46.183l-8.659,2.165l-20.565-10.102l-1.443-3.969l-11.546,1.083l-5.772,11.185l-13.711-10.463v-6.855l-28.646-21.336
	l6.798-5.336l-1.965-9.769l7.521-1.123l-8.26-7.895l-31.733-7.219l-25.617,0.361l-15.875-8.299l-0.722-6.855l-5.051,0.722
	l-8.299,8.659l-23.092,4.69l-11.185,20.926l-26.339,0.361l-41.131,33.555l3.607,14.432l-9.741,32.111l-6.798,3.538l4.229,12.266
	l4.021,2.484l8.75,0.75L1033,405l-4.661-2.136l-2.064,5.161l5.773,7.216l8.659,2.165l-5.412,2.886l14.793,22.73l1.443,13.711
	l32.472,32.833l38.245,4.33l27.782-5.773l13.71,3.608l2.165,10.103l17.318-0.722l7.577,10.103l-9.02,23.453l18.04,20.204
	l15.514,36.081l-11.185,33.193l20.205,20.927l3.969,22.73l23.813,23.452l-3.97,4.69l10.103,5.772l30.669-10.463l16.957-27.061
	l3.608-2.886l-0.722-16.236l10.463-7.938l-2.886-24.896l24.534-25.617L1334.4,535.389z M1220.125,453.25h-2.375l-0.25-3l3.875,0.375
	L1220.125,453.25z M1291.125,517l0.5,2.125l-3.625,3.5l-1.375-1.25L1291.125,517z M1286,567.125l-2.5,0.25l4.125-5l0.375,1.875
	L1286,567.125z M1290.001,578.167v-3.5l1.333-1l1.667,3.667L1290.001,578.167z M1295.184,561.661l-7.35-11.994l0.416-14.042
	l3.646,13.766l6.438,12.776L1295.184,561.661z M1293.875,513.875l-1-1.625l5.125-5.625l0.625,2.75L1293.875,513.875z
	 M1307.87,531.131l-7.652-0.063L1300.125,518l10.189-3.697l0.635,2.922l2.826-1.08l0.031,3.175l-2.762-0.412l-2.326,7.283
	l1.975,0.228L1307.87,531.131z M1312.034,582.152l-0.176-15.323l-1.644-3.111l3.64,0.234l1.762,17.378l2.935,4.286L1312.034,582.152
	z M1322.875,502.875l-3.75-3.875v-7l1.5,1.25l0.25,4.5l2.5,3.125L1322.875,502.875z M1325.75,459.125l-2.125-2.25l1.625-1.5l3,0.375
	L1325.75,459.125z M1364.181,583.443l-9.58,3.546l-3.47,7.92l3.244,11.088l-5.657,9.881l0.98,14.029l6.563,4.602l6.26-4.677
	l13.275-45.86l3.168,0.453l-3.997-19.084L1364.181,583.443z"/>
<g opacity="0.6">
	<path fill="#FFFFFF" d="M559,506.714v6l12-3l-6.712-5L559,506.714z M564.429,523l2.571-1.286l-1-7l-5,2L564.429,523z M624,475l5,9
		l-4,8l-6.182,9.727L607,515l5,6l-8,6l21,46l31,23l-63,131l7,6l-9,1l-4,31l34,29l-2-7l7,4l15-2l-18-12l-1-17l28-15l-12-10l18-4l2-8
		l13-1l-11-9l19,4l5-11l20,1l15-7l-6-14l9,6h13l40-32l1-14l35-9l15-49l17-25l-3-17l-21-18l-23-2l-6-6l-12-4l-7,6l5-8l-6-1l-13,7
		l12-11l-9-20l-12-9l-21-3l-25-22l-29,1l-12-9l-6,17l2-17l-19.333,6.889L635,463l-9,5L624,475z M673,772l-8,5l12,4l9-4L673,772z
		 M789,813l5-1l-4-4h-4L789,813z"/>
</g>
<g opacity="0.6">
	<path fill="#FFFFFF" d="M722,76v16l-6,12l3,15l-13,41l-10,6l-15-9l-1-15l4-6l-9,1l5-4l-5-2l-4,6l-14-21l-24-2l-10-10l10-1l-8-3
		l-8-7l14-1l-2-8l-5-2l-2-8l7,4l-7-8l1-8l8,6l-5-7l11,6l-13-11V45l15-3l-3,10l7-10l11-2l2,7l-4,13l7-10l3,6l-1-14l13,12l-8-17l6,1
		l-4-6l1-13l12,14l-4,10l5,8l-1-9l4-3l4,17l6,4l2-8l1,8l5-7l-3,11l8-5l1,6l7-3l-3,7l5-1l-2,5L722,76z M673,138l6,1l-3,3l-4-1
		L673,138z"/>
</g>
</svg>
