<?xml version="1.0" encoding="utf-8"?>
<!-- Generator: Adobe Illustrator 12.0.0, SVG Export Plug-In  -->
<!DOCTYPE svg PUBLIC "-//W3C//DTD SVG 1.1//EN" "http://www.w3.org/Graphics/SVG/1.1/DTD/svg11.dtd" [
	<!ENTITY ns_flows "http://ns.adobe.com/Flows/1.0/">
	<!ENTITY ns_svg "http://www.w3.org/2000/svg">
	<!ENTITY ns_xlink "http://www.w3.org/1999/xlink">
]>
<svg  version="1.1" xmlns="&ns_svg;" xmlns:xlink="&ns_xlink;" xmlns:a="http://ns.adobe.com/AdobeSVGViewerExtensions/3.0/"
	 width="600" height="600" viewBox="0 0 600 600" enable-background="new 0 0 600 600" xml:space="preserve">
<defs>
</defs>
<rect fill="#003399" width="600" height="600"/>
<polygon fill="#FFCC00" points="300,69.856 291.909,96.04 265.725,96.04 286.907,112.225 278.814,138.411 300.001,122.227 
	321.185,138.411 313.093,112.225 334.276,96.04 308.092,96.04 "/>
<polygon fill="#FFCC00" points="308.092,487.775 300,461.59 291.909,487.775 265.725,487.775 286.908,503.957 278.814,530.144 
	300.001,513.958 321.185,530.144 313.093,503.957 334.276,487.775 "/>
<polygon fill="#FFCC00" points="104.135,318.093 125.318,334.278 117.227,308.092 138.411,291.909 112.225,291.909 104.134,265.724 
	96.042,291.909 69.857,291.909 91.042,308.091 82.95,334.278 "/>
<polygon fill="#FFCC00" points="202.066,96.098 193.975,122.282 167.791,122.282 188.975,138.466 180.883,164.65 202.068,148.468 
	223.251,164.65 215.16,138.465 236.344,122.282 210.16,122.282 "/>
<polygon fill="#FFCC00" points="130.375,167.79 122.282,193.976 96.1,193.976 117.283,210.159 109.191,236.344 130.375,220.161 
	151.561,236.344 143.468,210.159 164.65,193.976 138.467,193.976 "/>
<polygon fill="#FFCC00" points="138.467,389.844 130.375,363.657 122.282,389.844 96.1,389.844 117.283,406.025 109.191,432.211 
	130.375,416.025 151.561,432.211 143.468,406.024 164.65,389.844 "/>
<polygon fill="#FFCC00" points="210.16,461.535 202.066,435.35 193.975,461.535 167.791,461.535 188.975,477.717 180.883,503.901 
	202.068,487.718 223.251,503.901 215.16,477.716 236.344,461.535 "/>
<polygon fill="#FFCC00" points="530.143,291.909 503.959,291.909 495.866,265.724 487.775,291.909 461.589,291.909 482.773,308.091 
	474.683,334.278 495.866,318.093 517.052,334.278 508.959,308.091 "/>
<polygon fill="#FFCC00" points="397.933,96.098 389.843,122.282 363.656,122.282 384.841,138.465 376.749,164.65 397.934,148.468 
	419.117,164.65 411.026,138.465 432.21,122.282 406.025,122.282 "/>
<polygon fill="#FFCC00" points="448.44,236.344 469.625,220.159 490.813,236.344 482.719,210.159 503.901,193.976 477.718,193.976 
	469.625,167.79 461.535,193.976 435.349,193.976 456.532,210.159 "/>
<polygon fill="#FFCC00" points="477.718,389.844 469.625,363.657 461.535,389.844 435.349,389.844 456.532,406.025 448.44,432.211 
	469.625,416.025 490.813,432.211 482.719,406.024 503.901,389.844 "/>
<polygon fill="#FFCC00" points="406.025,461.535 397.933,435.35 389.842,461.535 363.656,461.535 384.84,477.716 376.749,503.901 
	397.934,487.718 419.117,503.901 411.026,477.716 432.21,461.535 "/>
</svg>
