<?xml version="1.0" encoding="utf-8"?>
<!-- Generator: Adobe Illustrator 12.0.0, SVG Export Plug-In  -->
<!DOCTYPE svg PUBLIC "-//W3C//DTD SVG 1.1//EN" "http://www.w3.org/Graphics/SVG/1.1/DTD/svg11.dtd" [
	<!ENTITY ns_flows "http://ns.adobe.com/Flows/1.0/">
	<!ENTITY ns_svg "http://www.w3.org/2000/svg">
	<!ENTITY ns_xlink "http://www.w3.org/1999/xlink">
]>
<svg  version="1.1" xmlns="&ns_svg;" xmlns:xlink="&ns_xlink;" xmlns:a="http://ns.adobe.com/AdobeSVGViewerExtensions/3.0/"
	 width="602" height="600" viewBox="-0.998 0 602 600" enable-background="new -0.998 0 602 600" xml:space="preserve">
<defs>
</defs>
<polygon fill="#E00036" points="599.837,264 335.909,264 335.909,0 263.929,0 263.929,264 0.002,264 0.002,336 263.929,336 
	263.929,600 335.909,600 335.909,336 599.837,336 "/>
<path fill="#E00036" d="M25.643,0H0.024v6.626L223.58,240h12.524v-20.315L116.913,95.27L25.643,0z M540.541,0L364.068,184.163
	v33.385L572.532,0H540.541z M407.464,360h-31.679l224.102,234.086l0.037,0.039l0.056-32.057L407.464,360z M6.023,600h31.988
	l148.958-155.446l49.134-51.274V360h-0.101L6.023,600z"/>
<path fill="#012169" d="M364.07,0v164.143L521.494,0H364.07z M599.889,537.406L599.93,360H429.719L599.889,537.406z M403.23,240
	h196.727l0.047-205.166L403.23,240z M236.105,158.157V0H84.396L236.105,158.157z M0.004,359.989V543.75L176.231,360L0.004,359.989z
	 M202.628,240L0.004,28.752L0,239.989L202.628,240z M364.07,600h183.863L364.07,408.312V600z M236.105,600V414.253L57.955,600
	H236.105z"/>
<path fill="#FFFFFF" d="M236.104,158.157L84.395,0H25.644l210.46,219.685V240H223.58L0.065,6.669L0.002,28.752L202.627,240H0.167v24
	h263.844V0h-27.908V158.157z M600.002,34.834L599.961,0h-27.428L364.068,217.549v-33.386L540.541,0h-19.049L364.068,164.146V0
	h-28.076v264H599.92v72H335.992v264h28.076V408.309L547.934,600h51.953v-5.914L375.785,360h31.68l192.422,201.971v-24.564
	L429.717,360h170.285V240H403.229L600.002,34.834z M0.167,360H176.23L0.002,543.75V600h6.021l229.979-240h0.102v33.279L38.013,600
	h19.94l178.15-185.747V600h27.908V336H0.167V360z"/>
</svg>
