<?xml version="1.0" encoding="utf-8"?>
<!-- Generator: Adobe Illustrator 12.0.0, SVG Export Plug-In  -->
<!DOCTYPE svg PUBLIC "-//W3C//DTD SVG 1.1//EN" "http://www.w3.org/Graphics/SVG/1.1/DTD/svg11.dtd" [
	<!ENTITY ns_flows "http://ns.adobe.com/Flows/1.0/">
	<!ENTITY ns_svg "http://www.w3.org/2000/svg">
	<!ENTITY ns_xlink "http://www.w3.org/1999/xlink">
]>
<svg  version="1.1" xmlns="&ns_svg;" xmlns:xlink="&ns_xlink;" xmlns:a="http://ns.adobe.com/AdobeSVGViewerExtensions/3.0/"
	 width="600" height="600" viewBox="0 0 600 600" enable-background="new 0 0 600 600" xml:space="preserve">
<defs>
</defs>
<rect fill="#02529C" width="165.027" height="238"/>
<rect y="362" fill="#02529C" width="165.027" height="238"/>
<rect x="289.027" fill="#02529C" width="310.973" height="238"/>
<rect x="289.027" y="362" fill="#02529C" width="310.973" height="238"/>
<polygon fill="#DC1E35" points="600,270 257.027,270 257.027,0 197.027,0 197.027,270 0,270 0,330 197.027,330 197.027,600 
	257.027,600 257.027,330 600,330 "/>
<polygon fill="#FFFFFF" points="165.027,238 0,238 0,270 197.027,270 197.027,0 165.027,0 "/>
<polygon fill="#FFFFFF" points="0,362 165.027,362 165.027,600 197.027,600 197.027,330 0,330 "/>
<polygon fill="#FFFFFF" points="289.027,238 289.027,0 257.027,0 257.027,270 600,270 600,238 "/>
<polygon fill="#FFFFFF" points="257.027,600 289.027,600 289.027,362 600,362 600,330 257.027,330 "/>
</svg>
