<?xml version="1.0" encoding="utf-8"?>
<!-- Generator: Adobe Illustrator 12.0.0, SVG Export Plug-In  -->
<!DOCTYPE svg PUBLIC "-//W3C//DTD SVG 1.1//EN" "http://www.w3.org/Graphics/SVG/1.1/DTD/svg11.dtd" [
	<!ENTITY ns_flows "http://ns.adobe.com/Flows/1.0/">
	<!ENTITY ns_svg "http://www.w3.org/2000/svg">
	<!ENTITY ns_xlink "http://www.w3.org/1999/xlink">
]>
<svg  version="1.1" xmlns="&ns_svg;" xmlns:xlink="&ns_xlink;" xmlns:a="http://ns.adobe.com/AdobeSVGViewerExtensions/3.0/"
	 width="600" height="600" viewBox="0 0 600 600" enable-background="new 0 0 600 600" xml:space="preserve">
<defs>
</defs>
<path fill="#3C3B6E" d="M0,0h300v323.708H0V0z"/>
<path fill="#FFFFFF" d="M0,460.962h600v-45H0V460.962z M0,553.27h600v-45H0V553.27z M300,323.708H0v44.946h600v-45H300V323.708z
	 M300,46.73v45h300v-45H300z M300,184.038h300v-45H300V184.038z M300,276.346h300v-45H300V276.346z"/>
<path fill="#B22234" d="M0,415.962h600v-47.308H0V415.962z M0,508.27h600v-47.308H0V508.27z M0,600h600v-46.73H0V600z M300,139.038
	h300V91.73H300V139.038z M300,0v46.73h300V0H300z M300,323.654h300v-47.309H300V323.654z M300,231.346h300v-47.308H300V231.346z"/>
<path fill="#FFFFFF" d="M26.605,49.911l10.706-7.778l10.706,7.778l-4.09-12.585l10.706-7.778H41.4l-4.09-12.585l-4.089,12.585
	H19.988l10.706,7.778L26.605,49.911z M26.605,113.657l10.706-7.778l10.706,7.778l-4.09-12.585l10.706-7.778H41.4l-4.09-12.586
	l-4.089,12.586H19.988l10.706,7.778L26.605,113.657z M37.311,144.455l-4.089,12.586H19.99l10.705,7.777l-4.088,12.584l10.705-7.777
	l10.705,7.777l-4.09-12.583l10.707-7.778H41.4L37.311,144.455z M37.311,208.201l-4.088,12.585H19.99l10.705,7.778l-4.088,12.585
	l10.705-7.778l10.705,7.778l-4.09-12.584l10.707-7.779H41.4L37.311,208.201z M41.4,284.533l-4.09-12.586l-4.088,12.586H19.99
	l10.705,7.778l-4.088,12.585l10.705-7.778l10.705,7.778l-4.09-12.584l10.707-7.779H41.4z M74.8,48.836l-4.089,12.585H57.479
	l10.705,7.778l-4.09,12.585L74.8,74.006l10.705,7.778l-4.089-12.585l10.706-7.778H78.889L74.8,48.836z M74.8,112.582l-4.089,12.585
	H57.479l10.705,7.778l-4.09,12.585l10.706-7.778l10.705,7.778l-4.089-12.585l10.706-7.778H78.889L74.8,112.582z M74.8,176.328
	l-4.09,12.586H57.479l10.705,7.777l-4.09,12.584l10.706-7.778l10.705,7.778l-4.089-12.584l10.706-7.777H78.889L74.8,176.328z
	 M78.889,252.66L74.8,240.074l-4.09,12.586H57.479l10.705,7.777l-4.09,12.585l10.706-7.778l10.705,7.778l-4.089-12.585l10.706-7.778
	H78.889z M101.584,49.911l10.705-7.778l10.707,7.778l-4.09-12.586l10.703-7.777h-13.23l-4.089-12.585l-4.089,12.585H94.967
	l10.707,7.778L101.584,49.911z M101.584,113.657l10.705-7.778l10.707,7.778l-4.09-12.586l10.703-7.777H116.38l-4.09-12.586
	l-4.09,12.586H94.967l10.706,7.778L101.584,113.657z M112.29,144.455l-4.089,12.586H94.968l10.706,7.777l-4.089,12.584l10.705-7.778
	l10.706,7.778l-4.09-12.584l10.705-7.777H116.38L112.29,144.455z M112.29,208.201l-4.089,12.585H94.968l10.706,7.778l-4.089,12.584
	l10.705-7.778l10.706,7.778l-4.09-12.585l10.705-7.777h-13.232L112.29,208.201z M116.38,284.533l-4.09-12.586l-4.089,12.586H94.968
	l10.706,7.778l-4.089,12.585l10.705-7.778l10.706,7.778l-4.09-12.585l10.705-7.778H116.38z M149.777,48.836l-4.089,12.585h-13.233
	l10.707,7.779l-4.089,12.584l10.704-7.777l10.705,7.777L156.394,69.2l10.706-7.779h-13.233L149.777,48.836z M149.777,112.582
	l-4.089,12.585h-13.233l10.707,7.779l-4.089,12.584l10.704-7.777l10.705,7.777l-4.089-12.584l10.706-7.779h-13.233L149.777,112.582z
	 M149.777,176.328l-4.089,12.586h-13.233l10.706,7.778l-4.088,12.583l10.704-7.777l10.705,7.777l-4.089-12.584l10.706-7.778h-13.232
	L149.777,176.328z M153.866,252.66l-4.089-12.586l-4.089,12.586h-13.233l10.706,7.778l-4.088,12.584l10.704-7.777l10.705,7.777
	l-4.089-12.584l10.706-7.778H153.866z M187.266,16.963l-4.089,12.585h-13.231l10.704,7.777l-4.089,12.586l10.706-7.778l10.706,7.778
	l-4.09-12.585l10.706-7.778h-13.233L187.266,16.963z M187.266,80.708l-4.089,12.586h-13.231l10.704,7.777l-4.089,12.586
	l10.706-7.778l10.706,7.778l-4.09-12.585l10.706-7.778h-13.233L187.266,80.708z M187.266,144.455l-4.09,12.586h-13.23l10.704,7.777
	l-4.089,12.585l10.706-7.778l10.706,7.778l-4.09-12.584l10.706-7.777h-13.233L187.266,144.455z M187.266,208.201l-4.089,12.585
	h-13.231l10.704,7.777l-4.089,12.585l10.706-7.778l10.706,7.778l-4.09-12.585l10.706-7.778h-13.233L187.266,208.201z
	 M191.355,284.533l-4.09-12.586l-4.089,12.586h-13.231l10.704,7.777l-4.089,12.586l10.706-7.778l10.706,7.778l-4.09-12.585
	l10.706-7.778H191.355z M224.756,48.836l-4.09,12.585h-13.232l10.705,7.778l-4.089,12.585l10.705-7.778l10.705,7.778l-4.089-12.585
	l10.705-7.778h-13.231L224.756,48.836z M224.756,112.582l-4.09,12.585h-13.232l10.705,7.778l-4.089,12.585l10.705-7.778
	l10.705,7.778l-4.089-12.585l10.705-7.778h-13.231L224.756,112.582z M224.756,176.328l-4.09,12.586h-13.232l10.705,7.778
	l-4.089,12.584l10.705-7.777l10.705,7.777l-4.089-12.584l10.705-7.777h-13.231L224.756,176.328z M228.845,252.66l-4.089-12.586
	l-4.09,12.586h-13.232l10.705,7.778l-4.089,12.584l10.705-7.778l10.705,7.778l-4.089-12.585l10.705-7.778H228.845z M251.538,49.911
	l10.705-7.778l10.706,7.778l-4.09-12.585l10.705-7.778h-13.232l-4.089-12.585l-4.089,12.585h-13.233l10.706,7.778L251.538,49.911z
	 M262.243,80.708l-4.089,12.586h-13.233l10.706,7.778l-4.089,12.585l10.705-7.778l10.706,7.778l-4.09-12.585l10.705-7.778h-13.231
	L262.243,80.708z M262.243,144.455l-4.089,12.586h-13.233l10.706,7.777l-4.089,12.584l10.705-7.778l10.706,7.778l-4.09-12.584
	l10.705-7.777h-13.231L262.243,144.455z M262.243,208.201l-4.089,12.585h-13.233l10.706,7.778l-4.089,12.584l10.705-7.778
	l10.706,7.778l-4.09-12.585l10.705-7.777h-13.232L262.243,208.201z M266.333,284.533l-4.09-12.586l-4.089,12.586h-13.233
	l10.706,7.778l-4.089,12.585l10.705-7.778l10.706,7.778l-4.09-12.585l10.705-7.778H266.333z"/>
</svg>
