<?xml version="1.0" encoding="utf-8"?>
<!-- Generator: Adobe Illustrator 12.0.0, SVG Export Plug-In  -->
<!DOCTYPE svg PUBLIC "-//W3C//DTD SVG 1.1//EN" "http://www.w3.org/Graphics/SVG/1.1/DTD/svg11.dtd" [
	<!ENTITY ns_flows "http://ns.adobe.com/Flows/1.0/">
	<!ENTITY ns_svg "http://www.w3.org/2000/svg">
	<!ENTITY ns_xlink "http://www.w3.org/1999/xlink">
]>
<svg  version="1.1" xmlns="&ns_svg;" xmlns:xlink="&ns_xlink;" xmlns:a="http://ns.adobe.com/AdobeSVGViewerExtensions/3.0/"
	 width="600" height="600" viewBox="0 0 600 600" enable-background="new 0 0 600 600" xml:space="preserve">
<defs>
</defs>
<path fill="#012169" d="M0,0h600v600H0V0z"/>
<path id="c_9_" fill="#FFFFFF" d="M150.797,366.563l17.722,55.099l54.126-20.498l-32.028,48.208l49.774,29.538l-57.661,5.017
	l7.94,57.331l-39.873-41.953l-39.873,41.953l7.94-57.331l-57.661-5.017l49.774-29.538l-32.029-48.208l54.127,20.498L150.797,366.563
	z"/>
<path id="c_8_" fill="#FFFFFF" d="M451.547,479.184l7.365,22.898l22.494-8.52l-13.311,20.035l20.686,12.275l-23.964,2.085
	l3.301,23.826l-16.571-17.436l-16.571,17.436l3.301-23.826l-23.964-2.085l20.687-12.275l-13.312-20.035l22.494,8.52L451.547,479.184
	z"/>
<path id="c_7_" fill="#FFFFFF" d="M377.14,215.719l8.208,25.52l25.068-9.494l-14.834,22.327l23.053,13.68l-26.705,2.324
	l3.678,26.553l-18.468-19.431l-18.467,19.431l3.678-26.553l-26.706-2.324l23.054-13.68l-14.835-22.327l25.069,9.494L377.14,215.719z
	"/>
<path id="c_6_" fill="#FFFFFF" d="M451.623,54.338l8.208,25.519l25.069-9.494l-14.834,22.328l23.053,13.68l-26.706,2.323
	l3.678,26.553l-18.468-19.43l-18.467,19.43l3.678-26.553l-26.706-2.323l23.054-13.68l-14.835-22.328l25.069,9.494L451.623,54.338z"
	/>
<path id="c_5_" fill="#FFFFFF" d="M528.177,175.995l8.206,25.519l25.069-9.493l-14.834,22.328l23.054,13.68l-26.706,2.323
	l3.677,26.553l-18.466-19.431l-18.468,19.431l3.678-26.553l-26.705-2.323l23.053-13.68L494.9,192.021l25.068,9.493L528.177,175.995z
	"/>
<path id="d_1_" fill="#FFFFFF" d="M495.547,304.414l6.967,17.078l18.395,1.348l-14.09,11.903l4.402,17.911l-15.674-9.722
	l-15.674,9.722l4.402-17.911l-14.09-11.903l18.395-1.348L495.547,304.414z"/>
<path fill="#FFFFFF" d="M0,300v-28.125L260.817,0h39.245l0.021,17.417L28.984,300H3H0z"/>
<path fill="#E00036" d="M149.333,147.333h16L19,300H3L149.333,147.333z"/>
<path fill="#E00036" d="M140,152.667h-16L270.333,0h16L140,152.667z"/>
<path fill="#FFFFFF" d="M300.025,300h-25.984L0,14.376L0.041,0h42.167l257.817,268.703V300z"/>
<path fill="#E00036" d="M300.06,281.034l-0.028,16.028L155.692,146.333h16L300.06,281.034z"/>
<path fill="#E00036" d="M0,3.313V0h12.813l148.213,154.667h-16L0,3.313z"/>
<path fill="#FFFFFF" d="M118,0h64v300h-64V0z"/>
<path fill="#FFFFFF" d="M0,180v-60h300v60H0z"/>
<path fill="#E00036" d="M0,168v-36h300v36H0z"/>
<path fill="#E00036" d="M132,0h36v300h-36V0z"/>
</svg>
