<?xml version="1.0" encoding="utf-8"?>
<!-- Generator: Adobe Illustrator 12.0.0, SVG Export Plug-In  -->
<!DOCTYPE svg PUBLIC "-//W3C//DTD SVG 1.1//EN" "http://www.w3.org/Graphics/SVG/1.1/DTD/svg11.dtd" [
	<!ENTITY ns_flows "http://ns.adobe.com/Flows/1.0/">
	<!ENTITY ns_svg "http://www.w3.org/2000/svg">
	<!ENTITY ns_xlink "http://www.w3.org/1999/xlink">
]>
<svg  version="1.1" xmlns="&ns_svg;" xmlns:xlink="&ns_xlink;" xmlns:a="http://ns.adobe.com/AdobeSVGViewerExtensions/3.0/"
	 width="600" height="600" viewBox="0 0 600 600" enable-background="new 0 0 600 600" xml:space="preserve">
<defs>
</defs>
<path fill="#FF0000" d="M0,0h150l6.188,12.375h287.625L450,0h150v600H450l-6.188-12.375H156.188L150,600H0V0z"/>
<path fill="#FFFFFF" d="M150,0v600h300V0H150z M356.188,356.729l7.25,20l-53.688-9.438c-0.422-0.073-0.852-0.1-1.279-0.079
	c-3.275,0.149-5.809,2.929-5.658,6.204l2.813,53.938h-11.25l2.813-53.938c0.02-0.43-0.008-0.857-0.08-1.279
	c-0.555-3.229-3.625-5.4-6.857-4.846l-53.688,9.438l7.25-20c0.604-1.631,0.101-3.465-1.25-4.563l-58.813-47.625l13.25-6.188
	c1.853-0.875,2.763-2.992,2.125-4.938l-11.625-35.75l33.875,7.188c1.894,0.395,3.801-0.6,4.563-2.375l6.563-15.438l26.438,28.375
	c0.953,1.006,2.354,1.456,3.717,1.194c2.203-0.424,3.646-2.555,3.222-4.758l-12.75-65.75l20.438,11.813
	c0.078,0.045,0.156,0.088,0.235,0.128c2.007,1.004,4.447,0.189,5.451-1.816l20.75-40.75l20.75,40.75
	c0.04,0.082,0.083,0.16,0.129,0.237c1.134,1.937,3.623,2.585,5.561,1.451l20.438-11.813l-12.75,65.75
	c-0.262,1.361,0.188,2.763,1.194,3.715c1.628,1.545,4.2,1.477,5.743-0.152l26.438-28.375l6.563,15.438
	c0.762,1.776,2.67,2.771,4.563,2.375l33.875-7.188l-11.625,35.75c-0.637,1.945,0.273,4.063,2.125,4.938l13.25,6.188l-58.813,47.625
	C356.087,353.264,355.584,355.098,356.188,356.729z"/>
</svg>
