<?xml version="1.0" encoding="utf-8"?>
<!-- Generator: Adobe Illustrator 12.0.0, SVG Export Plug-In  -->
<!DOCTYPE svg PUBLIC "-//W3C//DTD SVG 1.1//EN" "http://www.w3.org/Graphics/SVG/1.1/DTD/svg11.dtd" [
	<!ENTITY ns_flows "http://ns.adobe.com/Flows/1.0/">
	<!ENTITY ns_svg "http://www.w3.org/2000/svg">
	<!ENTITY ns_xlink "http://www.w3.org/1999/xlink">
]>
<svg  version="1.1" xmlns="&ns_svg;" xmlns:xlink="&ns_xlink;" xmlns:a="http://ns.adobe.com/AdobeSVGViewerExtensions/3.0/"
	 width="600" height="600" viewBox="0 0 600 600" enable-background="new 0 0 600 600" xml:space="preserve">
<defs>
</defs>
<path fill="#FF0000" d="M240,0h360v600H240V0z"/>
<path fill="#006600" d="M0,0h240v600H0V0z"/>
<path fill="#FFFF00" stroke="#000000" stroke-width="0.573" stroke-linecap="round" stroke-linejoin="round" d="M341.289,382.721
	c-39.082-1.18-218.298-113.045-219.529-130.857l9.898-16.506c17.774,25.832,200.99,134.627,218.986,130.769l-9.354,16.59"/>
<path fill="#FFFF00" stroke="#000000" stroke-width="0.573" stroke-linecap="round" stroke-linejoin="round" d="M129.574,233.115
	c-3.505,9.435,46.765,40.515,107.252,77.305c60.481,36.785,112.637,59.52,116.502,56.258c0.236-0.422,1.902-3.287,1.752-3.264
	c-0.727,1.093-2.49,1.436-5.242,0.643c-16.342-4.715-58.962-24.274-111.744-56.285c-52.781-32.008-98.701-61.506-105.839-74.039
	c-0.498-0.868-0.852-2.453-0.78-3.687l-0.173-0.002l-1.521,2.658L129.574,233.115L129.574,233.115L129.574,233.115z
	 M342.209,383.234c-0.662,1.207-1.898,1.242-4.246,0.988c-14.619-1.617-58.98-23.191-111.468-54.613
	c-61.076-36.56-111.515-69.873-106.045-78.579l1.489-2.632l0.293,0.092c-4.922,14.755,99.546,74.486,105.699,78.296
	c60.448,37.448,111.41,59.317,115.917,53.635l-1.641,2.822v-0.002L342.209,383.234z"/>
<path fill="#FFFF00" stroke="#000000" stroke-width="0.573" stroke-linecap="round" stroke-linejoin="round" d="M240.29,262.65
	c39.119-0.308,87.392-5.346,115.171-16.416l-5.986-9.726c-16.42,9.087-64.957,15.064-109.515,15.957
	c-52.701-0.485-89.9-5.392-108.537-17.897l-5.65,10.354C160.034,259.422,195.143,262.503,240.29,262.65"/>
<path fill="#FFFF00" stroke="#000000" stroke-width="0.573" stroke-linecap="round" stroke-linejoin="round" d="M357.074,246.454
	c-0.957,1.53-19.074,7.776-45.766,12.387c-18.096,2.759-41.697,5.117-71.16,5.148c-27.985,0.026-50.849-1.968-68.157-4.314
	c-28.016-4.393-42.476-10.504-47.822-12.665c0.511-1.016,0.841-1.73,1.332-2.678c15.391,6.127,29.917,9.82,46.938,12.438
	c17.191,2.328,39.782,4.35,67.627,4.324c29.32-0.031,52.666-2.566,70.656-5.242c27.367-4.416,42.318-10.098,44.418-12.735
	L357.074,246.454L357.074,246.454L357.074,246.454z M351.818,236.592c-2.969,2.385-17.746,7.625-43.75,11.779
	c-17.355,2.486-39.423,4.712-67.616,4.74c-26.786,0.025-48.67-1.778-65.313-4.204c-26.41-3.45-40.467-9.671-45.533-11.484
	c0.504-0.872,1.016-1.737,1.544-2.606c3.945,1.986,17.507,7.492,44.279,11.285c16.458,2.334,38.372,4.071,65.025,4.045
	c28.06-0.027,49.877-2.297,67.122-4.771c26.139-3.596,40.205-10.282,42.342-11.955l1.906,3.17L351.818,236.592L351.818,236.592z
	 M111.836,309.781c24.062,12.939,77.499,19.463,128.07,19.91c46.044,0.072,106.027-7.119,128.46-19.002l-0.615-12.955
	c-7.02,10.966-71.302,21.486-128.345,21.057c-57.044-0.434-110.014-9.243-127.674-20.646l0.104,11.631"/>
<path fill="#FFFF00" stroke="#000000" stroke-width="0.573" stroke-linecap="round" stroke-linejoin="round" d="M369.598,307.917
	v3.09c-3.371,4.03-24.51,10.125-51.021,14.414c-20.175,3.095-46.478,5.427-79.255,5.427c-31.139,0-55.969-2.22-75.226-5.176
	c-30.44-4.434-49.911-12.197-53.819-14.512l0.019-3.604c11.739,7.807,43.547,13.514,54.228,15.266
	c19.132,2.935,43.817,5.141,74.798,5.141c32.625,0,58.781-2.316,78.83-5.393C337.166,319.822,364.262,312.675,369.598,307.917
	L369.598,307.917L369.598,307.917z M369.607,296.932v3.088c-3.369,4.028-24.51,10.123-51.021,14.41
	c-20.172,3.096-46.476,5.43-79.253,5.43c-31.139,0-55.971-2.219-75.226-5.178c-30.44-4.432-49.911-12.195-53.82-14.512l0.018-3.604
	c11.74,7.805,43.547,13.517,54.229,15.26c19.132,2.939,43.814,5.145,74.799,5.145c32.622,0,58.779-2.315,78.826-5.396
	C337.178,308.832,364.273,301.688,369.607,296.932L369.607,296.932z M239.798,380.494c-55.334-0.332-102.748-15.084-112.76-17.523
	l7.302,11.43c17.684,7.438,63.94,18.524,105.989,17.297c42.052-1.225,78.797-4.479,104.698-17.088l7.486-11.844
	C334.865,371.078,274.803,380.408,239.798,380.494"/>
<path fill="#FFFF00" stroke="#000000" stroke-width="0.55" stroke-linecap="round" stroke-linejoin="round" d="M347.836,371.955
	c-1.092,1.673-2.211,3.324-3.355,4.955c-12.219,4.308-31.467,8.83-39.588,10.146c-16.589,3.424-42.26,5.944-65.039,5.957
	c-49.021-0.719-89.145-10.313-108.02-18.498l-1.524-2.619l0.249-0.394l2.581,1.001c33.57,12.01,71.274,16.801,106.988,17.66
	c22.688,0.081,45.403-2.6,63.77-5.887c28.166-5.643,39.555-9.896,43.049-11.825L347.836,371.955L347.836,371.955z M354.328,361.25
	l0.084,0.1c-0.838,1.416-1.686,2.822-2.541,4.226c-6.514,2.325-24.195,7.498-50.014,11.11c-17.011,2.315-27.582,4.562-61.423,5.217
	c-63.412-1.612-104.468-14.012-114.222-17.069l-1.445-2.771c36.749,9.59,74.288,16.289,115.667,16.971
	c30.959-0.656,44.131-2.938,61-5.236c30.105-4.684,45.275-9.639,49.828-11.068c-0.063-0.09-0.129-0.176-0.197-0.258l3.264-1.219l0,0
	V361.25z"/>
<path fill="#FFFF00" stroke="#000000" stroke-width="0.573" stroke-linecap="round" stroke-linejoin="round" d="M354.99,299.561
	c0.182,36.401-18.449,69.068-33.451,83.478c-21.228,20.388-49.375,33.502-82.242,34.104c-36.701,0.676-71.308-23.253-80.591-33.767
	c-18.147-20.551-32.922-46.646-33.396-81.814c2.248-39.729,17.844-67.403,40.451-86.381c22.609-18.977,52.711-28.22,77.779-27.56
	c28.924,0.764,62.713,14.953,86.059,43.122C344.895,249.2,351.518,269.229,354.99,299.561L354.99,299.561z M239.61,174.923
	c70.488,0,128.46,57.36,128.46,127.692c0,70.33-57.975,127.693-128.46,127.693c-70.487,0-127.98-57.361-127.98-127.693
	C111.628,232.282,169.123,174.923,239.61,174.923"/>
<path fill="#FFFF00" stroke="#000000" stroke-width="0.573" stroke-linecap="round" stroke-linejoin="round" d="M239.954,174.484
	c70.55,0,128.093,57.547,128.093,128.105c0,70.556-57.543,128.104-128.093,128.104c-70.551,0-128.093-57.545-128.093-128.104
	C111.86,232.03,169.404,174.484,239.954,174.484L239.954,174.484z M114.682,302.59c0,68.904,56.582,125.285,125.272,125.285
	c68.689,0,125.273-56.381,125.273-125.285s-56.584-125.289-125.273-125.289C171.264,177.303,114.682,233.688,114.682,302.59z"/>
<path fill="#FFFF00" stroke="#000000" stroke-width="0.573" stroke-linecap="round" stroke-linejoin="round" d="M240.057,185.133
	c64.333,0,117.33,52.809,117.33,117.344c0,64.537-52.994,117.343-117.33,117.343c-64.336,0-117.331-52.806-117.331-117.343
	C122.727,237.943,175.723,185.133,240.057,185.133L240.057,185.133z M125.544,302.477c0,62.984,51.721,114.524,114.513,114.524
	c62.791,0,114.515-51.541,114.515-114.524c0-62.987-51.725-114.525-114.515-114.525
	C177.267,187.949,125.544,239.492,125.544,302.477z"/>
<path fill="#FFFF00" stroke="#000000" stroke-width="0.573" stroke-linecap="round" stroke-linejoin="round" d="M245.219,173.968
	h-10.978l0.013,257.397h11.016L245.219,173.968z"/>
<path fill="#FFFF00" stroke="#000000" stroke-width="0.573" stroke-linecap="round" stroke-linejoin="round" d="M244.118,172.5
	h2.795l0.025,260.358h-2.799L244.118,172.5L244.118,172.5z M233.227,172.502h2.813l0.005,260.358h-2.818V172.502L233.227,172.502z"
	/>
<path fill="#FFFF00" stroke="#000000" stroke-width="0.573" stroke-linecap="round" stroke-linejoin="round" d="M368.135,307.552
	v-9.517l-7.75-7.219l-43.982-11.643l-63.395-6.469l-76.329,3.881l-54.336,12.938l-10.971,8.125v9.517l27.79-12.467l65.978-10.351
	h63.394l46.571,5.176l32.344,7.762L368.135,307.552z"/>
<path fill="#FFFF00" stroke="#000000" stroke-width="0.573" stroke-linecap="round" stroke-linejoin="round" d="M240.006,282.755
	c30.251-0.055,59.602,2.866,82.882,7.402c24.021,4.803,40.932,10.808,46.707,17.556l-0.006,3.342
	c-6.973-8.397-29.723-14.553-47.246-18.072c-23.101-4.494-52.257-7.396-82.339-7.34c-31.744,0.059-61.307,3.065-84.071,7.506
	c-18.267,3.625-42.627,10.826-45.67,17.928v-3.479c1.67-4.918,19.811-12.264,45.259-17.357
	C178.46,285.77,208.074,282.813,240.006,282.755L240.006,282.755z M240.018,271.768c30.252-0.054,59.602,2.869,82.882,7.402
	c24.021,4.803,40.93,10.809,46.709,17.555l-0.01,3.34c-6.971-8.393-29.719-14.549-47.242-18.065
	c-23.104-4.499-52.259-7.401-82.341-7.343c-31.744,0.058-61.161,3.066-83.929,7.507c-17.628,3.343-42.985,10.827-45.813,17.929
	v-3.479c1.671-4.864,20.179-12.477,45.261-17.359C178.472,274.782,208.085,271.83,240.018,271.768L240.018,271.768z
	 M239.399,215.729c47.672-0.239,89.251,6.662,108.275,16.41l6.939,12.004c-16.535-8.912-61.397-18.176-115.148-16.791
	c-43.796,0.268-90.594,4.82-114.075,17.349l8.285-13.855c19.269-9.993,64.712-15.063,105.722-15.116"/>
<path fill="#FFFF00" stroke="#000000" stroke-width="0.573" stroke-linecap="round" stroke-linejoin="round" d="M240.03,225.639
	c27.188-0.074,53.462,1.461,74.355,5.231c19.459,3.62,38.018,9.056,40.67,11.979l2.061,3.637
	c-6.453-4.215-22.512-8.907-43.133-12.816c-20.708-3.893-46.962-5.181-74-5.111c-30.69-0.104-54.534,1.516-74.998,5.084
	c-21.642,4.051-36.656,9.836-40.358,12.584l2.016-3.845c7.197-3.671,18.616-8.099,37.806-11.553
	C185.61,226.964,209.708,225.805,240.03,225.639L240.03,225.639L240.03,225.639z M240.02,214.662
	c26.02-0.069,51.713,1.382,71.738,4.982c15.797,3.074,31.416,7.875,37.135,12.146l3.012,4.779
	c-5.115-5.688-24.367-11.076-41.367-14.09c-19.872-3.43-44.496-4.787-70.517-5.004c-27.307,0.078-52.545,1.752-72.126,5.315
	c-18.682,3.556-30.739,7.765-35.839,11.052l2.646-3.994c7.039-3.703,18.412-7.109,32.735-9.893
	C187.162,216.367,212.553,214.739,240.02,214.662L240.02,214.662z M303.656,355.837c-23.569-4.397-47.181-5.038-63.673-4.845
	c-79.443,0.932-105.106,16.313-108.239,20.973l-5.938-9.68c20.227-14.659,63.487-22.881,114.607-22.041
	c26.546,0.436,49.452,2.197,68.72,5.929l-5.48,9.667"/>
<path fill="#FFFF00" stroke="#000000" stroke-width="0.55" stroke-linecap="round" stroke-linejoin="round" d="M239.528,349.627
	c22.099,0.33,43.791,1.24,64.728,5.146l-1.518,2.678c-19.446-3.59-40.175-4.963-63.136-4.852
	c-29.32-0.229-58.976,2.508-84.792,9.916c-8.147,2.27-21.633,7.508-23.008,11.834l-1.509-2.488
	c0.435-2.559,8.586-7.865,23.822-12.148c29.572-8.467,57.232-9.896,85.412-10.089V349.627L239.528,349.627z M240.53,338.507
	c22.896,0.425,46.543,1.485,69.523,6.038l-1.58,2.785c-20.754-4.12-40.582-5.493-67.808-5.911
	c-29.413,0.056-60.612,2.149-88.981,10.396c-9.159,2.67-24.964,8.438-25.489,13.004l-1.509-2.674
	c0.343-4.144,14.026-9.556,26.336-13.138C179.609,340.697,210.891,338.561,240.53,338.507L240.53,338.507z"/>
<path fill="#FFFF00" stroke="#000000" stroke-width="0.573" stroke-linecap="round" stroke-linejoin="round" d="M353.373,363.754
	l-9.545,14.813l-27.43-24.358l-71.154-47.866l-80.209-43.986l-41.643-14.244l8.874-16.457l3.015-1.645l25.875,6.471l85.385,43.985
	l49.16,31.05L337.1,341.27l16.818,19.408L353.373,363.754z"/>
<path fill="#FFFF00" stroke="#000000" stroke-width="0.573" stroke-linecap="round" stroke-linejoin="round" d="M121.89,248.498
	c7.305-4.955,60.984,18.959,117.153,52.826c56.019,33.965,109.547,72.347,104.713,79.531l-1.59,2.498l-0.725,0.576
	c0.15-0.115,0.959-1.101-0.08-3.761c-2.391-7.854-40.357-38.151-103.361-76.194c-61.42-36.625-112.606-58.697-117.725-52.389
	L121.89,248.498L121.89,248.498L121.89,248.498z M355.326,363.544c4.619-9.124-45.172-46.632-106.901-83.147
	c-63.151-35.793-108.665-56.86-116.979-50.58l-1.849,3.365c-0.015,0.185,0.068-0.231,0.458-0.531
	c1.512-1.32,4.016-1.229,5.148-1.252c14.313,0.216,55.197,19.031,112.559,51.914c25.137,14.639,106.179,66.614,105.869,81.231
	c0.023,1.255,0.105,1.515-0.369,2.136L355.326,363.544L355.326,363.544L355.326,363.544z"/>
<path fill="#FFFFFF" stroke="#000000" stroke-width="0.67" d="M163.224,316.701c0,21.05,8.621,40.09,22.583,54.004
	c13.991,13.943,33.004,22.74,54.09,22.74c21.192,0,40.426-8.606,54.356-22.498c13.936-13.885,22.567-33.055,22.573-54.178h-0.006
	V214.323l-153.614-0.183L163.224,316.701L163.224,316.701L163.224,316.701z"/>
<path fill="#FF0000" stroke="#000000" stroke-width="0.507" d="M166.096,316.846v0.057c0,20.13,8.333,38.457,21.702,51.763
	c13.396,13.332,31.844,21.621,52.025,21.621c20.287,0,38.697-8.229,52.035-21.513c13.337-13.278,21.605-31.608,21.605-51.805h-0.004
	v-99.39l-147.275-0.026l-0.091,99.291 M283.85,247.311l0.004,63.252l-0.053,6.691c0,1.757-0.104,3.768-0.312,5.475
	c-1.195,10-5.794,18.715-12.604,25.496c-7.976,7.938-18.98,12.862-31.109,12.862c-12.068,0-22.823-5.095-30.83-13.065
	c-8.215-8.176-12.977-19.39-12.977-30.981l-0.017-69.888L283.85,247.311L283.85,247.311L283.85,247.311z"/>
<path fill="#FFFF00" d="M175.629,243.504c0.176-7.143,5.243-8.833,5.278-8.857c0.037-0.025,5.475,1.819,5.458,8.922L175.629,243.504
	"/>
<path fill="#FFFF00" stroke="#000000" stroke-width="0.5" d="M171.257,234.783l-0.884,8.21l5.357,0.012
	c0.052-6.792,5.143-7.921,5.265-7.896c0.117-0.008,5.159,1.5,5.297,7.896h5.369l-0.97-8.272l-19.434,0.049L171.257,234.783
	L171.257,234.783z M170.015,243.027h21.923c0.461,0,0.84,0.457,0.84,1.013s-0.379,1.01-0.84,1.01h-21.923
	c-0.461,0-0.841-0.452-0.841-1.01C169.174,243.482,169.554,243.027,170.015,243.027z"/>
<path fill="#FFFF00" stroke="#000000" stroke-width="0.5" d="M177.983,242.986c0.023-4.286,2.927-5.5,2.943-5.495
	c0,0,3.03,1.249,3.055,5.495H177.983 M170.481,231.369h21.017c0.443,0,0.807,0.411,0.807,0.912c0,0.502-0.363,0.91-0.807,0.91
	h-21.017c-0.443,0-0.806-0.404-0.806-0.91C169.676,231.78,170.039,231.369,170.481,231.369z M170.92,233.206h20.104
	c0.422,0,0.771,0.41,0.771,0.911c0,0.503-0.349,0.912-0.771,0.912H170.92c-0.422,0-0.77-0.408-0.77-0.912
	C170.152,233.616,170.499,233.206,170.92,233.206z M177.417,219.506l1.587,0.002v1.126h1.159v-1.151l1.627,0.006v1.146h1.16v-1.15
	h1.628l-0.003,2.601c0,0.411-0.329,0.675-0.71,0.675h-5.705c-0.385,0-0.737-0.305-0.741-0.679l-0.002-2.572l0,0V219.506z
	 M183.393,222.986l0.356,8.346l-5.566-0.021l0.369-8.348L183.393,222.986"/>
<path id="a_28_" fill="#FFFF00" stroke="#000000" stroke-width="0.5" d="M176.6,226.855l0.169,4.5l-5.336,0.002l0.151-4.5h5.018
	L176.6,226.855L176.6,226.855z"/>
<path id="a_13_" fill="#FFFF00" stroke="#000000" stroke-width="0.5" d="M190.326,226.855l0.169,4.5l-5.336,0.002l0.15-4.5
	L190.326,226.855L190.326,226.855L190.326,226.855z"/>
<path id="b_28_" fill="#FFFF00" stroke="#000000" stroke-width="0.5" d="M170.598,223.594l1.552,0.004v1.127h1.135v-1.154
	l1.591,0.005v1.149h1.138v-1.154l1.59,0.003l-0.002,2.603c0,0.406-0.323,0.67-0.694,0.67h-5.583c-0.376,0-0.724-0.304-0.725-0.678
	L170.598,223.594L170.598,223.594z"/>
<path id="b_13_" fill="#FFFF00" stroke="#000000" stroke-width="0.5" d="M184.324,223.594l1.552,0.004v1.127h1.135v-1.154
	l1.59,0.005v1.149h1.139v-1.154l1.59,0.003l-0.003,2.603c0,0.406-0.321,0.67-0.692,0.67h-5.584c-0.376,0-0.724-0.304-0.725-0.678
	L184.324,223.594L184.324,223.594z"/>
<path d="M180.431,225.624c-0.034-0.813,1.135-0.817,1.12,0v1.989h-1.12V225.624"/>
<path id="c_28_" d="M173.535,228.51c-0.004-0.781,1.083-0.798,1.07,0v1.537h-1.07V228.51"/>
<path id="c_13_" d="M187.3,228.51c-0.003-0.781,1.083-0.798,1.069,0v1.537H187.3V228.51"/>
<path fill="#FFFF00" d="M175.629,303.428c0.176-7.142,5.243-8.832,5.278-8.859c0.037-0.023,5.475,1.822,5.458,8.924L175.629,303.428
	"/>
<path fill="#FFFF00" stroke="#000000" stroke-width="0.5" d="M171.257,294.709l-0.884,8.21l5.357,0.013
	c0.052-6.791,5.143-7.92,5.265-7.897c0.117-0.007,5.159,1.501,5.297,7.897h5.369l-0.97-8.271l-19.434,0.047L171.257,294.709
	L171.257,294.709z M170.015,302.949h21.923c0.461,0,0.84,0.457,0.84,1.016c0,0.557-0.379,1.008-0.84,1.008h-21.923
	c-0.461,0-0.841-0.451-0.841-1.008C169.174,303.404,169.554,302.949,170.015,302.949z"/>
<path fill="#FFFF00" stroke="#000000" stroke-width="0.5" d="M177.983,302.91c0.023-4.285,2.927-5.499,2.943-5.494
	c0,0,3.03,1.25,3.055,5.494H177.983 M170.481,291.294h21.017c0.443,0,0.807,0.41,0.807,0.913c0,0.5-0.363,0.91-0.807,0.91h-21.017
	c-0.443,0-0.806-0.408-0.806-0.91C169.676,291.705,170.039,291.294,170.481,291.294z M170.92,293.131h20.104
	c0.422,0,0.771,0.411,0.771,0.912c0,0.502-0.349,0.911-0.771,0.911H170.92c-0.422,0-0.77-0.409-0.77-0.911
	C170.152,293.541,170.499,293.131,170.92,293.131z M177.417,279.432l1.587,0.002v1.125h1.159v-1.15l1.627,0.004v1.148h1.16v-1.152
	h1.628l-0.003,2.6c0,0.41-0.329,0.676-0.71,0.676h-5.705c-0.385,0-0.737-0.306-0.741-0.68L177.417,279.432L177.417,279.432
	L177.417,279.432z M183.393,282.912l0.356,8.344l-5.566-0.02l0.369-8.348L183.393,282.912"/>
<path id="a_12_" fill="#FFFF00" stroke="#000000" stroke-width="0.5" d="M176.6,286.777l0.169,4.5l-5.336,0.003l0.151-4.501h5.018
	L176.6,286.777L176.6,286.777z"/>
<path id="a_11_" fill="#FFFF00" stroke="#000000" stroke-width="0.5" d="M190.326,286.777l0.169,4.5l-5.336,0.003l0.15-4.501
	L190.326,286.777L190.326,286.777L190.326,286.777z"/>
<path id="b_12_" fill="#FFFF00" stroke="#000000" stroke-width="0.5" d="M170.598,283.518l1.552,0.004v1.125h1.135v-1.152
	l1.591,0.006v1.15h1.138v-1.157l1.59,0.002l-0.002,2.604c0,0.404-0.323,0.67-0.694,0.67h-5.583c-0.376,0-0.724-0.304-0.725-0.68
	L170.598,283.518L170.598,283.518z"/>
<path id="b_11_" fill="#FFFF00" stroke="#000000" stroke-width="0.5" d="M184.324,283.518l1.552,0.004v1.125h1.135v-1.152
	l1.59,0.006v1.15h1.139v-1.157l1.59,0.002l-0.003,2.604c0,0.404-0.321,0.67-0.692,0.67h-5.584c-0.376,0-0.724-0.304-0.725-0.68
	L184.324,283.518L184.324,283.518z"/>
<path d="M180.431,285.551c-0.034-0.813,1.135-0.82,1.12,0v1.987h-1.12V285.551"/>
<path id="c_12_" d="M173.535,288.436c-0.004-0.783,1.083-0.8,1.07,0v1.537h-1.07V288.436"/>
<path id="c_11_" d="M187.3,288.436c-0.003-0.783,1.083-0.8,1.069,0v1.537H187.3V288.436"/>
<path fill="#FFFF00" d="M198.996,365.805c-4.945-5.158-2.574-9.945-2.565-9.988c0.008-0.043,5.148-2.603,10.178,2.416
	L198.996,365.805"/>
<path fill="#FFFF00" stroke="#000000" stroke-width="0.5" d="M189.727,362.762l5.203,6.411l3.781-3.794
	c-4.783-4.824-1.997-9.229-1.893-9.297c0.078-0.088,4.703-2.605,9.334,1.804l3.785-3.81l-6.553-5.141L189.727,362.762
	L189.727,362.762L189.727,362.762z M194.699,369.451l15.446-15.561c0.326-0.328,0.918-0.275,1.313,0.12
	c0.394,0.394,0.45,0.979,0.124,1.308l-15.445,15.557c-0.326,0.33-0.914,0.279-1.311-0.114
	C194.432,370.367,194.374,369.777,194.699,369.451z"/>
<path fill="#FFFF00" stroke="#000000" stroke-width="0.5" d="M200.289,363.77c-3.024-3.037-1.839-5.953-1.826-5.959
	c0,0,3.021-1.27,6.05,1.703L200.289,363.77 M186.757,360.906l14.808-14.914c0.312-0.313,0.86-0.281,1.213,0.072
	c0.355,0.352,0.394,0.896,0.08,1.213l-14.808,14.914c-0.312,0.313-0.856,0.283-1.214-0.07
	C186.481,361.768,186.442,361.221,186.757,360.906z M188.371,361.889l14.165-14.263c0.296-0.302,0.833-0.259,1.188,0.097
	c0.354,0.353,0.402,0.887,0.104,1.188l-14.163,14.264c-0.296,0.302-0.833,0.257-1.19-0.096
	C188.12,362.725,188.071,362.189,188.371,361.889z M183.225,347.628l1.119-1.125l0.799,0.795l0.816-0.823l-0.816-0.813l1.149-1.148
	l0.813,0.81l0.818-0.822l-0.816-0.813l1.146-1.155l1.845,1.836c0.293,0.291,0.246,0.709-0.022,0.979l-4.019,4.047
	c-0.271,0.271-0.738,0.306-1.004,0.045L183.225,347.628L183.225,347.628L183.225,347.628z M189.907,345.837l6.173,5.627
	l-3.937,3.938l-5.666-6.146L189.907,345.837"/>
<path id="a_10_" fill="#FFFF00" stroke="#000000" stroke-width="0.5" d="M187.865,353.382l3.313,3.05l-3.761,3.787l-3.087-3.275
	L187.865,353.382L187.865,353.382L187.865,353.382z"/>
<path id="a_9_" fill="#FFFF00" stroke="#000000" stroke-width="0.5" d="M197.535,343.645l3.313,3.049l-3.76,3.791l-3.088-3.28
	l3.537-3.562L197.535,343.645z"/>
<path id="b_10_" fill="#FFFF00" stroke="#000000" stroke-width="0.5" d="M181.32,355.344l1.097-1.098l0.799,0.794l0.802-0.804
	l-0.817-0.814l1.124-1.126l0.816,0.812l0.801-0.807l-0.819-0.814l1.123-1.127l1.845,1.834c0.288,0.287,0.25,0.701-0.012,0.964
	l-3.934,3.967c-0.267,0.265-0.729,0.299-0.996,0.035L181.32,355.344L181.32,355.344z"/>
<path id="b_9_" fill="#FFFF00" stroke="#000000" stroke-width="0.5" d="M190.993,345.607l1.098-1.103l0.801,0.797l0.797-0.807
	l-0.817-0.813l1.124-1.125l0.816,0.812l0.801-0.808l-0.818-0.813l1.121-1.129l1.846,1.838c0.288,0.287,0.248,0.701-0.013,0.964
	l-3.935,3.962c-0.267,0.267-0.727,0.3-0.996,0.036L190.993,345.607L190.993,345.607L190.993,345.607z"/>
<path d="M189.69,349.8c-0.601-0.548,0.219-1.384,0.789-0.795l1.41,1.399l-0.789,0.795L189.69,349.8"/>
<path id="c_10_" d="M186.878,356.725c-0.56-0.551,0.195-1.33,0.753-0.758l1.09,1.082l-0.752,0.76L186.878,356.725"/>
<path id="c_9_" d="M196.579,346.958c-0.559-0.552,0.193-1.331,0.754-0.759l1.089,1.082l-0.753,0.758L196.579,346.958"/>
<path fill="#FFFF00" d="M234.772,243.504c0.174-7.143,5.242-8.833,5.277-8.857c0.037-0.025,5.475,1.819,5.457,8.922L234.772,243.504
	"/>
<path fill="#FFFF00" stroke="#000000" stroke-width="0.5" d="M230.397,234.783l-0.881,8.21l5.356,0.012
	c0.05-6.792,5.142-7.921,5.265-7.896c0.118-0.008,5.161,1.5,5.295,7.896h5.371l-0.973-8.272l-19.434,0.049V234.783L230.397,234.783z
	 M229.157,243.027h21.922c0.462,0,0.841,0.457,0.841,1.013s-0.379,1.01-0.841,1.01h-21.922c-0.461,0-0.842-0.452-0.842-1.01
	S228.696,243.027,229.157,243.027z"/>
<path fill="#FFFF00" stroke="#000000" stroke-width="0.5" d="M237.126,242.986c0.022-4.286,2.927-5.5,2.94-5.495
	c0,0,3.029,1.249,3.051,5.495H237.126 M229.621,231.369h21.019c0.441,0,0.807,0.411,0.807,0.912c0,0.502-0.363,0.91-0.807,0.91
	h-21.019c-0.442,0-0.806-0.404-0.806-0.91C228.815,231.78,229.18,231.369,229.621,231.369z M230.061,233.206h20.102
	c0.422,0,0.771,0.41,0.771,0.911c0,0.503-0.35,0.912-0.771,0.912h-20.102c-0.422,0-0.771-0.408-0.771-0.912
	C229.292,233.616,229.639,233.206,230.061,233.206z M236.557,219.506l1.588,0.002v1.126h1.158v-1.151l1.627,0.006v1.146h1.158v-1.15
	h1.627l-0.002,2.601c0,0.411-0.326,0.675-0.712,0.675h-5.705c-0.384,0-0.737-0.305-0.739-0.679l-0.005-2.572L236.557,219.506
	L236.557,219.506z M242.533,222.986l0.358,8.346l-5.567-0.021l0.368-8.348L242.533,222.986"/>
<path id="a_8_" fill="#FFFF00" stroke="#000000" stroke-width="0.5" d="M235.742,226.855l0.169,4.5l-5.336,0.002l0.148-4.5
	L235.742,226.855L235.742,226.855L235.742,226.855z"/>
<path id="a_7_" fill="#FFFF00" stroke="#000000" stroke-width="0.5" d="M249.467,226.855l0.167,4.5l-5.336,0.002l0.149-4.5
	L249.467,226.855L249.467,226.855L249.467,226.855z"/>
<path id="b_8_" fill="#FFFF00" stroke="#000000" stroke-width="0.5" d="M229.737,223.594l1.554,0.004v1.127h1.134v-1.154l1.59,0.005
	v1.149h1.139v-1.154l1.59,0.003l-0.002,2.603c0,0.406-0.321,0.67-0.692,0.67h-5.585c-0.375,0-0.724-0.304-0.724-0.678
	L229.737,223.594L229.737,223.594z"/>
<path id="b_7_" fill="#FFFF00" stroke="#000000" stroke-width="0.5" d="M243.463,223.594l1.553,0.004v1.127h1.135v-1.154
	l1.593,0.005v1.149h1.138v-1.154l1.592,0.003l-0.002,2.603c0,0.406-0.322,0.67-0.693,0.67h-5.584c-0.375,0-0.726-0.304-0.727-0.678
	v-2.575L243.463,223.594L243.463,223.594z"/>
<path d="M239.569,225.624c-0.031-0.813,1.137-0.817,1.123,0v1.989h-1.123V225.624"/>
<path id="c_8_" d="M232.675,228.51c-0.003-0.781,1.083-0.798,1.067,0v1.537h-1.067V228.51"/>
<path id="c_7_" d="M246.44,228.51c-0.004-0.781,1.082-0.798,1.067,0v1.537h-1.067V228.51"/>
<path fill="#FFFF00" d="M304.24,243.504c-0.176-7.143-5.243-8.833-5.278-8.857c-0.036-0.025-5.474,1.819-5.456,8.922L304.24,243.504
	"/>
<path fill="#FFFF00" stroke="#000000" stroke-width="0.5" d="M308.613,234.783l0.883,8.21l-5.357,0.012
	c-0.049-6.792-5.142-7.921-5.263-7.896c-0.116-0.008-5.16,1.5-5.296,7.896h-5.37l0.971-8.272l19.435,0.049L308.613,234.783
	L308.613,234.783z M309.854,243.027h-21.921c-0.463,0-0.842,0.457-0.842,1.013s0.379,1.01,0.842,1.01h21.921
	c0.463,0,0.844-0.452,0.844-1.01C310.695,243.482,310.316,243.027,309.854,243.027z"/>
<path fill="#FFFF00" stroke="#000000" stroke-width="0.5" d="M301.887,242.986c-0.023-4.286-2.928-5.5-2.941-5.495
	c0,0-3.028,1.249-3.055,5.495H301.887 M309.391,231.369h-21.016c-0.442,0-0.808,0.411-0.808,0.912c0,0.502,0.361,0.91,0.808,0.91
	h21.016c0.443,0,0.809-0.404,0.809-0.91C310.197,231.78,309.832,231.369,309.391,231.369z M308.949,233.206h-20.101
	c-0.425,0-0.771,0.41-0.771,0.911c0,0.503,0.348,0.912,0.771,0.912h20.101c0.424,0,0.771-0.408,0.771-0.912
	C309.721,233.616,309.373,233.206,308.949,233.206z M302.457,219.506l-1.59,0.002v1.126h-1.158v-1.151l-1.627,0.006v1.146h-1.159
	v-1.15h-1.629l0.004,2.601c0,0.411,0.328,0.675,0.709,0.675h5.707c0.383,0,0.736-0.305,0.74-0.679l0.004-2.572V219.506
	L302.457,219.506z M296.479,222.986l-0.356,8.346l5.565-0.021l-0.367-8.348L296.479,222.986"/>
<path id="a_6_" fill="#FFFF00" stroke="#000000" stroke-width="0.5" d="M303.27,226.855l-0.168,4.5l5.338,0.002l-0.148-4.5
	L303.27,226.855L303.27,226.855z"/>
<path id="a_5_" fill="#FFFF00" stroke="#000000" stroke-width="0.5" d="M289.546,226.855l-0.171,4.5l5.336,0.002l-0.146-4.5
	L289.546,226.855L289.546,226.855z"/>
<path id="b_6_" fill="#FFFF00" stroke="#000000" stroke-width="0.5" d="M309.273,223.594l-1.555,0.004v1.127h-1.135v-1.154
	l-1.59,0.005v1.149h-1.139v-1.154l-1.592,0.003l0.002,2.603c0,0.406,0.322,0.67,0.693,0.67h5.584c0.375,0,0.725-0.304,0.727-0.678
	L309.273,223.594L309.273,223.594z"/>
<path id="b_5_" fill="#FFFF00" stroke="#000000" stroke-width="0.5" d="M295.547,223.594l-1.551,0.004v1.127h-1.135v-1.154
	l-1.594,0.005v1.149h-1.139v-1.154l-1.591,0.003l0.003,2.603c0,0.406,0.32,0.67,0.693,0.67h5.584c0.373,0,0.725-0.304,0.725-0.678
	v-2.575L295.547,223.594L295.547,223.594z"/>
<path d="M299.442,225.624c0.031-0.813-1.137-0.817-1.123,0v1.989h1.123V225.624"/>
<path id="c_6_" d="M306.338,228.51c0.002-0.781-1.086-0.798-1.068,0v1.537h1.068V228.51"/>
<path id="c_5_" d="M292.571,228.51c0.004-0.781-1.084-0.798-1.069,0v1.537h1.069V228.51"/>
<path fill="#FFFF00" d="M304.24,303.428c-0.176-7.142-5.243-8.832-5.278-8.859c-0.037-0.023-5.474,1.822-5.456,8.924L304.24,303.428
	"/>
<path fill="#FFFF00" stroke="#000000" stroke-width="0.5" d="M308.613,294.709l0.883,8.21l-5.357,0.013
	c-0.049-6.791-5.142-7.92-5.263-7.897c-0.116-0.007-5.16,1.501-5.296,7.897h-5.37l0.971-8.271l19.435,0.047L308.613,294.709
	L308.613,294.709z M309.854,302.949h-21.921c-0.463,0-0.842,0.457-0.842,1.016c0,0.557,0.379,1.008,0.842,1.008h21.921
	c0.463,0,0.844-0.451,0.844-1.008C310.695,303.404,310.316,302.949,309.854,302.949z"/>
<path fill="#FFFF00" stroke="#000000" stroke-width="0.5" d="M301.887,302.91c-0.023-4.285-2.928-5.499-2.941-5.494
	c0,0-3.028,1.25-3.055,5.494H301.887 M309.391,291.294h-21.016c-0.442,0-0.808,0.41-0.808,0.913c0,0.5,0.361,0.91,0.808,0.91h21.016
	c0.443,0,0.809-0.408,0.809-0.91C310.197,291.705,309.832,291.294,309.391,291.294z M308.949,293.131h-20.101
	c-0.425,0-0.771,0.411-0.771,0.912c0,0.502,0.348,0.911,0.771,0.911h20.101c0.424,0,0.771-0.409,0.771-0.911
	S309.373,293.131,308.949,293.131z M302.457,279.432l-1.59,0.002v1.125h-1.158v-1.15l-1.627,0.004v1.148h-1.159v-1.152h-1.629
	l0.004,2.6c0,0.41,0.328,0.676,0.709,0.676h5.707c0.383,0,0.736-0.306,0.74-0.68L302.457,279.432L302.457,279.432L302.457,279.432z
	 M296.479,282.912l-0.356,8.344l5.565-0.02l-0.367-8.348L296.479,282.912"/>
<path id="a_4_" fill="#FFFF00" stroke="#000000" stroke-width="0.5" d="M303.27,286.777l-0.168,4.5l5.338,0.003l-0.148-4.501
	L303.27,286.777L303.27,286.777L303.27,286.777z"/>
<path id="a_3_" fill="#FFFF00" stroke="#000000" stroke-width="0.5" d="M289.546,286.777l-0.171,4.5l5.336,0.003l-0.146-4.501
	L289.546,286.777L289.546,286.777z"/>
<path id="b_4_" fill="#FFFF00" stroke="#000000" stroke-width="0.5" d="M309.273,283.518l-1.555,0.004v1.125h-1.135v-1.152
	l-1.59,0.006v1.15h-1.139v-1.157l-1.592,0.002l0.002,2.604c0,0.404,0.322,0.67,0.693,0.67h5.584c0.375,0,0.725-0.304,0.727-0.68
	L309.273,283.518L309.273,283.518z"/>
<path id="b_3_" fill="#FFFF00" stroke="#000000" stroke-width="0.5" d="M295.547,283.518l-1.551,0.004v1.125h-1.135v-1.152
	l-1.594,0.006v1.15h-1.139v-1.157l-1.591,0.002l0.003,2.604c0,0.404,0.32,0.67,0.693,0.67h5.584c0.373,0,0.725-0.304,0.725-0.68
	L295.547,283.518L295.547,283.518L295.547,283.518z"/>
<path d="M299.442,285.551c0.031-0.813-1.137-0.82-1.123,0v1.987h1.123V285.551"/>
<path id="c_4_" d="M306.338,288.436c0.002-0.783-1.086-0.8-1.068,0v1.537h1.068V288.436"/>
<path id="c_3_" d="M292.571,288.436c0.004-0.783-1.084-0.8-1.069,0v1.537h1.069V288.436"/>
<path fill="#FFFF00" d="M280.875,365.805c4.943-5.158,2.575-9.945,2.566-9.988c-0.012-0.043-5.148-2.603-10.178,2.416
	L280.875,365.805"/>
<path fill="#FFFF00" stroke="#000000" stroke-width="0.5" d="M290.145,362.762l-5.201,6.411l-3.784-3.794
	c4.784-4.824,1.999-9.229,1.896-9.297c-0.078-0.088-4.701-2.605-9.334,1.804l-3.783-3.81l6.554-5.141l13.657,13.824L290.145,362.762
	L290.145,362.762z M285.17,369.451l-15.445-15.561c-0.326-0.328-0.916-0.275-1.313,0.12c-0.396,0.394-0.45,0.979-0.126,1.308
	l15.449,15.557c0.322,0.33,0.912,0.279,1.31-0.114C285.44,370.367,285.497,369.777,285.17,369.451z"/>
<path fill="#FFFF00" stroke="#000000" stroke-width="0.5" d="M279.583,363.77c3.026-3.037,1.842-5.953,1.829-5.959
	c0,0-3.023-1.27-6.053,1.703L279.583,363.77 M293.115,360.906l-14.812-14.914c-0.311-0.313-0.857-0.281-1.214,0.072
	c-0.354,0.354-0.391,0.896-0.077,1.213l14.809,14.914c0.312,0.313,0.855,0.283,1.213-0.07S293.428,361.221,293.115,360.906z
	 M291.501,361.889l-14.163-14.263c-0.298-0.302-0.834-0.259-1.188,0.097c-0.355,0.353-0.403,0.887-0.104,1.188l14.164,14.264
	c0.298,0.302,0.832,0.257,1.188-0.096C291.754,362.725,291.798,362.189,291.501,361.889z M296.647,347.628l-1.121-1.125
	l-0.801,0.795l-0.815-0.823l0.815-0.813l-1.148-1.148l-0.814,0.81l-0.816-0.822l0.816-0.813l-1.146-1.155l-1.842,1.836
	c-0.295,0.291-0.248,0.709,0.021,0.979l4.019,4.047c0.272,0.271,0.737,0.306,1.004,0.045L296.647,347.628L296.647,347.628
	L296.647,347.628z M289.966,345.837l-6.175,5.627l3.938,3.938l5.664-6.146L289.966,345.837"/>
<path id="a_2_" fill="#FFFF00" stroke="#000000" stroke-width="0.5" d="M292.007,353.382l-3.313,3.05l3.762,3.787l3.089-3.275
	L292.007,353.382L292.007,353.382z"/>
<path id="a_1_" fill="#FFFF00" stroke="#000000" stroke-width="0.5" d="M282.336,343.645l-3.313,3.049l3.761,3.791l3.087-3.28
	L282.336,343.645L282.336,343.645z"/>
<path id="b_2_" fill="#FFFF00" stroke="#000000" stroke-width="0.5" d="M298.55,355.344l-1.097-1.098l-0.803,0.794l-0.797-0.804
	l0.816-0.814l-1.125-1.126l-0.814,0.812l-0.805-0.807l0.82-0.814l-1.123-1.127l-1.846,1.834c-0.289,0.287-0.248,0.701,0.015,0.964
	l3.937,3.967c0.266,0.265,0.727,0.299,0.992,0.035L298.55,355.344L298.55,355.344z"/>
<path id="b_1_" fill="#FFFF00" stroke="#000000" stroke-width="0.5" d="M288.88,345.607l-1.097-1.103l-0.801,0.797l-0.801-0.807
	l0.817-0.813l-1.126-1.125l-0.814,0.812l-0.804-0.808l0.821-0.813l-1.123-1.129l-1.846,1.838c-0.289,0.287-0.248,0.701,0.014,0.964
	l3.936,3.962c0.266,0.267,0.727,0.3,0.993,0.036L288.88,345.607L288.88,345.607L288.88,345.607z"/>
<path d="M290.182,349.8c0.6-0.548-0.217-1.384-0.791-0.795l-1.408,1.399l0.789,0.795L290.182,349.8"/>
<path id="c_2_" d="M292.993,356.725c0.561-0.551-0.196-1.33-0.754-0.758l-1.09,1.082l0.752,0.76L292.993,356.725"/>
<path id="c_1_" d="M283.292,346.958c0.561-0.552-0.195-1.331-0.753-0.759l-1.091,1.082l0.753,0.758L283.292,346.958"/>
<path fill="#003399" d="M230.543,305.57v0.008c0,2.861,1.1,5.471,2.861,7.359c1.766,1.896,4.197,3.076,6.861,3.076
	c2.674,0,5.101-1.172,6.86-3.062c1.754-1.888,2.847-4.492,2.847-7.364v-13.931l-19.394-0.019L230.543,305.57"/>
<circle fill="#FFFFFF" cx="234.991" cy="296.941" r="1.923"/>
<circle fill="#FFFFFF" cx="245.752" cy="296.95" r="1.923"/>
<circle fill="#FFFFFF" cx="240.36" cy="302.115" r="1.922"/>
<circle fill="#FFFFFF" cx="234.991" cy="307.524" r="1.921"/>
<circle fill="#FFFFFF" cx="245.739" cy="307.51" r="1.922"/>
<path fill="#003399" d="M230.543,271.915v0.004c0,2.864,1.1,5.47,2.861,7.361c1.766,1.896,4.197,3.075,6.861,3.075
	c2.674,0,5.101-1.17,6.86-3.059c1.754-1.888,2.847-4.493,2.847-7.365V258l-19.394-0.018l-0.037,13.929"/>
<circle fill="#FFFFFF" cx="234.991" cy="263.284" r="1.923"/>
<circle fill="#FFFFFF" cx="245.752" cy="263.292" r="1.923"/>
<circle fill="#FFFFFF" cx="240.36" cy="268.458" r="1.923"/>
<circle fill="#FFFFFF" cx="234.991" cy="273.867" r="1.923"/>
<circle fill="#FFFFFF" cx="245.739" cy="273.854" r="1.922"/>
<path fill="#003399" d="M203.635,305.57v0.008c0,2.861,1.102,5.471,2.862,7.359c1.767,1.896,4.198,3.076,6.86,3.076
	c2.672,0,5.101-1.172,6.86-3.062c1.755-1.888,2.847-4.492,2.847-7.364v-13.931l-19.395-0.019L203.635,305.57"/>
<circle fill="#FFFFFF" cx="208.083" cy="296.941" r="1.923"/>
<circle fill="#FFFFFF" cx="218.843" cy="296.95" r="1.923"/>
<circle fill="#FFFFFF" cx="213.453" cy="302.115" r="1.922"/>
<circle fill="#FFFFFF" cx="208.083" cy="307.524" r="1.921"/>
<circle fill="#FFFFFF" cx="218.833" cy="307.51" r="1.922"/>
<path fill="#003399" d="M257.38,305.57v0.008c0,2.861,1.099,5.471,2.861,7.359c1.767,1.896,4.198,3.076,6.858,3.076
	c2.674,0,5.103-1.172,6.861-3.062c1.757-1.888,2.85-4.492,2.85-7.364v-13.931l-19.395-0.017L257.38,305.57"/>
<circle fill="#FFFFFF" cx="261.828" cy="296.941" r="1.923"/>
<circle fill="#FFFFFF" cx="272.588" cy="296.95" r="1.923"/>
<circle fill="#FFFFFF" cx="267.2" cy="302.115" r="1.922"/>
<circle fill="#FFFFFF" cx="261.828" cy="307.524" r="1.921"/>
<circle fill="#FFFFFF" cx="272.58" cy="307.51" r="1.922"/>
<path fill="#003399" d="M230.543,338.926v0.008c0,2.864,1.1,5.471,2.861,7.36c1.766,1.896,4.197,3.075,6.861,3.075
	c2.674,0,5.101-1.17,6.86-3.063c1.754-1.888,2.847-4.488,2.847-7.361v-13.934l-19.394-0.017L230.543,338.926"/>
<circle fill="#FFFFFF" cx="234.991" cy="330.299" r="1.922"/>
<circle fill="#FFFFFF" cx="245.752" cy="330.307" r="1.922"/>
<circle fill="#FFFFFF" cx="240.36" cy="335.472" r="1.921"/>
<circle fill="#FFFFFF" cx="234.991" cy="340.883" r="1.922"/>
<circle fill="#FFFFFF" cx="245.739" cy="340.867" r="1.922"/>
</svg>
