<?xml version="1.0" encoding="utf-8"?>
<!-- Generator: Adobe Illustrator 12.0.0, SVG Export Plug-In  -->
<!DOCTYPE svg PUBLIC "-//W3C//DTD SVG 1.1//EN" "http://www.w3.org/Graphics/SVG/1.1/DTD/svg11.dtd" [
	<!ENTITY ns_flows "http://ns.adobe.com/Flows/1.0/">
	<!ENTITY ns_svg "http://www.w3.org/2000/svg">
	<!ENTITY ns_xlink "http://www.w3.org/1999/xlink">
]>
<svg  version="1.1" xmlns="&ns_svg;" xmlns:xlink="&ns_xlink;" xmlns:a="http://ns.adobe.com/AdobeSVGViewerExtensions/3.0/"
	 width="600" height="600" viewBox="0 0 600 600" enable-background="new 0 0 600 600" xml:space="preserve">
<defs>
</defs>
<rect fill="#FFFFFF" width="600" height="200"/>
<rect y="200" fill="#0B4EA2" width="600" height="200"/>
<rect y="400" fill="#EE1C25" width="600" height="200"/>
<path fill="#EE1C25" d="M239.953,457.072C396.159,391.959,367.737,229.43,357.745,149.5H122.152
	C112.16,229.43,83.747,391.959,239.953,457.072z"/>
<path fill="#FFFFFF" d="M311.896,256.542c-4.668,1.584-15.5,8.084-62.25,6.75c0-14.167,0.25-32,0.25-32s24.688,1.188,49,7.75
	c-0.5-19.438-0.5-19.813,0-37c-32.188,6.813-48.75,7-48.75,7s0.125-21.438,6.25-46c-13.16,1.813-21.299,1.813-34.459,0
	c6.125,24.563,6.25,46,6.25,46s-16.563-0.188-48.75-7c0.5,17.188,0.5,17.563,0,37c24.313-6.563,49-7.75,49-7.75s0.25,17.833,0.25,32
	c-46.75,1.334-57.583-5.166-62.25-6.75c1,18.667,1,18.5,0,36.25c19.917-5.917,26.333-6.417,62-7c0,6.917,0.25,51.5,0.25,51.5h20.959
	c0,0,0.25-44.583,0.25-51.5c35.666,0.583,42.082,1.083,62,7C310.896,275.042,310.896,275.208,311.896,256.542z"/>
<path fill="#0B4EA2" d="M338.5,376.041c-12.5-29.75-43-39.75-60.25-11c-19.417-43.25-59.083-42.916-76.75,0
	c-17.25-28.75-47.75-18.75-60.25,11l38.75,43.25l59.859,36.422l59.891-36.422L338.5,376.041z"/>
<path fill="none" stroke="#FFFFFF" stroke-width="10" d="M119.021,310.354C128.125,369,162.52,424.795,239.953,457.072
	C316.125,426.5,355.125,366.5,360.883,310.35c5.242-30.35,2.242-118.35-3.138-160.85H122.152
	C117.625,190,111.625,265,119.021,310.354z"/>
</svg>
