<svg xmlns="http://www.w3.org/2000/svg" style="display: none;">
	<symbol id="cart-icon" viewBox="0 0 100 90">
		<path fill="currentColor" d="M33,76c3.832,0,7,3.17,7,7c0,3.832-3.168,7-7,7c-3.831,0-7-3.168-7-7C26,79.17,29.169,76,33,76z M85,76
			c3.832,0,7,3.17,7,7c0,3.832-3.168,7-7,7c-3.831,0-7-3.168-7-7C78,79.17,81.169,76,85,76z M92.699,51.549
			c0,0,7.301-30.611,7.301-33.549c0-1.906-1-6-6-6H23l-1.244-8.676C21.443,1.549,19.805,0,18,0H4.125C0.906,0,0,2,0,4
			c0,2.055,1.025,4,4.245,4H15l10.586,59.834c0.313,1.777,1.857,3.074,3.663,3.072h59.499c2.054,0,3.719-1.664,3.719-3.719
			c0-2.053-1.665-3.719-3.719-3.719h-56.38l-1.312-7.438h56.166C89.881,56.027,92.17,54.152,92.699,51.549z"/>
	</symbol>
</svg>
