<?xml version="1.0" encoding="utf-8"?>
<!-- Generator: Adobe Illustrator 12.0.0, SVG Export Plug-In . SVG Version: 6.00 Build 51448)  -->
<!DOCTYPE svg PUBLIC "-//W3C//DTD SVG 1.1//EN" "http://www.w3.org/Graphics/SVG/1.1/DTD/svg11.dtd" [
	<!ENTITY ns_svg "http://www.w3.org/2000/svg">
	<!ENTITY ns_xlink "http://www.w3.org/1999/xlink">
]>
<svg  version="1.1" id="Ebene_1" xmlns="&ns_svg;" xmlns:xlink="&ns_xlink;" width="70.867" height="70.867"
	 viewBox="0 0 70.867 70.867" overflow="visible" enable-background="new 0 0 70.867 70.867" xml:space="preserve">
<path fill="#FFFFFF" d="M35.434,7.087c-15.666,0-28.347,12.68-28.347,28.346S19.769,63.78,35.434,63.78
	c15.665,0,28.346-12.681,28.346-28.347S51.076,7.087,35.434,7.087z M42.968,25.401c0,0-2.549,0-3.563,0
	c-1.253,0-1.513,0.519-1.513,1.815c0,1.078,0,3.13,0,3.13h5.076l-0.498,5.507h-4.598v16.477h-6.586V35.919h-3.435v-5.593h3.435
	c0,0,0-0.8,0-4.405c0-4.126,2.224-6.284,7.105-6.284c0.798,0,4.556,0,4.556,0L42.968,25.401L42.968,25.401z"/>
</svg>
