<svg xmlns="http://www.w3.org/2000/svg" style="display: none;">
	<symbol id="rabbit-logo" viewBox="0 0 500 320">
		<path fill="currentColor" d="M352.915,55.492c0.3-4.507-5.921-3.346-2.499,0.277
			C351.916,56.104,351.888,54.91,352.915,55.492z M356.246,65.209c0.16-0.58,0.688-0.793,0.555-1.666h-1.665
			C355.024,64.579,355.357,65.172,356.246,65.209z M365.963,25.786c1.008,0.472,1.542,1.42,2.776,1.666
			c-0.651,2.519,2.376,3.467,3.331,5.274c2.684-1.245,2.559,2.715,2.499,5.553c0.531,0.764,1.552,1.039,2.221,1.666
			c-0.088,0.652-0.438,1.041-0.277,1.943c0.767,0.615,1.41,0.528,2.499,0.277c0.077,1.127,1.649,2.112,1.943,3.609
			c0.083,0.428-0.503,0.865-0.277,1.388c0.566,1.319,2.107,2.013,2.22,3.332c0.097,1.127-0.529,2.174-1.109,3.331
			c1.058,1.662-0.882,3.885-1.11,5.553c-0.104,0.756,0.5,2.082,0.555,3.608c0.148,4.169-1.271,7.71,2.499,7.773
			c0.072-0.39,0.608-0.316,0.832-0.555c-0.029-1.511,0.081-2.88,0.556-3.887c1.539-0.26,3.575,0.931,4.72,1.942
			c1.157-0.924,2.362-1.135,3.331-1.664c0.251,1.043,1.132,1.459,2.499,1.387c1.239-1.535,2.479-3.072,3.887-4.441
			c-0.248-2.529-3.565-1.988-4.442-3.887c-2.38,0.859-1.229,5.248-3.331,6.386c-4.453-1.295-1.915-9.31-3.054-10.828
			c1.209-0.794-0.021-2.382,1.665-2.776c1.136,1.178,3.017,1.611,4.442,2.499c3.086-0.62-0.396-5.71,3.608-6.107
			c0.078,2.381,0.23,4.327-1.109,6.385c-0.898,0.343-0.212-0.897-1.11-0.556c-0.559,1.033,0.28,1.746-0.278,2.777
			c3.432,0.119,5.979-0.543,6.94,1.11c0.71,1.221,0.868,3.04,1.666,3.608c2.813-0.223,3.365,1.816,5.553,2.222
			c0.037,1.425-1.089,1.688-1.111,3.054c2.236,2.783,8.096,2.493,11.661,2.498c1.088-4.65-2.524-6.881-4.72-9.162
			c-2.341-6.728-6.982-11.155-9.718-17.489c-2.057-1.367-3.123-3.724-4.163-6.108c-2.133-0.717-3.664-2.477-4.165-4.441
			c-0.266-1.041,0.284-2.068,0-3.053c-0.798-2.769-3.129-4.404-4.442-6.109c-2.627-3.41-4.228-7.223-6.107-11.382
			c-5.36-4.171-9.863-8.199-17.212-10.382C370.081,1.014,369.046,0.785,369,0c-1,0-2.352,0.193-3.314,0.967
			c-4.468,3.596-1.855,5.211-1.111,11.493C365.189,17.648,365.596,21.164,365.963,25.786z M386.508,39.389
			c0.062-1.575-0.491-2.275,0-3.607c1.937,0.197,1.774,1.126,3.608,0.277c0.183,1.016-0.601,1.064-0.555,1.943
			c0.805,3.098,3.787,3.469,5.829,4.72c-0.663,1.942,1.114,2.896,0.556,5.552c-1.971,0.027-2.515-1.372-3.054-2.775
			c-4.408,0.15-6.616-1.898-10.55-2.222C381.197,40.435,384.511,39.981,386.508,39.389z M489.783,270.095
			c-0.398-1.082-0.637-2.323-1.11-3.331c-1.181-0.486-3.125-0.207-4.72-0.278c0.434-1.784,1.826-1.143,1.943-2.775
			c0.164-2.301-3.2-4.058-5.83-4.165c-0.645-1.178,0.157-2.128,0-3.609c-0.626-1.501-1.933-2.323-3.332-3.054
			c-0.874-2.125-2.089-4.338-3.608-5.829c-0.842-0.827-2.056-0.907-3.054-1.666c-1.086-0.826-1.622-2.856-3.332-2.499
			c1.743-2.37,0.271-5.109-2.776-4.997c-1.05-1.171-1.623-2.818-3.331-3.331c-0.7-4.39-5.841-4.34-7.219-8.052
			c-0.913,0.157-1.766,1.363-2.776,0.556c0.218-3.106,2.872-4.817,3.888-7.219c0.828-1.959,0.638-4.286,1.665-6.385
			c0.378-0.771,1.306-1.389,1.666-2.222c0.88-2.034,0.836-5.099,1.389-7.495c0.448-1.948,0.441-2.98,0.555-5.553
			c0.059-1.341,0.819-2.649,0.833-3.888c0.023-2.269-1.334-4.674,0.277-6.662c-1.594-3.278,0.437-9.316-2.222-11.938
			c1.126-1.764,0.014-3.89,0-6.107c-0.017-2.909,1.373-4.767-1.665-5.829c0.087-1.303,1.653-1.123,1.944-2.222
			c-0.742-1.479-3.307-1.136-4.998-1.666c0.712-2.014,3.172-4.141,1.388-6.939c-0.492-1.081-2.532-0.614-3.054-1.667
			c-0.305-1.416,0.817-1.404,1.388-1.943c-0.997-3.64-0.224-8.512-3.886-10.55c0.082-2.577,1.072-7.695-1.11-7.773
			c-0.751,0.675,0.857,2.68-1.111,2.499c-1.969-0.454,0.086-2.203,0.277-3.054c-1.171-2.609-0.155-5.586-0.832-8.051
			c-0.289-1.054-1.312-1.747-1.666-2.776c-0.907-2.636-0.225-6.122-2.776-7.773c-0.129,5.727,2.189,11.288,1.389,18.601
			c-4.852,5.698-2.946,18.154-12.493,19.155c-1.063-1.437-2.293-2.704-3.054-4.441c1.415-1.993-0.241-3.931-0.556-5.829
			c2.84-2.397-0.128-5.535,0-8.33c0.069-1.515,1.561-2.456,1.943-3.886c0.685-2.562-0.37-5.315,1.389-7.219
			c0.86,0.028,1.326-0.34,1.943-0.555c1.953-3.291,4.577-9.834,9.438-7.496c-0.821-2.852,0.139-5.926-0.277-8.606
			c-0.66-4.258-4.967-6.806-7.496-9.162c-0.376-3.602-2.896-5.062-4.72-7.218c1.344-2.696-1.513-5.286-3.054-7.495
			c-3.266,1.933-6.314-0.711-6.662-3.056c2.051-0.456,3.943-0.452,4.163-2.22c0.594-4.747-6.809-1.774-9.993-1.11
			c-1.435-0.695-2.314-1.943-3.61-2.776c-4.598,0.433-6.107-2.22-9.161-3.331c-2.139,1.256,0.431,3.162,0,5.274
			c1.618,1.62,4.379,2.1,4.72,4.997c3.797,0.027,4.92,6.8,1.666,7.218c-3.445,0.442-3.144-6.842-6.941-6.94
			c-0.682-2.094-1.783-3.77-3.331-4.997c-3.601,0.233-6.628,3.554-9.717,2.499c-1.213-1.102-0.585-4.043-3.609-3.332
			c-1.976,3.417,2.072,6.899,2.222,10.272c1.259,0.148,0.187-2.034,1.388-1.943c2.527-0.121,2.934,1.879,2.775,4.441
			c-0.975,0.321-1.907,0.684-3.054,0.833c-1.704,3.399,0.081,6.521,1.667,8.884c2.351-0.925-0.759-5.049,1.666-6.385
			c2.04,0.961,2.783,0.606,4.719-0.277c0.451,1.502,1.631,2.101,1.11,3.886c-1.101,0.381-2.351,0.61-3.609,0.834
			c-1.3,2.384,0.464,2.957,1.389,4.164c1.051,1.37,0.97,3.847,2.499,4.164c-0.194,1.01-1.245,1.161-1.389,2.222
			c1.013,2.597,0.582,6.636,3.332,7.495c1.467-0.569,0.793-3.277,1.942-4.164c1.818,0.032,2.394,1.308,2.776,2.776
			c-0.481,1.368-2.667,1.034-3.331,2.221c-0.433,3.336,2.859,6.009,0,7.773c-3.218-0.207-2.106-4.742-4.164-6.108
			c-0.868-0.428-2.555-0.037-3.055-0.832c-0.738-2.28,1.063-3.823,0.834-5.553c-0.149-1.12-1.264-1.307-1.666-2.221
			c-0.903-2.053-0.28-4.592-1.667-6.385c-1.849,0.713-2.338,2.709-4.163,2.775c-2.866,0.105-3.089-4.681-6.664-4.441
			c-1.675-2.805-1.938-6.388-5.829-6.386c-0.333-0.778-0.306-1.915-0.278-3.055c-0.866-0.521-2.209-0.565-2.221-1.942
			c-0.379-1.396,1.118-0.918,1.666-1.389c-1.938-5.004-6.277-7.604-12.216-8.605c-1.403-1.744-1.449-4.844-3.886-5.553
			c-0.338,5.887-5.644,1.778-10.55,1.943c-0.148-1.518-0.665-2.668-0.557-4.441c1.629-0.409,2.647-1.426,3.333-2.777
			c-2.327-1.097-3.116-3.731-6.941-3.332c-1.708-2.549-1.123-7.39-2.221-10.549c-2.025,0.382-4.341-0.66-4.998-2.499
			c2.342-1.012,2.813,1.985,4.72,1.943c1.717-0.037,3.709-3.934,6.387-1.666c-1.13-4.001-1.953-8.169-7.773-8.051
			c-0.38,1.212,1.074,0.591,0.832,1.666c-2.75,1.036-1.112,6.224-4.997,5.274c1.434-2.059,0.835-3.607,2.498-5.552
			c0.45-1.469-1.166-0.869-0.832-2.222c1.234-0.152,3.206,0.432,3.608-0.555c-0.345-0.883-1.222-1.605-1.666-3.054
			c-0.663,0.354,0.277,2.313-1.388,1.665c-1.388-1.15-0.68-2.885-1.389-4.441c-1.043-2.295-4.037-3.729-4.441-5.553
			c-0.944-0.525,0.476-0.973,0.278-1.666c-0.489-1.176-2.407-0.924-2.222-2.775c-1.83,0.602-1.804-1.023-3.331-1.389
			c-0.833-2.221-2.034-4.073-1.943-7.218c-2.353-0.702-2.626-3.481-5.553-3.609c-0.995-4.323-6.731-6.087-11.938-4.441
			c-0.893,0.75-1.819,1.884-1.943,3.054c-0.175,1.654,1.235,2.803,1.389,4.719c0.252,3.149-1.791,6.393-0.833,9.994
			c0.652,0.916,1.313,2.034,2.499,3.055c-0.315,4.305,2.675,7.928,3.608,11.938c0.294,1.259,0.043,2.584,0.278,3.887
			c0.351,1.947,1.423,3.794,1.943,5.83c0.476,1.864,0.533,3.526,1.11,5.275c1.077,3.266,3.861,8.45,4.442,12.215
			c0.204,1.327-0.222,2.636,0,3.887c0.65,3.684,4.114,7.37,5.274,11.66c0.257,0.95,0.075,1.909,0.277,2.776
			c0.711,3.039,2.708,4.926,3.609,7.496c1.206,3.437,0.843,8.142,2.498,10.827c0.957,1.553,3.58,1.986,4.165,3.887
			c1.026,3.337-1.16,6.346,0.832,9.439c0.924,0.927,2.6,1.103,3.888,1.665c0.992,2.765-0.278,6.228,1.11,8.329
			c1.399,0.012,1.814-0.962,2.775-1.388c-0.453-1.41-1.467-3.37,0-4.442c1.781-0.502,2.077,1.933,3.61,2.499
			c-0.198,1.19-1.981,0.795-2.222,1.943c-0.34,1.265,0.762,1.089,0.556,2.221c-4.488,3.874,0.425,9.619,2.498,12.771
			c0.299,1.501-0.753,1.652-0.555,3.054c0.06,1.883,2.797,1.089,2.776,3.054c-3.709,1.382-7.71-1.469-8.329-4.998
			c-3.573-1.238-6.121-3.503-10.271-4.164c-1.18-0.241,1.101-1.364,0.832-2.499c-3.317-2.42-8.893-2.582-11.382-5.83
			c-4.739-0.721-6.831-4.09-10.55-5.83c-6.234,0.448-11.622-1.723-14.159-5.829c-2.575-0.314-4.583-1.638-6.94-3.054
			c-1.271-0.765-2.145-2.244-3.332-2.777c-1.208-0.543-2.763-0.094-3.886-0.555c-2.344-0.96-3.492-3.061-4.998-4.72
			c-1.113,0.614-3.013-0.04-4.164-0.278c-1.799,2.761-7.182,1.264-8.606-1.109c-1.146-0.035-1.738,0.482-3.054,0.277
			c-0.949-0.609-2.34-1.997-1.666-3.331c-3.204-1.267-5.81-2.172-9.161-1.944c-1.974,0.135-3.743,1.498-5.552,1.666
			c-3.334,0.308-7.286-0.919-11.106-0.556c0.034-3.761,6.433-1.155,8.329-3.054c-1.991-2.837-11.027-3.306-12.771,0
			c-4.36-0.37-8.882,1.121-11.661-0.832c0.412-0.977,2.141-0.637,2.777-1.389c-8.417-1.389-20.498-2.624-24.432,3.887
			c-1.799,0.109-3.445,1.342-5.274,0.556c-0.22-1.467-0.879-1.907-0.833-2.776c0.124-2.339,3.797-3.714,4.164-5.275
			c0.549-2.329-1.182-2.813-2.221-4.72c0.684-3.289,1.216-8.076-1.943-8.884c-9.285-1.532-12.035,4.388-16.103,8.884
			c-2.304,2.547-4.097,4.176-3.608,9.162c-0.917,0.841-1.867,1.649-3.887,1.388c-2.111,1.285-2.051,3.805-3.332,5.553
			c-2.246,3.067-5.913,4.042-8.883,6.386c-0.482,2.231,2.248,2.13,1.388,3.886c-3.518,1.053-8.89-0.439-12.216-1.388
			c-0.233-0.692-0.363-1.487-0.277-2.498c-1.584-0.877-2.594-3.303-4.442-5.553c-1.079-1.314-2.913-1.721-3.888-2.776
			c-1.326-1.438-1.455-3.688-3.33-4.164c-2.97-0.755-4.439,1.441-6.663,2.776c-0.642,5.116-6.104,6.821-5.829,11.938
			c-1.93,1.682-3.314,3.905-3.61,7.218c-1.37,1.221-3.354,1.829-3.331,4.442c5.334,2.769,1.455-6.974,6.385-4.164
			c0.426,1.775-2.249,2.707-1.388,5.83c-1.808,1.616-5.951,0.896-6.386,3.886c0.415,1.529,3.264,0.624,3.332,2.499
			c-1.593,0.907-3.817,1.181-5.275,2.222c-3.027-1.627-7.355-1.669-9.439-4.998c-0.604-0.964-0.293-2.463-1.11-3.331
			c-0.623-0.663-5.419-2.625-6.385-2.776c-5.569-0.872-10.378,4.887-13.326,7.773c0.826,1.043,2.563-0.219,3.331,1.11
			c-0.048,1.682-2.627,2.097-4.164,1.389c-3.024,1.509-6.576,2.493-9.439,4.164c-0.998,1.415,1.461,2.232,0.277,3.887
			c-2.204,1.611-3.193-0.083-4.997,0c-3.054,0.141-3.824,2.729-6.107,3.887c-1.293,0.656-2.917,0.508-4.165,1.11
			c-2.939,1.422-4.863,4.714-8.606,4.721c-2.868,1.479-5.984,2.715-9.439,3.608c-2.322,1.758-3.922,4.091-7.218,4.442
			c-1.241,0.132-2.542-0.729-3.887-0.557c-0.932,0.121-1.618,1.132-2.776,1.666c-4.408,2.035-10.987,1.948-13.048,5.553
			C4.04,164.273,3.171,166.377,0,165.89V167c0.946,0.481,1.128,0.16,2.554,0.374c0.292,2.577,3.526,2.212,3.887,4.72
			c4.489,4.354,15.15,3.786,22.209,2.499c0.873-0.238,1.171-1.05,2.221-1.11c3.62-0.929,7.134,0.29,10.827-0.278
			c2.133-0.328,4.127-1.791,6.386-1.943c2.587-0.174,5.253,0.878,7.773,0.556c0.855-0.109,1.805-0.834,2.776-1.111
			c3.378-0.964,7.873-1.07,11.382-1.942c3.378-0.841,6.165-2.182,8.606-2.776c1.153-0.281,2.473,0.014,3.609-0.277
			c0.994-0.257,1.851-1.146,2.775-1.389c1.095-0.288,2.434,0.03,3.609-0.277c2.072-0.543,4.932-2.281,7.773-0.556
			c-4.826,0.635-7.352,3.568-8.605,7.773c-2.855,0.429-2.802,4.157-1.666,6.386c-2.859,0.547-3.517,4.206-6.663,3.608
			c-2.435,2.193-5.216,4.039-5.554,8.329c-1.197,1.379-3.849,2.203-3.053,4.719c4.606,1.852,9.411,0.183,14.714,1.111
			c1.239-0.426,1.574-1.757,2.776-2.221c8.979-0.739,11.165-8.27,18.878-10.272c1.642-3.079,5.262-4.177,10.272-3.887
			c2.284,2.252,6.273,1.69,8.328-0.277c0.984,0.127,1.604,0.617,2.776,0.556c1.675-0.588,2.798-3.069,4.72-2.499
			c-0.701,1.486-1.08,2.195-1.388,3.608c-1.712,0.416-4.075,0.182-4.442,1.944c1.37,2.065,4.035,2.464,6.939,1.666
			c3.157,4.058,11.533,1.662,17.77,3.331c1.719,0.46,3.918,1.226,6.107,0.555c0.59,0.521,1.768,0.453,2.221,1.111
			c3.385-0.256,5.823,1.307,8.052,1.388c2.06,0.075,3.679-0.893,6.662-1.388c7.997-1.328,17.915,1.957,22.488-2.221
			c14.477,1.112,28.554-5.295,42.476-2.776c0.807-0.577,0.596-1.345,0.833-1.944c1.19-0.021,2.715-1.159,3.888-0.277
			c-1.868,1.017-2.968,3.828-0.834,5.275c4.166,1.007,10.52-3.691,13.604-0.277c-0.768,1.453-2.577,1.865-4.997,1.665
			c3.182,6.696,13.324-0.04,17.489,4.997c-0.951,3.241,3.505,3.349,6.108,2.498c2.428,2.117,5.428-0.567,8.884,0
			c1.46,2.555,4.112,0.124,6.386,0.833c-1.096,0.941-2.263,1.81-2.499,3.609c-1.173,0.417-2.298-0.262-3.609,0.278
			c0.294,2.02,1.581,3.046,3.609,3.331c0.906-0.943,0.069-2.389,0.556-3.331c1.713,0.121,3.1,0.144,4.163,0.277
			c-0.44,1.595-2.126,1.945-2.775,3.331c1.104,1.241,2.527,0.887,4.164,1.389c1.247,0.381,2.669,1.643,3.887,1.665
			c1.188,0.022,2.022-1.156,3.332-1.388c2.773-0.491,5.549,0.466,8.605,0.555c-1.538,3.426,3.428,5.832,5.83,6.108
			c2.004,0.229,6.252-1.996,5.83,1.665c-2.387-0.076-6.707-1.845-6.939,1.389c2.055,2.295,6.187,2.512,8.605,4.441
			c0.811-0.974,2.72-1.549,3.609-0.277c-0.093,1.389-1.563,1.399-1.666,2.776c2.117,3.326,12.715-1.361,13.604,2.498
			c0.602,2.612-2.178,1.178-2.221,3.61c1.402,1.089,2.847-0.269,4.442,0c1.325,0.223,2.233,1.778,3.608,2.22
			c2.373,0.764,4.601-0.13,6.386,1.389c0.258,1.738-1.454,1.508-1.111,3.331c1.749,0.961,3.517,3.868,5.553,4.165
			c1.757,0.255,4.298-1.359,6.663-1.666c2.674-0.347,5.323-0.857,6.941,0c-0.842,0.455-2.277,0.314-2.777,1.111
			c-0.781,3.373,2.395,2.788,3.055,4.719c-0.45,1.956-2.807,2.006-3.609,3.609c0.907,1.868,4.694,0.857,6.386,1.943
			c0.155,1.419,1.067,2.078,1.665,3.054c1.858,0.271,3.043,1.215,4.442,1.943c1.332,4.498,6.288,5.372,9.439,8.052
			c-0.163,0.996,0.322,1.343,0.555,1.942c0.971,1.066,2.699,1.373,3.887,2.222v2.498c2.083,2.42,5.787,1.529,9.439,2.222
			c2.421,6.079,5.558,10.321,9.995,14.714c1.951-0.194,3.11,0.405,4.44,0.833c0.489,4.23,5.816,3.623,4.998,9.161
			c7.163,3.604,11.462,10.472,17.49,15.27c3.479,2.77,6.308,5.466,9.467,8.539l3.026-0.211c7.148-1.619,0.068-6.009,1.665-11.66
			c-1.543-2.156-3.728-3.675-3.886-7.218c-4.171-2.956-5.905-8.347-9.162-12.215c0.771-4.288-2.732-4.301-4.441-6.108
			c-0.982-4.57-4.727-6.379-5.275-11.383c-2.739-3.184-9.096-2.75-8.884-8.883c-1.598-0.716-2.913-1.715-4.441-2.499
			c1.633-6.383-7.824-4-8.329-9.162c0.208-0.902,2.159-0.063,1.943-1.388c-3.032-2.244-5.24-5.31-8.606-7.219
			c0.085-1.012-0.045-1.807-0.277-2.498c-4.421-3.68-9.997-4.49-14.159-8.329c-0.185-1.665,0.252-2.71,0.278-4.164
			c-1.737-1.782-4.933,2.477-6.663-0.277c0.473-0.823,1.908-0.683,2.775-1.11c0.313-0.8,0.583-1.639,1.111-2.222
			c7.855-4.089,16.33,1.728,24.153,2.776c0.681,0.697,1.439,1.948,2.498,2.499c1.03,0.535,7.827,2.473,8.329,2.498
			c1.152,0.059,2.112-0.781,3.331-0.833c2.193-0.093,4.141,0.857,5.83,1.666c0.384,1.957-0.62,2.526-0.833,3.886
			c2.498,0.835,7.111-0.447,9.162,0.834c1.042,0.856-0.005,2.077,0.555,3.331c2.042,2.876,7.459-0.329,9.439,3.054
			c-0.095,1.016-0.951,1.271-1.665,1.666c-0.654-0.921-2.577-0.569-3.61-1.11c-0.309,0.801-0.499,1.722-0.555,2.775
			c1.411,1.513,5.861,2.734,8.605,1.666c1.141-0.443,1.507-2.107,2.776-2.498c2.808-0.864,6.022,0.613,8.607,0
			c-1.724,4.478-11.249,1.152-12.216,6.386c1.404,0.632,3.084,0.986,4.72,1.388c0.996,3.723,5.305,4.134,7.219,6.94
			c1.958-0.002,2.059,0.147,3.608,0.556c0.57,0.54,0.433,1.787,0.833,2.498c7.23,3.968,10.746,11.649,16.936,16.657
			c4.464,0.811,6.219,4.331,9.438,6.386c-0.036,0.685-0.042,1.338,0.278,1.665c1.401,0.199,2.405,0,2.498-1.109
			c0.714,0.767,1.346,1.614,3.054,1.388c0.297-0.26,0.833-1.003,1.333-1.418l-0.5-1.636
			C495.078,281.457,495.585,272.621,489.783,270.095z M402.609,84.087c-2.718,1.536-4.109-1.794-7.219-0.277
			c-0.154-0.4-0.433-0.678-0.832-0.833C393.975,75.498,403.542,80.188,402.609,84.087z M15.879,170.705
			c0.711-0.252,1.574-0.449,1.944,0.278C17.94,172.408,15.616,171.854,15.879,170.705z M38.368,155.714
			c1.015-1.205,2.824-1.617,4.997-1.666c0.618,0.678,1.017,1.574,0.833,3.054C42.125,158.056,37.8,158.395,38.368,155.714z
			M38.645,161.544C39.307,158.469,41.586,162.939,38.645,161.544L38.645,161.544z M40.588,169.04h1.666
			C42.193,169.612,40.283,170.588,40.588,169.04z M43.365,159.878c0.098-0.92,1.6-0.436,2.499-0.555
			C46.121,160.579,43.866,160.241,43.365,159.878z M47.528,154.325h-1.387c0.066-0.428,1.032-1.33,1.387-0.555V154.325z
			M53.081,149.328c-0.178-2.492,3.11-1.517,4.997-1.942C58.035,149.602,54.687,151.231,53.081,149.328z M58.912,147.94
			c-0.737-1.157,0.185-2.674,1.943-2.221c-0.001,0.741,0.878,0.604,0.833,1.388C60.37,146.993,60.229,148.055,58.912,147.94z
			M61.965,146.83c0.478-2.301,4.394-2.636,6.663-2.222C68.129,146.971,64.105,147.843,61.965,146.83z M65.852,154.881
			c0.938-0.957,3.382-0.528,4.442,0C70.097,157.833,66.719,155.946,65.852,154.881z M304.053,136.28
			c-1.735,0.124-4.459-0.813-5.553-2.222C300.354,133.735,303.433,134.459,304.053,136.28z M293.503,126.563
			c-0.516,2.426-4.358,1.154-4.719-0.556C290.661,125.879,292.35,125.467,293.503,126.563z M300.166,158.49
			c-3.009,0.967-9.812,1.186-11.382-1.111C291.779,155.917,298.725,155.533,300.166,158.49z M302.665,170.983
			c-1.47,2.262-5.33,0.347-7.496,0C294.262,166.862,300.587,170.535,302.665,170.983z M283.787,120.455
			c0.932,0.363,1.911,0.681,2.498,1.389c0.164,0.996-0.322,1.344-0.556,1.944c-1.37,0.26-1.882-0.339-2.499-0.834
			C282.922,121.627,284.096,121.783,283.787,120.455z M277.679,117.124c-1.272,0.693-3.028-0.219-3.054-1.666
			C275.879,114.783,277.483,115.847,277.679,117.124z M274.902,119.9c-0.008,0.271-0.34,0.216-0.555,0.277
			C274.355,119.908,274.688,119.963,274.902,119.9z M275.457,106.297c1.123,0.313,0.248,1.888,0,2.499
			c-1.698,0.729-3.888,0.164-3.886-1.666C272.243,106.329,274.217,107.08,275.457,106.297z M271.293,127.674
			c-3.943,0.216-8.318-0.798-12.215-0.277c0.854-1.31,5.828-2.114,8.885-1.666C269.328,125.932,271.009,126.554,271.293,127.674z
			M265.186,137.391c-1.811,1.033-4.056-0.47-4.996-1.943c3.289,0.059,5.328-5.173,8.328-1.943c-0.096,1.571-2.473,0.859-3.332,1.666
			C265.123,136.329,265.637,136.481,265.186,137.391z M269.35,143.498v1.666c-1.76,0.369-3.283,0.974-5.552,0.833
			c-0.266-1.122-0.8-1.977-1.11-3.054C264.422,141.441,267.891,142.345,269.35,143.498z M268.795,137.669
			c0.064-0.889,1.801-0.637,1.665,0.277C269.611,138.146,269.448,137.662,268.795,137.669z M269.905,120.733
			c-1.199,1.35-5.549,1.207-6.107-0.556C264.178,116.102,270.568,115.246,269.905,120.733z M268.518,113.238
			c-2.174,1.127-5.526-0.549-6.387-2.499C264.629,110.131,267.657,111.293,268.518,113.238z M262.131,119.9
			c-0.373,1.139-0.84,1.927-0.832,2.776c-1.907,0.149-3.135-0.382-3.887-1.388C257.67,119.004,260.687,118.798,262.131,119.9z
			M249.917,141.555c0.005-0.653-0.479-0.816-0.278-1.665c2.501-0.611,5.186,0.894,7.496,1.388
			C256.792,143.496,251.385,142.401,249.917,141.555z M256.023,147.94c-0.02,1.729-2.363,2.016-3.886,1.388
			c0.061-1.049,0.872-1.348,1.11-2.221C254.438,147.121,255.355,147.407,256.023,147.94z M255.469,132.949
			c-0.172,1.216-0.331,2.444-1.666,2.498C253.04,134.212,254.078,131.976,255.469,132.949z M256.302,105.465
			c0.159,0.58,0.688,0.791,0.556,1.665c-1.23-0.066-1.983-0.609-2.222-1.665H256.302z M252.138,114.348
			c1.612-0.522,3.138,0.257,4.72,0.556C256.361,117.737,250.52,118.889,252.138,114.348z M256.857,128.507
			c-0.455,4.475-6.986,1.419-8.885,0C248.299,126.76,255.014,127.516,256.857,128.507z M250.472,106.02
			c-0.854,0.795-4.056,0.286-5.274-0.277C245.777,103.958,250.051,104.412,250.472,106.02z M231.316,129.617
			c0.152-3.851,3.938-3.258,5.553-1.11c3.227-0.146,6.27,0.03,6.385,1.943c0.1,1.676-1.916,1.546-4.164,2.776
			c-0.654,0.357-1.901,2.043-2.777,2.221c-2.401,0.49-4.813-1.173-5.553-2.498c1.475-0.283,4.508,0.314,6.109-0.556
			C237.941,129.008,234.386,129.323,231.316,129.617z M247.695,137.113c-0.387,1.896-3.746,1.963-5.274,1.11
			C242.422,136.06,247.074,134.48,247.695,137.113z M247.973,146.274c-0.214,1.359-1.232,1.913-1.943,2.776
			c-0.861-0.341-1.219-1.188-1.387-2.221C245.748,146.642,246.629,146.226,247.973,146.274z M242.977,112.96
			c0.807-0.339,2.074-1.263,3.053-0.556c-0.436,1.229-1.338,1.993-3.053,1.943V112.96z M247.418,121.844
			c-1.15,1.275-5.783,2.353-6.108-0.277C242.536,120.896,246.834,119.779,247.418,121.844z M240.755,105.742
			c-0.909,2.236-6.097,0.194-7.773,1.665c-0.927-0.368-1.331-1.26-1.944-1.942C232.828,103.909,238.434,105.118,240.755,105.742z
			M232.426,107.963c1.055,0.253,0.203,1.115,0.277,1.943c-0.635,0.177-1.674,0.551-2.221,0
			C230.771,108.897,231.576,108.408,232.426,107.963z M236.313,117.124c-1.266,1.423-3.595,5.455-5.83,2.499
			C231.049,117.413,233.92,117.508,236.313,117.124z M230.482,136.836C230.664,137.018,230.367,136.719,230.482,136.836
			L230.482,136.836z M223.543,102.966c1.33-0.504,3.61,0.211,4.997,0.555C228.205,106.379,223.31,105.852,223.543,102.966z
			M226.041,124.343c1.354-0.119,1.775-2.365,3.054-1.666c0.224,0.963-0.413,1.067-0.277,1.943c-1.556-0.167-2.63,0.146-3.61,0.555
			c-1.102-2.634-4.928-1.112-7.218-2.221C220.124,120.255,224.814,122.654,226.041,124.343z M224.375,148.773
			c-3.41,1.916-6.223-0.964-9.994-1.666c-0.5-0.994-0.189-2.255,0.277-3.054C218.697,144.827,222.475,145.86,224.375,148.773z
			M219.934,137.669c0.266,1.196-1.755,0.939-2.222,0.555C217.461,137.063,219.67,136.623,219.934,137.669z M223.264,140.167
			c0.024-0.395,0.047-0.786-0.277-0.832c0.778-1.701,4.464-1.873,4.165,0.832C226.248,140.489,224.131,140.688,223.264,140.167z
			M217.989,105.742c0.255,1.18-0.665,1.186-1.665,1.11C215.939,105.538,217.34,105.173,217.989,105.742z M217.712,114.348
			c1.024,1.659-1.526,2.463-2.499,1.389C214.66,113.958,216.713,113.692,217.712,114.348z M214.381,117.124
			c-0.039,1.072-1.084,1.138-2.222,1.11C211.852,116.856,213.844,116.789,214.381,117.124z M216.879,127.951
			c-1.529,1.34-3.186,2.551-5.553,3.054C211.042,127.852,214.714,128.655,216.879,127.951z M212.715,135.725
			c-2.186-2.192-6.777,1.017-8.329-1.943c1.56-0.939,3.921-1.076,6.108-1.388C211.551,133.066,212.902,134.71,212.715,135.725z
			M196.335,167.374c-2.466,2.921-5.915-1.525-6.94-3.608c2.838-0.975,7.826-4.589,9.994-0.556c0.031,2.159-4.043,0.214-4.719,1.665
			C194.318,166.613,196.686,165.636,196.335,167.374z M191.338,156.27c1.137-0.488,4.232-1.487,5.274-0.278
			C195.764,157.427,191.811,159.174,191.338,156.27z M196.612,150.162c2.384-1.024,4.646-3.078,8.052-2.222
			C203.807,151.288,199.385,152.35,196.612,150.162z M196.335,142.11c-1.561,0.265-2.215-0.376-3.054-0.833
			c2.021-2.851,3.902-5.008,7.773-4.164c2.504,0.545,4.567,4.715,7.496,2.499c-0.182,1.02-1.023,1.382-1.666,1.942
			C203.947,141.405,198.75,139.064,196.335,142.11z M210.216,108.24c-3.631,0.052-6.942,1.847-9.993,0.833
			C203.084,108.209,209.002,103.294,210.216,108.24z M191.894,116.014v1.666c-1.165,0.689-3.355,0.817-4.165-0.278
			C188.256,115.909,190.594,115.148,191.894,116.014z M190.783,130.173c1.758,0.158,4.222-0.736,5.829-1.388
			c2.159-0.875,4.159-2.698,6.94-0.557c1.574-0.832,0.95-3.861,2.222-4.997c1.829,0.115,2.309,1.579,2.776,3.055
			c-1.645,3.01-6.104,2.029-10.272,3.331c-3.504,1.095-6.144,4.078-9.439,3.609c-1.581-0.225-3.328-1.784-4.441-2.776
			C186.201,127.501,188.74,129.988,190.783,130.173z M184.676,141c0.475-0.635,2.118-0.103,3.053-0.277
			C187.633,141.892,185.279,141.11,184.676,141z M187.729,154.604c0.02,2.148-1.895,2.362-3.609,2.775
			c-0.537-0.675-0.266-2.322,0-3.054C185.526,154.078,186.606,153.998,187.729,154.604z M182.454,101.3h1.11v0.555h-1.11V101.3z
			M184.119,112.96c0.096,2.523-5.67,3.111-6.662,1.11C179.795,113.966,181.602,111.972,184.119,112.96z M171.904,148.218
			c-0.658-2.948,2.711-2.492,4.164-3.054c2.056-0.794,3.609-3.065,5.83-3.054c0.68,0.895,1.338,1.81,1.389,3.332
			C179.98,146.682,176.456,149.144,171.904,148.218z M181.621,152.66c-0.563,0.918-1.672,1.289-3.055,1.388
			C178.033,151.833,180.4,152.378,181.621,152.66z M168.573,144.608c-0.292,0.727-1.129,0.909-2.222,0.834
			C166.439,144.511,167.609,144.664,168.573,144.608z M165.241,128.229c0.037-1.351,1.087-1.688,2.499-1.665
			C167.816,128.027,166.295,127.894,165.241,128.229z M166.907,136.558c0.838-2.016,6.224-2.386,7.218-0.277
			C173.357,138.225,167.998,138.169,166.907,136.558z M175.235,126.008c1.839-0.798,4.871-2.245,6.386-0.277
			c-0.373,1.2-1.737,1.41-2.221,2.498c0.273,1.11,0.273,1.667,0,2.776c-1.461,1.205-4.221,1.701-6.386,1.389
			C172.845,129.395,176.82,129.556,175.235,126.008z M173.292,160.712c-0.198,1.387-3.401,1.733-4.163,0.832
			C169.475,159.49,171.963,159.804,173.292,160.712z M178.566,120.733c-1.111,0.283-2.008,0.143-3.053-0.278
			C175.601,118.993,178.793,118.948,178.566,120.733z M168.851,108.519c2.333-0.403,5.861-3.442,7.496-1.111
			c0.182,2.256-1.923,1.948-3.332,2.776c-2.511,1.477-4.521,5.185-8.052,4.442C165.262,111.593,168.146,111.145,168.851,108.519z
			M166.352,120.178c-0.609,1.797-2.943,1.87-4.441,2.776C160.043,119.767,164.383,118.749,166.352,120.178z M166.074,136.558
			c-0.438,2.159-3.607,2.359-5.274,1.111C160.834,135.257,164.773,135.367,166.074,136.558z M162.465,169.317
			c-0.775-1.508,1.217-3.362,2.776-2.498C165.407,168.743,164.275,169.37,162.465,169.317z M160.8,149.051
			c1.031,1.375,0.201,4.61,1.388,5.83c-0.96,3.122-6.463,2.948-8.051,0.556C156.827,153.777,157.053,149.654,160.8,149.051z
			M158.301,163.487c-0.086-1.771,2.83-2.652,3.609-1.11C162.184,164.23,159.193,164.488,158.301,163.487z M161.354,170.15
			c-0.88,1.634-4.45-0.048-4.997-1.388C158.563,168.687,159.049,170.328,161.354,170.15z M150.527,164.875
			c-1.892-0.791-4.437-0.931-4.72-3.331c3.004-0.531,4.495-3.993,8.606-2.499c0.131,2.353-2.672,1.77-3.887,2.776
			C150.289,163.223,150.452,163.374,150.527,164.875z M148.029,172.927c-0.008,0.27-0.342,0.215-0.557,0.277
			C147.481,172.935,147.813,172.988,148.029,172.927z M153.026,149.885c-0.858,1.547-3.608,1.203-5.274,1.942
			c-0.053-2.633-1.186-4.184-1.666-6.385c1.265-0.509,3.256-1.594,4.441-0.556C148.992,147.949,152.021,148.475,153.026,149.885z
			M153.859,137.946c-0.724,1.344-3.111,1.565-4.443,0.832C148.455,136.032,153.74,136.283,153.859,137.946z M151.082,120.733
			c0.211,1.629-1.74,1.687-2.775,2.498c-1.332,1.046-2.512,4.098-4.721,2.222C143.74,121.863,148.043,119.602,151.082,120.733z
			M146.918,140.167c0.197,2.278-3.086,2.266-4.441,1.388C141.183,138.901,145.73,138.872,146.918,140.167z M138.59,156.547
			c0.368-2.408,4.027-1.526,4.441-3.887C148.568,155.131,141.984,160.53,138.59,156.547z M141.92,170.15
			c-1.947,0.282-2.215-1.116-3.053-1.943c1.016-2.027,2.503-5.63,5.552-3.887C144.658,167.336,142.193,167.646,141.92,170.15z
			M137.479,142.389c1.179-0.542,2.904-0.193,3.887,0.277C141.189,144.672,137.191,145.028,137.479,142.389z M135.813,123.231
			c-0.309-2.412,2.462-2.534,3.888-1.665v2.499C138.425,124.581,136.15,124.491,135.813,123.231z M140.811,112.404
			c0.089,0.651,0.439,1.043,0.277,1.943c-1.983,0.175-3.922,1.461-5.553,1.11C134.401,112.665,138.219,111.473,140.811,112.404z
			M133.592,103.243c0.075,0.264-1.272,1.879-1.388,1.943c-1.421,0.796-4.246,0.188-5.831,0.556c-0.467-0.644-1.038-1.183-1.109-2.222
			C127.045,102.282,133.01,101.188,133.592,103.243z M129.705,110.739c0.074,0.906-0.863,0.802-1.11,1.388
			c-1.689-0.254-2.999-0.888-4.72-1.11C125.66,110.579,127.997,109.662,129.705,110.739z M127.484,147.663
			c0.795-0.055,1.516-0.034,1.388,0.833C128.406,148.967,127.242,148.717,127.484,147.663z M127.762,140.167
			c1.051-0.237,0.983,1.243,0.556,1.666C127.268,142.071,127.335,140.59,127.762,140.167z M125.818,145.442
			c-1.194,0.084-2.24,0.02-2.221-1.111C124.338,143.794,126.293,143.897,125.818,145.442z M123.875,126.842
			c-0.463,1.295-1.717,1.799-3.609,1.665C119.908,126.367,122.525,125.608,123.875,126.842z M120.266,139.612
			c-0.037,0.887,0.274,2.124-0.832,1.942C118.953,140.992,118.909,139.185,120.266,139.612z M117.768,144.331
			c-1,1.657-4.269,3.472-6.385,2.221C111.167,143.773,116.357,142.808,117.768,144.331z M117.213,156.547
			c-1.132,0.23-0.957,0.043-2.222,0C114.744,155.253,117.379,155.496,117.213,156.547z M114.436,153.216
			c0.039-0.979,1.246-0.791,1.944-1.111C116.348,153.091,115.461,153.222,114.436,153.216z M102.221,135.725
			C103.177,136.442,100.793,136.396,102.221,135.725L102.221,135.725z M93.06,127.674c1.29-0.63,3.325,0.115,4.163,0.833
			c0.039,1.148-0.631,1.59-1.109,2.221C93.957,130.849,92.938,129.83,93.06,127.674z M95.559,136.003v-0.556h1.387
			C97.23,136.38,96.082,135.88,95.559,136.003z M80.289,159.045c0.061-1.372,2.787-1.486,2.775,0
			C82.559,159.47,80.795,159.47,80.289,159.045z M83.342,137.113c-1.076-0.681-3.685,0.168-4.719-0.556
			c0.497-1.405,1.404-0.826,2.498-1.665c0.332-0.255,1.373-2.073,1.943-2.222c1.047-0.271,2.348,1.027,3.609,1.11
			c1.347,0.09,3.725-1.594,4.72,0.556C90.332,136.884,83.814,133.978,83.342,137.113z M91.115,150.994
			c-0.378-2.405,3.368-3.035,3.332-0.555C93.76,150.978,92.109,151.644,91.115,150.994z M95.28,172.927
			c0.038-1.35,2.622-1.321,3.608-0.833C98.912,173.798,96.42,173.129,95.28,172.927z M98.889,182.644
			c1.806-0.186,3.227-1.76,4.998-1.11C104.274,184.136,99.605,184.357,98.889,182.644z M100.555,168.207h1.666
			C102.281,168.901,100.24,169.745,100.555,168.207z M98.334,145.72c-1.113-0.275-1.338-1.438-2.221-1.943
			c-3.105-0.43-5.313,2.516-7.773,2.221c-1.602-0.191-2.332-1.978-4.165-2.499c0.854-2.477,3.272-1.292,4.442,0
			c3.947-1.979,8.891,0.175,13.326,0c3.08-0.121,5.816-1.77,8.328-0.555C108.365,146.556,101.533,143.552,98.334,145.72z
			M108.606,167.651c-1.604,0.124-2.758-0.203-3.332-1.11c0.923-1.298,2.237-2.205,3.609-3.054
			C110.499,164.103,109.57,167.107,108.606,167.651z M109.162,152.66c0.438-2.289,3.855-0.172,4.719,0.556
			C111.875,153.111,110.248,153.944,109.162,152.66z M114.436,164.32c0.089-1.965,3.037-1.517,3.887-0.555
			C117.889,165.41,115.72,164.712,114.436,164.32z M118.045,150.162c-0.462-2.365,2.983-2.523,2.776-0.277
			C120.141,150.202,118.832,150.809,118.045,150.162z M122.765,172.371c-1.443-0.334-3.479,0.221-3.608-1.388
			c3.17-3.307,9.281-1.559,11.382,1.388C129.156,174.81,125.23,172.943,122.765,172.371z M133.592,149.605
			c2.373-1.016,7.264-3.29,8.328,0.557c-2.606,0.815-5.736,1.11-8.051,2.221c-0.412,0.79-0.504,1.9-1.109,2.498
			c-0.52-0.221-1.017-0.463-1.666-0.556C131.286,152.113,133.828,152.249,133.592,149.605z M132.482,163.766
			c-1.162-1.847,1.271-3.596,3.053-2.499C135.397,162.957,133.957,164.271,132.482,163.766z M135.258,175.147
			c0.024-2.134,3.167-2.216,4.998-1.665c0.74,1.665,1.051,3.76,2.775,4.441c-0.177,1.002-1.33-0.075-2.498,0.277
			C140.441,176.162,136.577,176.741,135.258,175.147z M137.201,182.088c2.643-0.166,7.174-2.152,7.773,1.11
			C142.532,183.752,138.566,183.527,137.201,182.088z M164.686,180.422c-1.916,1.206-3.829-0.515-5.83-0.555
			c-0.885-0.018-1.861,0.589-2.775,0.555c-1.039-0.038-2.154-0.783-3.332-0.832c-2.875-0.121-7.225,2.155-8.329-1.389
			c2.69-0.709,6.604-0.338,8.052,1.111c2.799-1.206,4.713-5.203,6.94-1.111c1.747,0.018,3.647-1.077,5.274-0.277
			C165.104,178.374,165.104,179.972,164.686,180.422z M176.902,185.975c0.208-4.078-5.045-5.581-7.496-2.499
			c-0.305,1.784,1.908,1.053,1.943,2.499c-2.746,1.579-6.623,0.135-6.108-3.331c0.646-0.928,2.407-0.739,3.609-1.11
			c1.328-2.285,5.897-3.966,8.884-2.776c0.662,1.297-0.526,2.184-0.832,3.331c0.311,1.91,2.856,1.585,3.053,3.609
			C178.95,186.251,178.229,186.291,176.902,185.975z M169.961,171.816c1.775-2.25,4.779-0.575,7.773-0.833
			c2.475-0.214,4.855-2.354,6.941-0.833C182.57,176.025,175.568,171.555,169.961,171.816z M188.283,162.099
			c-0.094,0.904-2.277,0.638-2.775,0.278C185.59,161.065,187.965,160.863,188.283,162.099z M188.562,172.927
			c-0.007,0.27-0.34,0.215-0.556,0.277C188.014,172.935,188.346,172.988,188.562,172.927z M196.612,179.59
			c-2.9,0.891-7.485,1.221-9.716,0c4.078-2.129,8.395-2.293,13.604-2.499C199.545,177.612,198.284,179.076,196.612,179.59z
			M201.609,159.045c-0.894-0.123-1.611-0.423-1.387-1.666c0.661-0.447,1.777-0.441,2.498-0.832c-0.217-1.883,0.58-2.751,2.221-2.776
			c0.708,0.773,0.661,2.3,1.111,3.331c-0.732,0.268-2.379,0.538-3.055,0C202.283,157.497,202.582,158.907,201.609,159.045z
			M202.443,161.821c1.123-0.311,1.371,0.853,0.832,1.389C202.789,162.956,202.312,162.693,202.443,161.821z M206.885,180.978
			c-1.049,0.802-2.619,1.082-4.441,1.11c0.25-1.993,2.777-3.967,4.719-2.498C207.276,180.258,206.655,180.193,206.885,180.978z
			M205.497,166.819v1.943c-0.73,0.286-1.704,0.332-2.776,0.277c-0.017-1.59,1.5-1.646,2.221-2.499
			c-1.156-3.139,2.721-3.954,3.887-2.221C208.909,166.345,206.389,165.768,205.497,166.819z M209.383,175.425
			c-0.15-1.445,1.278-1.313,2.499-1.388C211.967,175.348,210.361,176.058,209.383,175.425z M212.159,158.768
			c-0.716,0.579-1.76,0.831-2.221,1.666c-1.458-0.114-0.927-2.219-1.942-2.776c0.288-1.269,2.924-1.411,4.163-0.833V158.768z
			M214.381,151.827c-1.059-0.052-1.827-0.394-1.943-1.388C213.658,150.329,214.317,150.78,214.381,151.827z M219.655,170.428
			c-3.532,0.387-5.116-1.175-6.94-2.499c1.095-1.985,4.609-0.34,6.663-1.665C219.945,167.176,219.527,169.075,219.655,170.428z
			M220.488,163.766c1.779-1.807,5.395-0.313,7.773-1.111c1.643-0.552,2.896-3.289,3.887-1.11
			C230.496,165.13,224.319,166.094,220.488,163.766z M231.594,174.593c0.813-0.25,0.854-0.25,1.665,0
			C233.564,175.749,231.287,175.749,231.594,174.593z M224.93,158.768c-3.258-0.559-5.676,1.359-8.051,0
			c0.779-1.071,1.092-2.609,1.666-3.887c3.508,1.495,9.858-1,13.049,0c1.569,0.492,3.1,2.87,6.107,1.666
			c1.094,1.164,0.572,2.509,0.555,4.442C234.031,159.826,229.1,153.37,224.93,158.768z M236.591,175.147
			c0.272-0.889,2.649-1.827,3.054-0.833C239.451,175.348,237.486,175.698,236.591,175.147z M239.645,167.651
			C239.035,168.5,237.866,167.331,239.645,167.651L239.645,167.651z M247.973,169.317c0.242-1.831,4.11-1.075,5.553-0.832
			C253.105,170.775,249.293,170.859,247.973,169.317z M255.746,168.485C255.929,168.667,255.63,168.368,255.746,168.485
			L255.746,168.485z M252.971,162.377c1.109-1.278,3.715,0.211,3.887,1.666C254.783,164.266,253.73,163.467,252.971,162.377z
			M251.305,155.991c-1.052,1.354-1.763,3.05-4.442,2.776c0.106-0.939-1.229-0.437-0.833-1.666c0.271-1.578,3.279-0.423,3.609-1.942
			c0.004-4.404-5.264-1.854-6.94-0.834c-1.417-1.266-2.288-3.078-4.165-3.886c-1.166,0.498-2.174,1.157-3.886,1.11
			c-1.221,0.109-0.726-1.497-1.666-1.665c-1.845-0.517-4.856,1.365-6.386-0.279c4.414-2.553,8.369-8.437,16.103-5.829
			c-1.011,3.167-9.044-0.896-9.162,3.054c-0.03,1.02,0.606,0.981,1.111,1.943c5.221-1.252,8.355,6.535,10.827,0.555
			c1.454,0.294,3.25-0.226,4.997,0.277c0.122,0.955-0.109,1.557-0.277,2.222c1.151,0.818,2.128,2.242,3.608,2.221
			c1.424-0.021,2.333-1.873,3.888-2.221c3.187-0.714,4.4,0.978,7.495,1.666c0.124,1.171,1.191,1.399,0.833,3.054
			C260.853,155.116,256.225,152.854,251.305,155.991z M262.409,174.87c-0.035-0.499,0.341-0.586,0.278-1.11
			c1.918,0.025,3.785,0.102,3.887,1.942C265.197,176.418,263.059,175.778,262.409,174.87z M269.35,148.773
			c-0.131-2.198,3.336-1.343,4.443-0.833C273.248,149.109,270.438,149.862,269.35,148.773z M272.682,178.757
			c-0.002-0.85,1.918-1.206,2.498-0.556C275.27,179.289,273.26,179.196,272.682,178.757z M275.457,124.343
			c1.313-0.911,3.973-0.335,3.609,0.832C278.809,126.575,274.776,126.435,275.457,124.343z M276.291,140.723
			c-0.252-1.321-0.631-2.517-0.555-4.165c0.76-0.662,1.677-0.551,2.775-0.277C278.348,138.337,278.85,141.061,276.291,140.723z
			M277.679,154.604c0.665-0.168,1.267-0.399,2.222-0.278C280.24,156.092,277.768,155.961,277.679,154.604z M279.345,178.201h1.11
			C280.514,179.109,279.152,179.297,279.345,178.201z M279.066,163.21c0.457-0.872,2.402-0.275,2.5,0.833
			C280.303,164.195,279.488,163.899,279.066,163.21z M280.455,131.005c0.391-0.997,1.194-1.581,2.775-1.388
			c0.401,1.45,1.509,2.194,1.944,3.609C282.42,134.336,281.51,132.385,280.455,131.005z M285.175,158.768
			c-0.045,0.325-0.507,0.234-0.833,0.277C284.387,158.721,284.848,158.812,285.175,158.768z M284.342,138.224
			c0.261,1.128-1.504,0.963-1.943,0.555C282.666,138.214,283.465,138.179,284.342,138.224z M287.396,191.527
			c-1.578-0.551-2.979-1.278-4.72-1.665c-0.162-2.198,2.476-1.597,4.442-1.667C287.955,188.871,288.27,190.633,287.396,191.527z
			M296.557,182.088c-1.126,0.076-1.523,0.883-3.054,0.556c-0.31-0.894-0.759-1.646-0.832-2.776c-2.115-1.421-6.254-0.257-8.329-1.11
			c-1.342-5.132,4.827-3.754,8.051-2.776c0.38,1.286,0.253,3.079,1.388,3.609c2.271-0.168,1.706-2.756,1.666-3.888
			c1.918-0.556,3.326,1.373,5.275,1.666C300.383,179.991,297.103,179.673,296.557,182.088z M299.056,183.198
			c0.754-2.114,3.12-2.617,6.108-2.498c-0.324,1.989-1.813,2.814-2.499,4.441C301.378,184.578,299.871,184.234,299.056,183.198z
			M299.611,194.303c1.486-1.294,3.545-0.105,3.608,1.666c1.632-0.058,2.977,0.171,4.165,0.556
			C305.939,199.158,299.743,197.296,299.611,194.303z M305.719,191.249c0.073-1.037,0.602-1.619,1.943-1.387
			C307.843,191.153,307.01,191.431,305.719,191.249z M308.495,185.697c-0.143-1.461,2.363-1.461,2.221,0
			C310.169,186.248,309.13,185.874,308.495,185.697z M306.829,174.593c-1.962-0.259-2.656-1.786-3.609-3.054
			c2.355-0.091,7.699-3.073,7.773,1.109C309.113,172.805,308.052,173.779,306.829,174.593z M311.826,129.34h-0.555v-0.555h0.555
			V129.34z M321.266,160.989c-1.312,0.472-3.367-0.7-4.165-1.666h1.667C319.346,160.132,320.065,160.802,321.266,160.989z
			M317.935,138.778c-0.022,0.846-1.815,0.651-2.221,0.278C315.734,138.212,317.528,138.405,317.935,138.778z M316.546,155.159h-1.666
			c-0.665-0.815-1.078-1.883-1.11-3.332C315.724,150.017,317.156,153.606,316.546,155.159z M317.379,177.646
			c-2.622,0.124-3.869-1.129-5.275-2.222C312.488,172.837,319.148,174.654,317.379,177.646z M317.379,189.862
			c-0.656,0.982-4.197,1.844-4.441,0C313.88,189.416,316.436,189.416,317.379,189.862z M312.66,195.969
			c1.215-4.261,4.02,0.086,6.107,1.111C317.048,197.112,314.301,197.168,312.66,195.969z M320.988,182.644
			c-0.651,0.089-1.042,0.438-1.943,0.277C318.145,179.871,321.549,179.82,320.988,182.644z M315.714,169.04
			c1.8-0.117,5.169-1.275,6.107,0.277C322.01,171.873,314.988,172.401,315.714,169.04z M428.429,287.862
			c0.845,0.174,1.419,0.617,1.388,1.666C429.119,290.087,428.084,289.205,428.429,287.862z M423.153,277.868
			c-2.401,0.022-6.686,1.777-6.663-1.665C418.652,275.324,422.688,275.439,423.153,277.868z M406.496,258.989
			c0.979,1.844-0.264,4.654,1.11,6.387c-3.407-0.018-3.54-3.309-4.72-5.553C403.56,258.417,405.027,258.413,406.496,258.989z
			M396.779,264.542c1.539,0.404,2.177,1.711,3.609,2.222c0.012,0.845-0.586,1.079-0.833,1.666
			C397.279,268.622,395.949,266.548,396.779,264.542z M392.615,247.885c0.858,0.916,1.568,2.634,0.555,3.887
			C390.99,251.941,388.106,247.146,392.615,247.885z M409.272,122.121c-2.096,0.244-1.996-1.704-1.943-3.608
			C409.227,118.346,409.86,120.705,409.272,122.121z M408.717,110.739c0.119,1.414-0.122,2.468-0.833,3.054h-1.109
			C406.092,112.285,406.609,110.303,408.717,110.739z M395.946,135.17c0.813-0.25,0.853-0.25,1.666,0
			C397.81,136.384,395.591,136.833,395.946,135.17z M390.394,113.238c2.608-1.042,2.952,1.854,3.054,4.163
			c-0.845,0.266-1.116,1.104-2.499,0.833C390.046,117.034,389.555,114.632,390.394,113.238z M388.729,103.521v1.944
			c-1.431,0.307-2.691,1.179-3.888,0.277C383.993,102.901,387.014,102.928,388.729,103.521z M381.232,119.346
			c0.685-0.037,1.338-0.042,1.665,0.277C382.833,120.511,381.097,120.26,381.232,119.346z M376.235,127.951
			c2.453-0.669,3.139,2.355,1.943,3.61C376.429,131.482,375.727,129.429,376.235,127.951z M374.014,95.47
			c-2.453,2.985-5.198-1.796-5.552-4.442C370.734,91.006,373.356,92.958,374.014,95.47z M368.462,122.954
			c-0.213-1.971,1.622-1.894,2.498-2.776c-0.393-3.031-2.572-4.275-5.552-4.72c0.139-1.805-1.367-1.964-1.389-3.608
			c1.807-1.816,6.149,0.323,7.773,1.389c-0.031,2.421,1.41,5.12,0.277,6.939c0.738,0.906,2.636,1.896,1.666,3.61
			C372.244,124.279,370.312,123.01,368.462,122.954z M369.85,140.167C368.189,134.354,374.831,138.961,369.85,140.167L369.85,140.167z
			M365.963,184.31c1.598-0.024,3.206-0.061,4.442,0.277c0.602,2.729,3.726,2.937,4.441,5.553c-2.038,1.038-2.195-2.007-3.608-2.499
			c-4.168,0.281-5.332-2.442-8.606-3.054c-0.008-1.21,0.886-1.521,1.11-2.499c-0.35-1.409-1.184-2.332-2.222-3.054
			c1.098-0.938,2.414-1.658,4.165-1.943C365.889,179.11,363.077,182.578,365.963,184.31z M374.569,173.76
			c0.403-0.408,1.817-0.408,2.221,0v1.11C375.97,175.488,374.257,175.143,374.569,173.76z M362.632,209.018v-0.833
			c0.71-0.629,1.958-0.112,2.499,0.278C365.057,209.387,363.316,209.564,362.632,209.018z M365.131,214.292
			c-0.179,0.934-1.332,0.891-2.499,0.833C362.502,213.201,364.422,213.37,365.131,214.292z M363.187,192.638
			c0.069-0.349,0.553-0.28,0.556,0C363.619,193.041,363.499,192.61,363.187,192.638z M358.189,172.094
			c2.159-1.765,7.14-3.114,7.219,1.389C363.77,173.63,359.072,173.952,358.189,172.094z M352.359,197.357
			c1.047-1.463,3.662-2.526,5.275-1.11c-1.14,3.375,0.633,4.231,2.864,4.813c0.225,0.032,0.469,0.09,0.744,0.184
			c-0.251-0.06-0.501-0.121-0.744-0.184c-1.259-0.184-1.813,0.51-2.587,1.295c-1.207,0.096-1.549-0.673-2.499-0.834
			c-0.092-1.018,0.309-1.543,0.556-2.221C355.167,198.251,353.801,197.768,352.359,197.357z M363.742,130.45
			c-0.313,1.771-4.137,2.199-5.553,1.111C357.833,128.964,362.96,128.547,363.742,130.45z M359.3,119.623
			c0.472-1.38,1.583-2.118,3.609-1.943C363.221,119.774,360.687,120.95,359.3,119.623z M363.465,96.857
			c2.084-0.665,3.935,0.476,3.608,3.054c-1.118,1.043-3.139,0.356-3.887-0.555C363.102,98.346,363.231,97.55,363.465,96.857z
			M361.521,147.94c0.65,0.091,1.147,0.333,1.666,0.556c-0.033,0.8,0.151,1.817-0.277,2.221c-0.813,0.25-0.853,0.25-1.666,0
			C360.997,150.006,361.171,148.803,361.521,147.94z M359.855,147.107c0.12-0.942,1.812-0.646,1.388,0.556
			C360.879,147.38,360.221,147.391,359.855,147.107z M363.187,142.389h-1.388c-0.123-1.234,0.154-2.066,1.388-1.944
			C363.813,141.045,362.957,141.392,363.187,142.389z M358.189,159.045C358.371,159.228,358.073,158.93,358.189,159.045
			L358.189,159.045z M359.855,164.32c-0.944,0.45-2.108,0.042-3.055-0.277C357.039,162.826,360.13,162.229,359.855,164.32z
			M355.413,179.034v-0.833c1.232-0.652,3.365-0.117,3.887,0.833C358.703,180.387,356.215,179.765,355.413,179.034z M364.297,136.28
			c0.218-1.955,2.804-2.874,4.72-2.222C368.62,135.905,365.919,136.541,364.297,136.28z M372.627,107.685
			c-1.98-0.519-3.789-1.208-4.998-2.498C367.025,98.966,376.383,105.121,372.627,107.685z M368.462,89.918
			c-2.405,0.005-4.494-2.507-2.499-4.442C367.616,85.995,369.537,87.578,368.462,89.918z M344.863,66.598
			c-1.715,0.049-3.481,0.148-3.887-1.111C341.414,62.519,344.827,64.469,344.863,66.598z M341.532,71.316
			c0.315,0.609,0.716,1.135,0.556,2.221c1.532,1.152,4.512,0.855,6.107,1.943c0.958-0.226,2.585-1.604,4.442-1.388
			c0.707,0.082,1.394,1.327,2.775,1.665c2.302,0.564,3.519,0.045,5.275,1.111c2.999,1.818,5.771,4.633,3.886,6.94
			c-4.314-0.034-4.807-3.892-6.939-6.107c-2.051-0.107-1.338,2.55-3.054,2.775c-2.3-1.312-3.781-4.308-6.664-4.72
			c-2.241-0.318-4.439,1.755-7.218,0.555c-0.238-1.891-1.632-2.623-2.776-3.607C337.237,70.207,340.309,71.127,341.532,71.316z
			M353.747,84.643c-0.007,0.271-0.34,0.216-0.555,0.277C353.2,84.65,353.532,84.704,353.747,84.643z M342.92,92.139
			c0.311,2.161-0.807,2.894-2.498,3.054c-0.932-1.197-2.245-2.013-3.054-3.332C338.756,90.951,341.796,91.181,342.92,92.139z
			M330.149,62.987c-0.146,0.224-0.29,0.451-0.277,0.833c-1.775,0.863-3.597-0.415-4.441-1.389
			C326.607,61.373,329.327,62.028,330.149,62.987z M320.711,42.999c0.444,1.093-1.199,0.097-1.111,0.833
			c-0.377-0.087-0.23-0.695-0.277-1.11C319.726,42.873,320.757,42.396,320.711,42.999z M321.543,51.605h-0.555v-1.11h0.555V51.605z
			M322.099,49.106c-1.387,0.276-1.359-0.862-2.499-0.833c0.074-0.911,0.705-2.098-0.277-2.498c-0.113-0.67,0.507-0.604,0.277-1.389
			h1.943C320.366,46.055,322.234,46.928,322.099,49.106z M323.765,56.88c-0.432-0.986,0.942-0.168,0.832-0.833
			c0.326,0.045,0.235,0.506,0.278,0.833H323.765z M324.597,71.039c-0.563-4.973,5.353,1.802,6.107,1.388
			c-0.049,1.245-0.523,2.067-1.388,2.499C328.636,72.799,324.816,72.965,324.597,71.039z M328.762,79.368
			c1.46-2.105,5.092-0.476,5.83,1.388c-0.979,0.317-1.512,1.079-2.222,1.666c-0.31,3.826,1.782,5.25,1.944,8.605
			C331.75,87.854,328.116,85.75,328.762,79.368z M333.203,101.022c-0.148-1.444,0.439-2.151,1.111-2.776
			c-1.824-1.99-0.421-5.019,0.277-7.496c3.378,2.056-0.948,7.238,1.943,9.161C336.421,101.187,334.377,101.697,333.203,101.022z
			M336.535,111.017c0.422-3.208-0.295-8.292,3.887-5.83c0.046,2.193-1.887,4.038,0.277,5.274c0.124,1.143-1.175,0.862-0.833,2.221
			C338.731,112.783,337.245,112.116,336.535,111.017z M344.309,118.79c-2.229-0.826-4.466-1.642-4.442-4.72
			C342.091,114.119,346.097,115.597,344.309,118.79z M342.643,102.133c0.723-3.229,6.175-2.302,7.773-0.556
			c-0.056,4.941,0.931,9.531,7.219,7.773c-1.626,1.436-2.825,3.963-4.997,3.888c-2.025-0.071-3.038-2.87-4.998-3.61
			c-0.235-3.106-0.462-5.046,1.666-6.107C348.29,100.185,344.863,102.048,342.643,102.133z M353.47,143.221
			c-0.395-0.024-0.786-0.045-0.832,0.277c-1.324-0.341-1.633-1.698-1.944-3.054c-0.021-0.946,1.028-0.822,1.944-0.832
			C353.263,140.511,353.934,142.062,353.47,143.221z M349.584,130.173c-1.41,0.299-1.708-0.514-2.222-1.11
			c0.139-1.087,1.697-1.846,2.776-1.111C350.3,129.038,349.9,129.563,349.584,130.173z M358.745,189.029
			c-0.335,1.331-1.612,1.719-3.332,1.665c-1.908-1.979-5.324-2.448-8.328-3.331C349.64,185.327,357.001,186.706,358.745,189.029z
			M347.085,199.579c-0.155-0.679-1.075-0.593-0.834-1.666c0.905-0.619,2.974-0.775,4.165-0.277
			C350.005,198.983,348.855,199.591,347.085,199.579z M347.362,203.188c-0.695,2.183-4.343,1.396-4.442-0.832
			C343.698,200.111,346.77,201.448,347.362,203.188z M349.584,181.811c-3.415,0.664-7.037-0.688-7.774-3.609
			C345.081,177.497,350.887,177.931,349.584,181.811z M334.036,141.833c1.128,0.426,2.568,0.201,3.332,0.556
			c1.479,0.687,2.826,2.461,4.72,3.054c-0.724,1.863-3.304,0.271-3.888-0.556c-1.954,0.104-2.846-0.855-4.164-1.389
			c-1.43,0.345-3.767,1.084-4.997,0C329.703,139.936,331.638,140.93,334.036,141.833z M324.042,147.663
			C324.556,143.211,327.814,148.768,324.042,147.663L324.042,147.663z M325.152,158.49c-0.324-1.139,1.931-1.115,1.943-0.277
			C327.141,159.289,325.43,159.201,325.152,158.49z M327.65,199.579c0.046-0.323-0.061-0.495-0.277-0.557
			c0.216-1.444,2.158-1.214,3.054-0.555C330.37,199.797,328.811,200.156,327.65,199.579z M328.762,185.142h1.665
			c0.087,0.649,0.544,1.147,0,1.667C329.273,186.852,328.717,186.297,328.762,185.142z M330.704,219.29
			C331.731,220.132,329.861,220.226,330.704,219.29L330.704,219.29z M329.316,157.102c-0.087-1.293,2.295-1.452,2.776-0.555
			C332.131,158.051,330.174,157.131,329.316,157.102z M335.146,150.439c-1.497-0.181-3.144,0.854-3.886-0.555
			c2.61-2.762,8.333-0.11,9.994,1.665C339.954,152.318,337.396,150.71,335.146,150.439z M337.923,219.29
			c0.358-0.383,1.206-0.275,1.943-0.278C340.138,219.861,337.822,220.379,337.923,219.29z M337.646,205.964v-1.666
			c1.754,0.005,2.886,0.631,2.776,2.499C339.048,206.967,338.645,206.167,337.646,205.964z M347.362,214.57
			c-3.138,0.676-8.782-1.045-6.663-4.72c1.444,0.086,5.145,0.188,7.218,0.556C347.495,211.557,347.215,212.85,347.362,214.57z
			M349.306,221.788c1.041-2.172,5.869-3.496,8.329-1.666C356.162,221.858,351.709,221.887,349.306,221.788z M349.584,210.129
			c0.7-2.353,9.018-3.91,9.161,0C355.903,211.352,352.246,211.949,349.584,210.129z M363.465,225.676
			c-1.688-1.542-6.803-5.407-1.944-6.941c1.24,1.277,1.101,2.522,2.499,3.609c1.742,1.353,5.579,0.471,5.553,3.609
			C367.921,226.405,365.972,225.242,363.465,225.676z M369.294,201.244c0.423-1.829,3.954-1.672,4.72-0.277
			C373.76,202.521,369.645,203.059,369.294,201.244z M378.456,243.998c-1.807,0.5-3.361,0.102-4.997-0.277
			c1.057-0.979,2.35-1.723,4.442-1.666C377.854,242.934,378.64,242.982,378.456,243.998z M382.065,250.938
			c-0.216-0.617-0.583-1.082-0.556-1.943c1.185,0.111,2.119,0.473,2.222,1.666C383.402,250.98,382.749,250.976,382.065,250.938z
			M382.343,243.998C379.923,237.88,388.972,243.474,382.343,243.998L382.343,243.998z M383.731,233.448
			c-0.933,0.438-2.264,0.197-2.499-0.833C381.988,232.063,383.902,232.207,383.731,233.448z M381.788,214.57
			c-0.75,0.546-2.427,0.165-3.609,0.277c-0.418-3.747-3.156-5.172-5.274-7.218c2.422-0.781,3.643,2.032,5.552,3.331
			C380.092,212.074,382.547,212.362,381.788,214.57z M384.563,217.068c0.196-2.463,4.169-1.582,4.442,1.111
			C387.479,220.296,384.421,218.868,384.563,217.068z M387.063,209.295c-0.708-0.911,0.324-1.936,0-3.331
			c-0.948-1.458-3.314-1.498-5.83-1.389c-1.966-1.181-2.532-3.76-4.165-5.274c0.262-2.063,3.392-3.555,5.275-2.221
			c0.293,1.402-0.633,1.588-0.555,2.776c2.528,2.931,7.44,3.478,8.605,7.773C389.859,208.761,388.695,209.263,387.063,209.295z
			M394.003,211.238c0.42-1.587,2.524-1.112,2.222,0.833C395.291,212.541,394.607,211.847,394.003,211.238z M395.391,219.29
			c0.147-0.95,1.338-0.426,1.944-0.278C397.329,219.818,395.766,219.668,395.391,219.29z M398.167,160.434
			c-1.346,0.241-2.282,1.376-3.054,1.388c-2.015,0.033-5.026-2.922-8.884-3.331c-2.059-0.218-3.904,0.225-5.552-0.277
			c-4.455-1.358-7.937-5.652-12.493-5.274c1.212-3.767-3.813-3.644-3.61-6.664c0.147-2.178,3.168-2.031,6.386-3.331
			c1.289-0.521,2.065-1.49,3.332-1.666c1.671-0.231,5.978,0.271,7.496,0.556c2.397,0.447,5.365,1.949,8.328,3.054
			c3.066,1.142,6.659,1.973,8.328,3.054c1.6,1.036,3.114,3.763,4.998,3.609c-0.251,2.842,2.232,2.949,2.775,4.997
			c-0.99,1.091-2.771,3.362-4.719,3.887C400.644,160.663,399.333,160.225,398.167,160.434z M405.663,221.788
			c-1.157,0.659-3.194,0.142-3.331-1.109C402.918,218.952,405.928,220.114,405.663,221.788z M409.551,182.088
			c-1.646-0.113-3.87,0.353-4.721-0.555c0.199-1.657,3.523-2.185,4.721-1.111V182.088z M418.989,94.081
			c-0.067,0.488-0.478,0.633-1.11,0.556C417.835,93.858,418.663,93.731,418.989,94.081z M413.991,132.116
			c0.892-0.244,0.576,0.721,1.111,0.833C414.794,134.272,412.937,132.966,413.991,132.116z M414.825,104.076
			c-0.046-0.323,0.062-0.494,0.277-0.556c1.191,0.501,3.286-0.885,4.164,0.833C418.932,106.277,415.207,105.379,414.825,104.076z
			M419.544,76.313c0.009-0.269,0.34-0.215,0.556-0.277C420.092,76.306,419.761,76.252,419.544,76.313z M426.207,86.03
			C426.528,84.934,426.528,87.127,426.207,86.03L426.207,86.03z M427.04,105.187h-3.054c0.046-0.322-0.062-0.494-0.277-0.556
			C423.456,102.552,427.892,102.715,427.04,105.187z M442.864,173.76v1.388c-1.138,0.503-3.018,0.308-3.886-0.277
			C438.521,172.567,442.075,172.395,442.864,173.76z M440.644,231.783c0.692-1.721,2.869-1.426,4.442-1.111
			C444.417,231.905,442.079,232.978,440.644,231.783z M446.752,169.04h-1.111v-0.555h1.111V169.04z M446.752,158.213
			c-0.43-0.569-0.43-2.485,0-3.054h0.832C448.229,156.285,448.205,157.843,446.752,158.213z M462.576,251.771v-1.388
			C463.693,250.112,463.693,252.043,462.576,251.771z M462.854,245.387c-1.453-2.752,1.114-4.728,3.054-2.776
			C465.539,244.185,463.919,244.508,462.854,245.387z M468.129,252.882c-0.356-0.364-0.356-1.023,0-1.388
			C469.777,251.293,469.777,253.083,468.129,252.882z M477.29,258.712C477.056,260.354,477.449,257.599,477.29,258.712L477.29,258.712
			z"/>
	</symbol>
</svg>